<?xml version="1.0" encoding="utf-8" standalone="no"?>
<!DOCTYPE svg PUBLIC "-//W3C//DTD SVG 1.1//EN"
  "http://www.w3.org/Graphics/SVG/1.1/DTD/svg11.dtd">
<svg xmlns:xlink="http://www.w3.org/1999/xlink" width="504pt" height="360pt" viewBox="0 0 504 360" xmlns="http://www.w3.org/2000/svg" version="1.1">
 <metadata>
  <rdf:RDF xmlns:dc="http://purl.org/dc/elements/1.1/" xmlns:cc="http://creativecommons.org/ns#" xmlns:rdf="http://www.w3.org/1999/02/22-rdf-syntax-ns#">
   <cc:Work>
    <dc:type rdf:resource="http://purl.org/dc/dcmitype/StillImage"/>
    <dc:date>2023-12-15T12:39:27.615801</dc:date>
    <dc:format>image/svg+xml</dc:format>
    <dc:creator>
     <cc:Agent>
      <dc:title>Matplotlib v3.7.1, https://matplotlib.org/</dc:title>
     </cc:Agent>
    </dc:creator>
   </cc:Work>
  </rdf:RDF>
 </metadata>
 <defs>
  <style type="text/css">*{stroke-linejoin: round; stroke-linecap: butt}</style>
 </defs>
 <g id="figure_1">
  <g id="patch_1">
   <path d="M 0 360 
L 504 360 
L 504 0 
L 0 0 
z
" style="fill: #ffffff"/>
  </g>
  <g id="axes_1">
   <g id="patch_2">
    <path d="M 63 320.4 
L 453.6 320.4 
L 453.6 43.2 
L 63 43.2 
z
" style="fill: #ffffff"/>
   </g>
   <g id="patch_3">
    <path d="M 80.754545 320.4 
L 85.863769 320.4 
L 85.863769 56.4 
L 80.754545 56.4 
z
" clip-path="url(#pcff1379462)" style="fill: #1f77b4; opacity: 0.8"/>
   </g>
   <g id="patch_4">
    <path d="M 93.5276 320.4 
L 98.636824 320.4 
L 98.636824 127.947022 
L 93.5276 127.947022 
z
" clip-path="url(#pcff1379462)" style="fill: #1f77b4; opacity: 0.8"/>
   </g>
   <g id="patch_5">
    <path d="M 106.300655 320.4 
L 111.409879 320.4 
L 111.409879 153.845849 
L 106.300655 153.845849 
z
" clip-path="url(#pcff1379462)" style="fill: #1f77b4; opacity: 0.8"/>
   </g>
   <g id="patch_6">
    <path d="M 119.07371 320.4 
L 124.182934 320.4 
L 124.182934 180.105839 
L 119.07371 180.105839 
z
" clip-path="url(#pcff1379462)" style="fill: #1f77b4; opacity: 0.8"/>
   </g>
   <g id="patch_7">
    <path d="M 131.846765 320.4 
L 136.955989 320.4 
L 136.955989 199.660677 
L 131.846765 199.660677 
z
" clip-path="url(#pcff1379462)" style="fill: #1f77b4; opacity: 0.8"/>
   </g>
   <g id="patch_8">
    <path d="M 144.61982 320.4 
L 149.729043 320.4 
L 149.729043 214.724307 
L 144.61982 214.724307 
z
" clip-path="url(#pcff1379462)" style="fill: #1f77b4; opacity: 0.8"/>
   </g>
   <g id="patch_9">
    <path d="M 157.392875 320.4 
L 162.502098 320.4 
L 162.502098 225.380693 
L 157.392875 225.380693 
z
" clip-path="url(#pcff1379462)" style="fill: #1f77b4; opacity: 0.8"/>
   </g>
   <g id="patch_10">
    <path d="M 170.16593 320.4 
L 175.275153 320.4 
L 175.275153 234.601707 
L 170.16593 234.601707 
z
" clip-path="url(#pcff1379462)" style="fill: #1f77b4; opacity: 0.8"/>
   </g>
   <g id="patch_11">
    <path d="M 182.938985 320.4 
L 188.048208 320.4 
L 188.048208 242.131327 
L 182.938985 242.131327 
z
" clip-path="url(#pcff1379462)" style="fill: #1f77b4; opacity: 0.8"/>
   </g>
   <g id="patch_12">
    <path d="M 195.71204 320.4 
L 200.821263 320.4 
L 200.821263 203.412577 
L 195.71204 203.412577 
z
" clip-path="url(#pcff1379462)" style="fill: #1f77b4; opacity: 0.8"/>
   </g>
   <g id="patch_13">
    <path d="M 208.485095 320.4 
L 213.594318 320.4 
L 213.594318 267.118649 
L 208.485095 267.118649 
z
" clip-path="url(#pcff1379462)" style="fill: #1f77b4; opacity: 0.8"/>
   </g>
   <g id="patch_14">
    <path d="M 221.25815 320.4 
L 226.367373 320.4 
L 226.367373 226.404802 
L 221.25815 226.404802 
z
" clip-path="url(#pcff1379462)" style="fill: #1f77b4; opacity: 0.8"/>
   </g>
   <g id="patch_15">
    <path d="M 234.031205 320.4 
L 239.140428 320.4 
L 239.140428 217.80626 
L 234.031205 217.80626 
z
" clip-path="url(#pcff1379462)" style="fill: #1f77b4; opacity: 0.8"/>
   </g>
   <g id="patch_16">
    <path d="M 246.80426 320.4 
L 251.913483 320.4 
L 251.913483 286.335479 
L 246.80426 286.335479 
z
" clip-path="url(#pcff1379462)" style="fill: #1f77b4; opacity: 0.8"/>
   </g>
   <g id="patch_17">
    <path d="M 259.577315 320.4 
L 264.686538 320.4 
L 264.686538 288.823032 
L 259.577315 288.823032 
z
" clip-path="url(#pcff1379462)" style="fill: #1f77b4; opacity: 0.8"/>
   </g>
   <g id="patch_18">
    <path d="M 272.35037 320.4 
L 277.459593 320.4 
L 277.459593 290.232342 
L 272.35037 290.232342 
z
" clip-path="url(#pcff1379462)" style="fill: #1f77b4; opacity: 0.8"/>
   </g>
   <g id="patch_19">
    <path d="M 285.123425 320.4 
L 290.232648 320.4 
L 290.232648 292.27017 
L 285.123425 292.27017 
z
" clip-path="url(#pcff1379462)" style="fill: #1f77b4; opacity: 0.8"/>
   </g>
   <g id="patch_20">
    <path d="M 297.89648 320.4 
L 303.005703 320.4 
L 303.005703 284.276091 
L 297.89648 284.276091 
z
" clip-path="url(#pcff1379462)" style="fill: #1f77b4; opacity: 0.8"/>
   </g>
   <g id="patch_21">
    <path d="M 310.669535 320.4 
L 315.778758 320.4 
L 315.778758 262.054514 
L 310.669535 262.054514 
z
" clip-path="url(#pcff1379462)" style="fill: #1f77b4; opacity: 0.8"/>
   </g>
   <g id="patch_22">
    <path d="M 323.44259 320.4 
L 328.551813 320.4 
L 328.551813 245.120836 
L 323.44259 245.120836 
z
" clip-path="url(#pcff1379462)" style="fill: #1f77b4; opacity: 0.8"/>
   </g>
   <g id="patch_23">
    <path d="M 336.215645 320.4 
L 341.324868 320.4 
L 341.324868 242.836178 
L 336.215645 242.836178 
z
" clip-path="url(#pcff1379462)" style="fill: #1f77b4; opacity: 0.8"/>
   </g>
   <g id="patch_24">
    <path d="M 348.9887 320.4 
L 354.097923 320.4 
L 354.097923 277.579896 
L 348.9887 277.579896 
z
" clip-path="url(#pcff1379462)" style="fill: #1f77b4; opacity: 0.8"/>
   </g>
   <g id="patch_25">
    <path d="M 361.761755 320.4 
L 366.870978 320.4 
L 366.870978 297.273226 
L 361.761755 297.273226 
z
" clip-path="url(#pcff1379462)" style="fill: #1f77b4; opacity: 0.8"/>
   </g>
   <g id="patch_26">
    <path d="M 374.53481 320.4 
L 379.644033 320.4 
L 379.644033 298.10673 
L 374.53481 298.10673 
z
" clip-path="url(#pcff1379462)" style="fill: #1f77b4; opacity: 0.8"/>
   </g>
   <g id="patch_27">
    <path d="M 387.307865 320.4 
L 392.417088 320.4 
L 392.417088 299.340432 
L 387.307865 299.340432 
z
" clip-path="url(#pcff1379462)" style="fill: #1f77b4; opacity: 0.8"/>
   </g>
   <g id="patch_28">
    <path d="M 400.08092 320.4 
L 405.190143 320.4 
L 405.190143 299.996189 
L 400.08092 299.996189 
z
" clip-path="url(#pcff1379462)" style="fill: #1f77b4; opacity: 0.8"/>
   </g>
   <g id="patch_29">
    <path d="M 412.853974 320.4 
L 417.963198 320.4 
L 417.963198 300.624535 
L 412.853974 300.624535 
z
" clip-path="url(#pcff1379462)" style="fill: #1f77b4; opacity: 0.8"/>
   </g>
   <g id="patch_30">
    <path d="M 425.627029 320.4 
L 430.736253 320.4 
L 430.736253 301.222201 
L 425.627029 301.222201 
z
" clip-path="url(#pcff1379462)" style="fill: #1f77b4; opacity: 0.8"/>
   </g>
   <g id="matplotlib.axis_1">
    <g id="xtick_1">
     <g id="line2d_1">
      <path d="M 121.628322 320.4 
L 121.628322 43.2 
" clip-path="url(#pcff1379462)" style="fill: none; stroke-dasharray: 1.85,0.8; stroke-dashoffset: 0; stroke: #b0b0b0; stroke-opacity: 0.5; stroke-width: 0.5"/>
     </g>
     <g id="line2d_2">
      <defs>
       <path id="mb3e956b51f" d="M 0 0 
L 0 -3 
" style="stroke: #000000; stroke-width: 0.5"/>
      </defs>
      <g>
       <use xlink:href="#mb3e956b51f" x="121.628322" y="320.4" style="stroke: #000000; stroke-width: 0.5"/>
      </g>
     </g>
     <g id="text_1">
      <!-- $\mathdefault{5}$ -->
      <g transform="translate(117.970203 334.277725) scale(0.15 -0.15)">
       <defs>
        <path id="CMR17-35" d="M 730 3692 
C 794 3666 1056 3584 1325 3584 
C 1920 3584 2246 3911 2432 4100 
C 2432 4157 2432 4192 2394 4192 
C 2387 4192 2374 4192 2323 4163 
C 2099 4058 1837 3973 1517 3973 
C 1325 3973 1037 3999 723 4139 
C 653 4171 640 4171 634 4171 
C 602 4171 595 4164 595 4037 
L 595 2203 
C 595 2089 595 2057 659 2057 
C 691 2057 704 2070 736 2114 
C 941 2401 1222 2522 1542 2522 
C 1766 2522 2246 2382 2246 1289 
C 2246 1085 2246 715 2054 421 
C 1894 159 1645 25 1370 25 
C 947 25 518 320 403 814 
C 429 807 480 795 506 795 
C 589 795 749 840 749 1038 
C 749 1210 627 1280 506 1280 
C 358 1280 262 1190 262 1011 
C 262 454 704 -128 1382 -128 
C 2042 -128 2669 440 2669 1264 
C 2669 2030 2170 2624 1549 2624 
C 1222 2624 947 2503 730 2274 
L 730 3692 
z
" transform="scale(0.015625)"/>
       </defs>
       <use xlink:href="#CMR17-35" transform="scale(0.996264)"/>
      </g>
     </g>
    </g>
    <g id="xtick_2">
     <g id="line2d_3">
      <path d="M 185.493597 320.4 
L 185.493597 43.2 
" clip-path="url(#pcff1379462)" style="fill: none; stroke-dasharray: 1.85,0.8; stroke-dashoffset: 0; stroke: #b0b0b0; stroke-opacity: 0.5; stroke-width: 0.5"/>
     </g>
     <g id="line2d_4">
      <g>
       <use xlink:href="#mb3e956b51f" x="185.493597" y="320.4" style="stroke: #000000; stroke-width: 0.5"/>
      </g>
     </g>
     <g id="text_2">
      <!-- $\mathdefault{10}$ -->
      <g transform="translate(178.177359 334.277725) scale(0.15 -0.15)">
       <defs>
        <path id="CMR17-31" d="M 1702 4058 
C 1702 4192 1696 4192 1606 4192 
C 1357 3916 979 3827 621 3827 
C 602 3827 570 3827 563 3808 
C 557 3795 557 3782 557 3648 
C 755 3648 1088 3686 1344 3839 
L 1344 461 
C 1344 236 1331 160 781 160 
L 589 160 
L 589 0 
C 896 0 1216 0 1523 0 
C 1830 0 2150 0 2458 0 
L 2458 160 
L 2266 160 
C 1715 160 1702 230 1702 458 
L 1702 4058 
z
" transform="scale(0.015625)"/>
        <path id="CMR17-30" d="M 2688 2025 
C 2688 2416 2682 3080 2413 3591 
C 2176 4039 1798 4198 1466 4198 
C 1158 4198 768 4058 525 3597 
C 269 3118 243 2524 243 2025 
C 243 1661 250 1106 448 619 
C 723 -39 1216 -128 1466 -128 
C 1760 -128 2208 -7 2470 600 
C 2662 1042 2688 1559 2688 2025 
z
M 1466 -26 
C 1056 -26 813 325 723 812 
C 653 1188 653 1738 653 2096 
C 653 2588 653 2997 736 3387 
C 858 3929 1216 4096 1466 4096 
C 1728 4096 2067 3923 2189 3400 
C 2272 3036 2278 2607 2278 2096 
C 2278 1680 2278 1169 2202 792 
C 2067 95 1690 -26 1466 -26 
z
" transform="scale(0.015625)"/>
       </defs>
       <use xlink:href="#CMR17-31" transform="scale(0.996264)"/>
       <use xlink:href="#CMR17-30" transform="translate(45.690477 0) scale(0.996264)"/>
      </g>
     </g>
    </g>
    <g id="xtick_3">
     <g id="line2d_5">
      <path d="M 249.358872 320.4 
L 249.358872 43.2 
" clip-path="url(#pcff1379462)" style="fill: none; stroke-dasharray: 1.85,0.8; stroke-dashoffset: 0; stroke: #b0b0b0; stroke-opacity: 0.5; stroke-width: 0.5"/>
     </g>
     <g id="line2d_6">
      <g>
       <use xlink:href="#mb3e956b51f" x="249.358872" y="320.4" style="stroke: #000000; stroke-width: 0.5"/>
      </g>
     </g>
     <g id="text_3">
      <!-- $\mathdefault{15}$ -->
      <g transform="translate(242.042634 334.277725) scale(0.15 -0.15)">
       <use xlink:href="#CMR17-31" transform="scale(0.996264)"/>
       <use xlink:href="#CMR17-35" transform="translate(45.690477 0) scale(0.996264)"/>
      </g>
     </g>
    </g>
    <g id="xtick_4">
     <g id="line2d_7">
      <path d="M 313.224146 320.4 
L 313.224146 43.2 
" clip-path="url(#pcff1379462)" style="fill: none; stroke-dasharray: 1.85,0.8; stroke-dashoffset: 0; stroke: #b0b0b0; stroke-opacity: 0.5; stroke-width: 0.5"/>
     </g>
     <g id="line2d_8">
      <g>
       <use xlink:href="#mb3e956b51f" x="313.224146" y="320.4" style="stroke: #000000; stroke-width: 0.5"/>
      </g>
     </g>
     <g id="text_4">
      <!-- $\mathdefault{20}$ -->
      <g transform="translate(305.907909 334.277725) scale(0.15 -0.15)">
       <defs>
        <path id="CMR17-32" d="M 2669 989 
L 2554 989 
C 2490 536 2438 459 2413 420 
C 2381 369 1920 369 1830 369 
L 602 369 
C 832 619 1280 1072 1824 1597 
C 2214 1967 2669 2402 2669 3035 
C 2669 3790 2067 4224 1395 4224 
C 691 4224 262 3604 262 3030 
C 262 2780 448 2748 525 2748 
C 589 2748 781 2787 781 3010 
C 781 3207 614 3264 525 3264 
C 486 3264 448 3258 422 3245 
C 544 3790 915 4058 1306 4058 
C 1862 4058 2227 3617 2227 3035 
C 2227 2479 1901 2000 1536 1584 
L 262 146 
L 262 0 
L 2515 0 
L 2669 989 
z
" transform="scale(0.015625)"/>
       </defs>
       <use xlink:href="#CMR17-32" transform="scale(0.996264)"/>
       <use xlink:href="#CMR17-30" transform="translate(45.690477 0) scale(0.996264)"/>
      </g>
     </g>
    </g>
    <g id="xtick_5">
     <g id="line2d_9">
      <path d="M 377.089421 320.4 
L 377.089421 43.2 
" clip-path="url(#pcff1379462)" style="fill: none; stroke-dasharray: 1.85,0.8; stroke-dashoffset: 0; stroke: #b0b0b0; stroke-opacity: 0.5; stroke-width: 0.5"/>
     </g>
     <g id="line2d_10">
      <g>
       <use xlink:href="#mb3e956b51f" x="377.089421" y="320.4" style="stroke: #000000; stroke-width: 0.5"/>
      </g>
     </g>
     <g id="text_5">
      <!-- $\mathdefault{25}$ -->
      <g transform="translate(369.773183 334.277725) scale(0.15 -0.15)">
       <use xlink:href="#CMR17-32" transform="scale(0.996264)"/>
       <use xlink:href="#CMR17-35" transform="translate(45.690477 0) scale(0.996264)"/>
      </g>
     </g>
    </g>
    <g id="xtick_6">
     <g id="line2d_11">
      <path d="M 440.954696 320.4 
L 440.954696 43.2 
" clip-path="url(#pcff1379462)" style="fill: none; stroke-dasharray: 1.85,0.8; stroke-dashoffset: 0; stroke: #b0b0b0; stroke-opacity: 0.5; stroke-width: 0.5"/>
     </g>
     <g id="line2d_12">
      <g>
       <use xlink:href="#mb3e956b51f" x="440.954696" y="320.4" style="stroke: #000000; stroke-width: 0.5"/>
      </g>
     </g>
     <g id="text_6">
      <!-- $\mathdefault{30}$ -->
      <g transform="translate(433.638458 334.277725) scale(0.15 -0.15)">
       <defs>
        <path id="CMR17-33" d="M 1414 2157 
C 1984 2157 2234 1662 2234 1090 
C 2234 320 1824 25 1453 25 
C 1114 25 563 194 390 693 
C 422 680 454 680 486 680 
C 640 680 755 782 755 948 
C 755 1133 614 1216 486 1216 
C 378 1216 211 1165 211 926 
C 211 335 787 -128 1466 -128 
C 2176 -128 2720 430 2720 1085 
C 2720 1707 2208 2157 1600 2227 
C 2086 2328 2554 2756 2554 3329 
C 2554 3820 2048 4179 1472 4179 
C 890 4179 378 3829 378 3329 
C 378 3110 544 3072 627 3072 
C 762 3072 877 3155 877 3321 
C 877 3486 762 3569 627 3569 
C 602 3569 570 3569 544 3557 
C 730 3959 1235 4032 1459 4032 
C 1683 4032 2106 3925 2106 3320 
C 2106 3143 2080 2828 1862 2550 
C 1670 2304 1453 2304 1242 2284 
C 1210 2284 1062 2269 1037 2269 
C 992 2263 966 2257 966 2208 
C 966 2163 973 2157 1101 2157 
L 1414 2157 
z
" transform="scale(0.015625)"/>
       </defs>
       <use xlink:href="#CMR17-33" transform="scale(0.996264)"/>
       <use xlink:href="#CMR17-30" transform="translate(45.690477 0) scale(0.996264)"/>
      </g>
     </g>
    </g>
    <g id="text_7">
     <!-- Number of outings -->
     <g transform="translate(198.512682 351.561194) scale(0.15 -0.15)">
      <defs>
       <path id="CMR17-4e" d="M 1312 4250 
C 1267 4320 1261 4320 1139 4320 
L 326 4320 
L 326 4160 
L 448 4160 
C 704 4160 819 4129 838 4122 
L 838 610 
C 838 451 838 153 326 153 
L 326 -13 
C 474 0 742 0 902 0 
C 1062 0 1331 0 1478 -13 
L 1478 153 
C 966 153 966 451 966 610 
L 966 4033 
C 1011 3995 1011 3982 1056 3919 
L 3430 76 
C 3475 0 3494 0 3526 0 
C 3590 0 3590 19 3590 139 
L 3590 3705 
C 3590 3863 3590 4160 4102 4160 
L 4102 4326 
C 3955 4320 3686 4320 3526 4320 
C 3366 4320 3098 4320 2950 4326 
L 2950 4160 
C 3462 4160 3462 3862 3462 3703 
L 3462 763 
L 1312 4250 
z
" transform="scale(0.015625)"/>
       <path id="CMR17-75" d="M 1882 2693 
L 1882 2528 
C 2259 2528 2317 2489 2317 2186 
L 2317 1032 
C 2317 500 2029 38 1555 38 
C 1030 38 986 348 986 678 
L 986 2763 
L 211 2693 
L 211 2528 
C 467 2528 640 2528 646 2274 
L 646 1058 
C 646 633 646 361 813 183 
C 896 101 1056 -64 1517 -64 
C 2061 -64 2272 377 2323 506 
L 2330 506 
L 2330 -63 
L 3091 -63 
L 3091 128 
C 2714 128 2656 166 2656 473 
L 2656 2763 
L 1882 2693 
z
" transform="scale(0.015625)"/>
       <path id="CMR17-6d" d="M 4326 1933 
C 4326 2252 4269 2790 3507 2790 
C 3072 2790 2771 2496 2656 2151 
L 2650 2151 
C 2573 2676 2195 2790 1837 2790 
C 1331 2790 1069 2400 973 2144 
L 966 2144 
L 966 2790 
L 211 2720 
L 211 2554 
C 589 2554 646 2515 646 2208 
L 646 428 
C 646 184 621 153 211 153 
L 211 -13 
C 365 0 646 0 813 0 
C 979 0 1267 0 1421 -13 
L 1421 153 
C 1011 153 986 178 986 428 
L 986 1658 
C 986 2247 1344 2688 1792 2688 
C 2266 2688 2317 2266 2317 1958 
L 2317 428 
C 2317 184 2291 153 1882 153 
L 1882 -13 
C 2035 0 2317 0 2483 0 
C 2650 0 2938 0 3091 -13 
L 3091 153 
C 2682 153 2656 178 2656 428 
L 2656 1658 
C 2656 2247 3014 2688 3462 2688 
C 3936 2688 3987 2266 3987 1958 
L 3987 428 
C 3987 184 3962 153 3552 153 
L 3552 -13 
C 3706 0 3987 0 4154 0 
C 4320 0 4608 0 4762 -13 
L 4762 153 
C 4352 153 4326 178 4326 428 
L 4326 1933 
z
" transform="scale(0.015625)"/>
       <path id="CMR17-62" d="M 960 4396 
L 198 4326 
L 198 4160 
C 576 4160 634 4122 634 3817 
L 634 -13 
L 749 -13 
L 934 441 
C 1120 141 1395 -64 1766 -64 
C 2406 -64 3053 500 3053 1370 
C 3053 2188 2477 2790 1830 2790 
C 1434 2790 1152 2579 960 2330 
L 960 4396 
z
M 973 2004 
C 973 2118 973 2138 1062 2272 
C 1312 2657 1670 2688 1792 2688 
C 1984 2688 2643 2585 2643 1376 
C 2643 108 1888 38 1734 38 
C 1536 38 1248 114 1043 486 
C 973 608 973 621 973 735 
L 973 2004 
z
" transform="scale(0.015625)"/>
       <path id="CMR17-65" d="M 2438 1472 
C 2464 1498 2464 1511 2464 1576 
C 2464 2238 2118 2816 1389 2816 
C 710 2816 173 2169 173 1383 
C 173 551 781 -64 1459 -64 
C 2176 -64 2458 607 2458 740 
C 2458 784 2419 784 2406 784 
C 2362 784 2355 771 2330 696 
C 2189 265 1837 51 1504 51 
C 1229 51 954 203 781 480 
C 582 803 582 1176 582 1472 
L 2438 1472 
z
M 589 1568 
C 634 2505 1126 2714 1382 2714 
C 1818 2714 2112 2297 2118 1568 
L 589 1568 
z
" transform="scale(0.015625)"/>
       <path id="CMR17-72" d="M 960 1497 
C 960 2112 1222 2688 1702 2688 
C 1747 2688 1792 2682 1837 2662 
C 1837 2662 1696 2617 1696 2452 
C 1696 2298 1818 2234 1914 2234 
C 1990 2234 2131 2279 2131 2458 
C 2131 2663 1926 2790 1709 2790 
C 1222 2790 1011 2317 947 2093 
L 941 2093 
L 941 2790 
L 198 2720 
L 198 2554 
C 576 2554 634 2515 634 2208 
L 634 428 
C 634 184 608 153 198 153 
L 198 -13 
C 352 0 646 0 813 0 
C 998 0 1325 0 1498 -13 
L 1498 153 
C 1037 153 960 153 960 440 
L 960 1497 
z
" transform="scale(0.015625)"/>
       <path id="CMR17-6f" d="M 2758 1356 
C 2758 2176 2163 2816 1466 2816 
C 768 2816 173 2176 173 1356 
C 173 551 768 -64 1466 -64 
C 2163 -64 2758 551 2758 1356 
z
M 1466 51 
C 1165 51 909 230 762 480 
C 602 767 582 1126 582 1408 
C 582 1677 595 2010 762 2298 
C 890 2509 1139 2714 1466 2714 
C 1754 2714 1997 2554 2150 2330 
C 2349 2029 2349 1607 2349 1408 
C 2349 1158 2336 775 2163 467 
C 1984 173 1709 51 1466 51 
z
" transform="scale(0.015625)"/>
       <path id="CMR17-66" d="M 979 2560 
L 1709 2560 
L 1709 2725 
L 966 2725 
L 966 3494 
C 966 4022 1235 4352 1510 4352 
C 1594 4352 1690 4327 1754 4282 
C 1702 4269 1568 4225 1568 4067 
C 1568 3901 1696 3850 1786 3850 
C 1875 3850 2003 3901 2003 4067 
C 2003 4308 1773 4454 1517 4454 
C 1152 4454 653 4156 653 3481 
L 653 2725 
L 141 2725 
L 141 2560 
L 653 2560 
L 653 427 
C 653 184 627 153 218 153 
L 218 -13 
C 371 0 666 0 832 0 
C 1018 0 1344 0 1517 -13 
L 1517 153 
C 1056 153 979 153 979 439 
L 979 2560 
z
" transform="scale(0.015625)"/>
       <path id="CMR17-74" d="M 966 2560 
L 1862 2560 
L 1862 2725 
L 966 2725 
L 966 3904 
L 851 3904 
C 838 3245 614 2668 70 2668 
L 70 2560 
L 627 2560 
L 627 771 
C 627 650 627 -64 1370 -64 
C 1747 -64 1965 306 1965 777 
L 1965 1140 
L 1850 1140 
L 1850 783 
C 1850 344 1677 51 1408 51 
C 1222 51 966 178 966 758 
L 966 2560 
z
" transform="scale(0.015625)"/>
       <path id="CMR17-69" d="M 992 3909 
C 992 4049 877 4170 730 4170 
C 589 4170 467 4056 467 3909 
C 467 3769 582 3648 730 3648 
C 870 3648 992 3763 992 3909 
z
M 243 2706 
L 243 2541 
C 602 2541 653 2502 653 2197 
L 653 427 
C 653 184 627 153 218 153 
L 218 -13 
C 371 0 646 0 806 0 
C 960 0 1222 0 1370 -13 
L 1370 153 
C 992 153 979 191 979 420 
L 979 2776 
L 243 2706 
z
" transform="scale(0.015625)"/>
       <path id="CMR17-6e" d="M 2656 1933 
C 2656 2259 2592 2790 1837 2790 
C 1331 2790 1069 2400 973 2144 
L 966 2144 
L 966 2790 
L 211 2720 
L 211 2554 
C 589 2554 646 2515 646 2208 
L 646 428 
C 646 184 621 153 211 153 
L 211 -13 
C 365 0 646 0 813 0 
C 979 0 1267 0 1421 -13 
L 1421 153 
C 1011 153 986 178 986 428 
L 986 1658 
C 986 2247 1344 2688 1792 2688 
C 2266 2688 2317 2266 2317 1958 
L 2317 428 
C 2317 184 2291 153 1882 153 
L 1882 -13 
C 2035 0 2317 0 2483 0 
C 2650 0 2938 0 3091 -13 
L 3091 153 
C 2682 153 2656 178 2656 428 
L 2656 1933 
z
" transform="scale(0.015625)"/>
       <path id="CMR17-67" d="M 710 1164 
C 832 1068 1043 960 1299 960 
C 1805 960 2240 1357 2240 1888 
C 2240 2054 2189 2310 1997 2509 
C 2176 2692 2438 2752 2586 2752 
C 2611 2752 2650 2752 2682 2734 
C 2656 2728 2598 2703 2598 2605 
C 2598 2527 2656 2471 2739 2471 
C 2835 2471 2886 2533 2886 2614 
C 2886 2731 2790 2854 2586 2854 
C 2330 2854 2106 2738 1926 2580 
C 1734 2753 1504 2816 1299 2816 
C 794 2816 358 2419 358 1888 
C 358 1522 570 1292 634 1228 
C 442 1004 442 743 442 711 
C 442 545 506 302 723 168 
C 390 85 128 -169 128 -486 
C 128 -943 736 -1280 1466 -1280 
C 2170 -1280 2803 -956 2803 -479 
C 2803 384 1856 384 1363 384 
C 1216 384 954 384 922 391 
C 723 423 589 602 589 826 
C 589 883 589 1024 710 1164 
z
M 1299 1068 
C 736 1068 736 1760 736 1889 
C 736 2016 736 2708 1299 2708 
C 1862 2708 1862 2016 1862 1889 
C 1862 1760 1862 1068 1299 1068 
z
M 1466 -1171 
C 826 -1171 384 -835 384 -486 
C 384 -289 493 -105 634 -4 
C 794 104 858 104 1293 104 
C 1818 104 2547 104 2547 -486 
C 2547 -835 2106 -1171 1466 -1171 
z
" transform="scale(0.015625)"/>
       <path id="CMR17-73" d="M 1978 2697 
C 1978 2813 1971 2819 1933 2819 
C 1907 2819 1901 2813 1824 2717 
C 1805 2691 1747 2626 1728 2601 
C 1523 2819 1235 2819 1126 2819 
C 416 2819 160 2447 160 2076 
C 160 1498 813 1365 998 1325 
C 1402 1243 1542 1217 1677 1101 
C 1760 1025 1901 884 1901 654 
C 1901 384 1747 38 1158 38 
C 602 38 403 460 288 1021 
C 269 1110 269 1117 218 1117 
C 166 1117 160 1110 160 983 
L 160 63 
C 160 -51 166 -58 205 -58 
C 237 -58 243 -51 275 0 
C 314 57 410 211 448 276 
C 576 103 800 -64 1158 -64 
C 1792 -64 2131 283 2131 784 
C 2131 1112 1958 1285 1875 1362 
C 1683 1561 1459 1606 1190 1657 
C 838 1735 390 1825 390 2217 
C 390 2383 480 2737 1126 2737 
C 1811 2737 1850 2094 1862 1888 
C 1869 1856 1901 1849 1920 1849 
C 1978 1849 1978 1869 1978 1978 
L 1978 2697 
z
" transform="scale(0.015625)"/>
      </defs>
      <use xlink:href="#CMR17-4e" transform="scale(0.996264)"/>
      <use xlink:href="#CMR17-75" transform="translate(69.07243 0) scale(0.996264)"/>
      <use xlink:href="#CMR17-6d" transform="translate(119.9678 0) scale(0.996264)"/>
      <use xlink:href="#CMR17-62" transform="translate(194.284936 0) scale(0.996264)"/>
      <use xlink:href="#CMR17-65" transform="translate(247.782744 0) scale(0.996264)"/>
      <use xlink:href="#CMR17-72" transform="translate(288.268404 0) scale(0.996264)"/>
      <use xlink:href="#CMR17-6f" transform="translate(353.625139 0) scale(0.996264)"/>
      <use xlink:href="#CMR17-66" transform="translate(399.315616 0) scale(0.996264)"/>
      <use xlink:href="#CMR17-6f" transform="translate(456.865095 0) scale(0.996264)"/>
      <use xlink:href="#CMR17-75" transform="translate(502.555572 0) scale(0.996264)"/>
      <use xlink:href="#CMR17-74" transform="translate(553.450941 0) scale(0.996264)"/>
      <use xlink:href="#CMR17-69" transform="translate(588.731709 0) scale(0.996264)"/>
      <use xlink:href="#CMR17-6e" transform="translate(613.602768 0) scale(0.996264)"/>
      <use xlink:href="#CMR17-67" transform="translate(664.498137 0) scale(0.996264)"/>
      <use xlink:href="#CMR17-73" transform="translate(710.188615 0) scale(0.996264)"/>
     </g>
    </g>
   </g>
   <g id="matplotlib.axis_2">
    <g id="ytick_1">
     <g id="line2d_13">
      <path d="M 63 320.4 
L 453.6 320.4 
" clip-path="url(#pcff1379462)" style="fill: none; stroke-dasharray: 1.85,0.8; stroke-dashoffset: 0; stroke: #b0b0b0; stroke-opacity: 0.5; stroke-width: 0.5"/>
     </g>
     <g id="line2d_14">
      <defs>
       <path id="m3c64b12562" d="M 0 0 
L 3 0 
" style="stroke: #000000; stroke-width: 0.5"/>
      </defs>
      <g>
       <use xlink:href="#m3c64b12562" x="63" y="320.4" style="stroke: #000000; stroke-width: 0.5"/>
      </g>
     </g>
     <g id="text_8">
      <!-- $\mathdefault{0}$ -->
      <g transform="translate(52.183762 325.588862) scale(0.15 -0.15)">
       <use xlink:href="#CMR17-30" transform="scale(0.996264)"/>
      </g>
     </g>
    </g>
    <g id="ytick_2">
     <g id="line2d_15">
      <path d="M 63 262.282994 
L 453.6 262.282994 
" clip-path="url(#pcff1379462)" style="fill: none; stroke-dasharray: 1.85,0.8; stroke-dashoffset: 0; stroke: #b0b0b0; stroke-opacity: 0.5; stroke-width: 0.5"/>
     </g>
     <g id="line2d_16">
      <g>
       <use xlink:href="#m3c64b12562" x="63" y="262.282994" style="stroke: #000000; stroke-width: 0.5"/>
      </g>
     </g>
     <g id="text_9">
      <!-- $\mathdefault{1}$ -->
      <g transform="translate(52.183762 267.471857) scale(0.15 -0.15)">
       <use xlink:href="#CMR17-31" transform="scale(0.996264)"/>
      </g>
     </g>
    </g>
    <g id="ytick_3">
     <g id="line2d_17">
      <path d="M 63 204.165989 
L 453.6 204.165989 
" clip-path="url(#pcff1379462)" style="fill: none; stroke-dasharray: 1.85,0.8; stroke-dashoffset: 0; stroke: #b0b0b0; stroke-opacity: 0.5; stroke-width: 0.5"/>
     </g>
     <g id="line2d_18">
      <g>
       <use xlink:href="#m3c64b12562" x="63" y="204.165989" style="stroke: #000000; stroke-width: 0.5"/>
      </g>
     </g>
     <g id="text_10">
      <!-- $\mathdefault{2}$ -->
      <g transform="translate(52.183762 209.354851) scale(0.15 -0.15)">
       <use xlink:href="#CMR17-32" transform="scale(0.996264)"/>
      </g>
     </g>
    </g>
    <g id="ytick_4">
     <g id="line2d_19">
      <path d="M 63 146.048983 
L 453.6 146.048983 
" clip-path="url(#pcff1379462)" style="fill: none; stroke-dasharray: 1.85,0.8; stroke-dashoffset: 0; stroke: #b0b0b0; stroke-opacity: 0.5; stroke-width: 0.5"/>
     </g>
     <g id="line2d_20">
      <g>
       <use xlink:href="#m3c64b12562" x="63" y="146.048983" style="stroke: #000000; stroke-width: 0.5"/>
      </g>
     </g>
     <g id="text_11">
      <!-- $\mathdefault{3}$ -->
      <g transform="translate(52.183762 151.237845) scale(0.15 -0.15)">
       <use xlink:href="#CMR17-33" transform="scale(0.996264)"/>
      </g>
     </g>
    </g>
    <g id="ytick_5">
     <g id="line2d_21">
      <path d="M 63 87.931977 
L 453.6 87.931977 
" clip-path="url(#pcff1379462)" style="fill: none; stroke-dasharray: 1.85,0.8; stroke-dashoffset: 0; stroke: #b0b0b0; stroke-opacity: 0.5; stroke-width: 0.5"/>
     </g>
     <g id="line2d_22">
      <g>
       <use xlink:href="#m3c64b12562" x="63" y="87.931977" style="stroke: #000000; stroke-width: 0.5"/>
      </g>
     </g>
     <g id="text_12">
      <!-- $\mathdefault{4}$ -->
      <g transform="translate(52.183762 93.12084) scale(0.15 -0.15)">
       <defs>
        <path id="CMR17-34" d="M 2150 4122 
C 2150 4256 2144 4256 2029 4256 
L 128 1254 
L 128 1088 
L 1779 1088 
L 1779 457 
C 1779 224 1766 160 1318 160 
L 1197 160 
L 1197 0 
C 1402 0 1747 0 1965 0 
C 2182 0 2528 0 2733 0 
L 2733 160 
L 2611 160 
C 2163 160 2150 224 2150 457 
L 2150 1088 
L 2803 1088 
L 2803 1254 
L 2150 1254 
L 2150 4122 
z
M 1798 3703 
L 1798 1254 
L 256 1254 
L 1798 3703 
z
" transform="scale(0.015625)"/>
       </defs>
       <use xlink:href="#CMR17-34" transform="scale(0.996264)"/>
      </g>
     </g>
    </g>
    <g id="text_13">
     <!-- Number of combinations per second -->
     <g transform="translate(45.278017 296.906194) rotate(-90) scale(0.15 -0.15)">
      <defs>
       <path id="CMR17-63" d="M 2234 2240 
C 2112 2240 1933 2240 1933 2017 
C 1933 1838 2080 1787 2163 1787 
C 2208 1787 2394 1807 2394 2024 
C 2394 2467 1958 2803 1466 2803 
C 787 2803 211 2178 211 1363 
C 211 516 813 -64 1466 -64 
C 2259 -64 2458 677 2458 748 
C 2458 774 2451 793 2406 793 
C 2362 793 2355 787 2330 703 
C 2163 180 1798 51 1523 51 
C 1114 51 621 427 621 1369 
C 621 2338 1094 2688 1472 2688 
C 1722 2688 2093 2573 2234 2240 
z
" transform="scale(0.015625)"/>
       <path id="CMR17-61" d="M 2304 1653 
C 2304 2072 2304 2294 2035 2543 
C 1798 2752 1523 2816 1306 2816 
C 800 2816 435 2407 435 1971 
C 435 1728 627 1728 666 1728 
C 749 1728 896 1778 896 1954 
C 896 2112 774 2181 666 2181 
C 640 2181 608 2174 589 2168 
C 723 2592 1069 2714 1293 2714 
C 1613 2714 1965 2429 1965 1885 
L 1965 1600 
C 1587 1600 1133 1549 774 1357 
C 371 1133 256 813 256 570 
C 256 77 832 -64 1171 -64 
C 1523 -64 1850 139 1990 511 
C 2003 233 2182 -18 2464 -18 
C 2598 -18 2938 70 2938 567 
L 2938 920 
L 2822 920 
L 2822 562 
C 2822 178 2650 128 2566 128 
C 2304 128 2304 458 2304 738 
L 2304 1653 
z
M 1965 870 
C 1965 317 1568 38 1216 38 
C 896 38 646 275 646 570 
C 646 761 730 1100 1101 1305 
C 1408 1478 1760 1504 1965 1504 
L 1965 870 
z
" transform="scale(0.015625)"/>
       <path id="CMR17-70" d="M 1408 -1063 
C 998 -1063 973 -1037 973 -789 
L 973 402 
C 1158 134 1427 -38 1766 -38 
C 2406 -38 3053 523 3053 1388 
C 3053 2191 2496 2802 1837 2802 
C 1453 2802 1139 2592 960 2338 
L 960 2802 
L 198 2732 
L 198 2567 
C 576 2567 634 2528 634 2223 
L 634 -789 
C 634 -1031 608 -1063 198 -1063 
L 198 -1228 
C 352 -1216 634 -1216 800 -1216 
C 966 -1216 1254 -1216 1408 -1228 
L 1408 -1063 
z
M 973 2012 
C 973 2102 973 2235 1222 2471 
C 1254 2497 1472 2688 1792 2688 
C 2259 2688 2643 2108 2643 1382 
C 2643 656 2234 64 1728 64 
C 1498 64 1248 172 1056 472 
C 973 612 973 650 973 752 
L 973 2012 
z
" transform="scale(0.015625)"/>
       <path id="CMR17-64" d="M 1869 4326 
L 1869 4160 
C 2246 4160 2304 4122 2304 3820 
L 2304 2345 
C 2278 2377 2016 2790 1498 2790 
C 845 2790 211 2208 211 1364 
C 211 525 806 -64 1434 -64 
C 1978 -64 2259 337 2291 380 
L 2291 -63 
L 3066 -63 
L 3066 128 
C 2688 128 2630 166 2630 473 
L 2630 4396 
L 1869 4326 
z
M 2291 755 
C 2291 563 2176 390 2029 262 
C 1811 70 1594 38 1472 38 
C 1286 38 621 134 621 1356 
C 621 2612 1363 2688 1530 2688 
C 1824 2688 2061 2522 2208 2291 
C 2291 2157 2291 2138 2291 2023 
L 2291 755 
z
" transform="scale(0.015625)"/>
      </defs>
      <use xlink:href="#CMR17-4e" transform="scale(0.996264)"/>
      <use xlink:href="#CMR17-75" transform="translate(69.07243 0) scale(0.996264)"/>
      <use xlink:href="#CMR17-6d" transform="translate(119.9678 0) scale(0.996264)"/>
      <use xlink:href="#CMR17-62" transform="translate(194.284936 0) scale(0.996264)"/>
      <use xlink:href="#CMR17-65" transform="translate(247.782744 0) scale(0.996264)"/>
      <use xlink:href="#CMR17-72" transform="translate(288.268404 0) scale(0.996264)"/>
      <use xlink:href="#CMR17-6f" transform="translate(353.625139 0) scale(0.996264)"/>
      <use xlink:href="#CMR17-66" transform="translate(399.315616 0) scale(0.996264)"/>
      <use xlink:href="#CMR17-63" transform="translate(456.865095 0) scale(0.996264)"/>
      <use xlink:href="#CMR17-6f" transform="translate(497.350755 0) scale(0.996264)"/>
      <use xlink:href="#CMR17-6d" transform="translate(543.041232 0) scale(0.996264)"/>
      <use xlink:href="#CMR17-62" transform="translate(617.358368 0) scale(0.996264)"/>
      <use xlink:href="#CMR17-69" transform="translate(668.253738 0) scale(0.996264)"/>
      <use xlink:href="#CMR17-6e" transform="translate(693.124796 0) scale(0.996264)"/>
      <use xlink:href="#CMR17-61" transform="translate(744.020166 0) scale(0.996264)"/>
      <use xlink:href="#CMR17-74" transform="translate(789.710643 0) scale(0.996264)"/>
      <use xlink:href="#CMR17-69" transform="translate(824.991411 0) scale(0.996264)"/>
      <use xlink:href="#CMR17-6f" transform="translate(849.862469 0) scale(0.996264)"/>
      <use xlink:href="#CMR17-6e" transform="translate(895.552947 0) scale(0.996264)"/>
      <use xlink:href="#CMR17-73" transform="translate(946.448316 0) scale(0.996264)"/>
      <use xlink:href="#CMR17-70" transform="translate(1012.32562 0) scale(0.996264)"/>
      <use xlink:href="#CMR17-65" transform="translate(1065.823429 0) scale(0.996264)"/>
      <use xlink:href="#CMR17-72" transform="translate(1106.309089 0) scale(0.996264)"/>
      <use xlink:href="#CMR17-73" transform="translate(1171.665823 0) scale(0.996264)"/>
      <use xlink:href="#CMR17-65" transform="translate(1207.467161 0) scale(0.996264)"/>
      <use xlink:href="#CMR17-63" transform="translate(1247.952822 0) scale(0.996264)"/>
      <use xlink:href="#CMR17-6f" transform="translate(1288.438482 0) scale(0.996264)"/>
      <use xlink:href="#CMR17-6e" transform="translate(1334.128959 0) scale(0.996264)"/>
      <use xlink:href="#CMR17-64" transform="translate(1385.024329 0) scale(0.996264)"/>
     </g>
    </g>
    <g id="text_14">
     <!-- $\times\mathdefault{10^{9}}\mathdefault{}$ -->
     <g transform="translate(63 40.2) scale(0.15 -0.15)">
      <defs>
       <path id="CMSY10-2" d="M 2490 1785 
L 1210 3059 
C 1133 3136 1120 3148 1069 3148 
C 1005 3148 941 3091 941 3020 
C 941 2976 954 2963 1024 2892 
L 2304 1606 
L 1024 320 
C 954 249 941 236 941 192 
C 941 121 1005 64 1069 64 
C 1120 64 1133 76 1210 153 
L 2483 1427 
L 3808 102 
C 3821 96 3866 64 3904 64 
C 3981 64 4032 121 4032 192 
C 4032 204 4032 230 4013 262 
C 4006 275 2989 1280 2669 1606 
L 3840 2777 
C 3872 2816 3968 2899 4000 2937 
C 4006 2950 4032 2976 4032 3020 
C 4032 3091 3981 3148 3904 3148 
C 3853 3148 3827 3123 3757 3052 
L 2490 1785 
z
" transform="scale(0.015625)"/>
       <path id="CMR17-39" d="M 2253 1864 
C 2253 464 1670 31 1190 31 
C 1043 31 685 31 538 294 
C 704 268 826 357 826 518 
C 826 692 685 749 595 749 
C 538 749 365 723 365 506 
C 365 71 742 -128 1203 -128 
C 1939 -128 2688 674 2688 2073 
C 2688 3817 1971 4179 1485 4179 
C 851 4179 243 3628 243 2778 
C 243 1991 762 1408 1414 1408 
C 1952 1408 2189 1903 2253 2112 
L 2253 1864 
z
M 1427 1510 
C 1254 1510 1011 1542 813 1922 
C 678 2169 678 2461 678 2771 
C 678 3146 678 3405 858 3684 
C 947 3817 1114 4032 1485 4032 
C 2240 4032 2240 2885 2240 2632 
C 2240 2182 2035 1510 1427 1510 
z
" transform="scale(0.015625)"/>
      </defs>
      <use xlink:href="#CMSY10-2" transform="scale(0.996264)"/>
      <use xlink:href="#CMR17-31" transform="translate(77.487468 0) scale(0.996264)"/>
      <use xlink:href="#CMR17-30" transform="translate(123.177945 0) scale(0.996264)"/>
      <use xlink:href="#CMR17-39" transform="translate(168.868422 36.153639) scale(0.697382)"/>
     </g>
    </g>
   </g>
   <g id="patch_31">
    <path d="M 63 320.4 
L 63 43.2 
" style="fill: none; stroke: #000000; stroke-width: 0.8; stroke-linejoin: miter; stroke-linecap: square"/>
   </g>
   <g id="patch_32">
    <path d="M 453.6 320.4 
L 453.6 43.2 
" style="fill: none; stroke: #000000; stroke-width: 0.8; stroke-linejoin: miter; stroke-linecap: square"/>
   </g>
   <g id="patch_33">
    <path d="M 63 320.4 
L 453.6 320.4 
" style="fill: none; stroke: #000000; stroke-width: 0.8; stroke-linejoin: miter; stroke-linecap: square"/>
   </g>
   <g id="patch_34">
    <path d="M 63 43.2 
L 453.6 43.2 
" style="fill: none; stroke: #000000; stroke-width: 0.8; stroke-linejoin: miter; stroke-linecap: square"/>
   </g>
   <g id="legend_1">
    <g id="patch_35">
     <path d="M 187.837281 86.249192 
L 445.2 86.249192 
Q 447.6 86.249192 447.6 83.849192 
L 447.6 51.6 
Q 447.6 49.2 445.2 49.2 
L 187.837281 49.2 
Q 185.437281 49.2 185.437281 51.6 
L 185.437281 83.849192 
Q 185.437281 86.249192 187.837281 86.249192 
z
" style="fill: #ffffff; opacity: 0.8; stroke: #cccccc; stroke-linejoin: miter"/>
    </g>
    <g id="patch_36">
     <path d="M 190.237281 62.4 
L 214.237281 62.4 
L 214.237281 54 
L 190.237281 54 
z
" style="fill: #1f77b4; opacity: 0.8"/>
    </g>
    <g id="text_15">
     <!-- Weekly combinations evaluated per second -->
     <g transform="translate(223.837281 62.4) scale(0.12 -0.12)">
      <defs>
       <path id="CMR17-57" d="M 5523 3764 
C 5581 3936 5677 4160 6048 4160 
L 6048 4326 
C 5939 4326 5715 4326 5600 4326 
C 5440 4326 5158 4326 5005 4332 
L 5005 4160 
C 5293 4160 5414 4000 5414 3847 
C 5414 3802 5408 3777 5382 3707 
L 4390 555 
L 3347 3873 
C 3328 3937 3322 3963 3322 3988 
C 3322 4160 3603 4160 3725 4160 
L 3725 4326 
C 3539 4326 3219 4326 3021 4326 
C 2861 4326 2573 4326 2426 4332 
L 2426 4160 
C 2720 4160 2797 4141 2861 4027 
C 2886 3969 2989 3638 2989 3619 
C 2989 3593 2976 3555 2970 3536 
L 2029 561 
L 986 3867 
C 954 3957 954 3969 954 3982 
C 954 4160 1235 4160 1363 4160 
L 1363 4326 
C 1178 4326 858 4326 659 4326 
C 493 4326 211 4326 58 4332 
L 58 4160 
C 442 4160 467 4122 531 3918 
L 1779 -20 
C 1811 -115 1811 -128 1869 -128 
C 1920 -128 1939 -115 1965 -26 
L 3053 3433 
L 4141 -26 
C 4166 -115 4186 -128 4237 -128 
C 4294 -128 4294 -115 4326 -20 
L 5523 3764 
z
" transform="scale(0.015625)"/>
       <path id="CMR17-6b" d="M 1670 1673 
C 1664 1686 1632 1724 1632 1743 
C 1632 1756 2086 2171 2144 2222 
C 2509 2528 2739 2560 2906 2560 
L 2906 2733 
C 2867 2733 2854 2733 2848 2720 
L 2534 2720 
C 2355 2720 2080 2720 1907 2733 
L 1907 2566 
C 1997 2559 2061 2508 2061 2419 
C 2061 2291 1933 2170 1926 2170 
L 960 1289 
L 960 4396 
L 198 4326 
L 198 4160 
C 576 4160 634 4122 634 3817 
L 634 426 
C 634 184 608 153 198 153 
L 198 -13 
C 352 0 634 0 794 0 
C 954 0 1235 0 1389 -13 
L 1389 153 
C 979 153 954 178 954 428 
L 954 1130 
L 1395 1532 
L 2042 574 
C 2118 459 2182 369 2182 286 
C 2182 172 2067 153 1990 153 
L 1990 -13 
C 2144 0 2419 0 2579 0 
C 2694 0 2931 0 3040 0 
L 3040 153 
C 2739 153 2669 210 2477 491 
L 1670 1673 
z
" transform="scale(0.015625)"/>
       <path id="CMR17-6c" d="M 979 4396 
L 218 4326 
L 218 4160 
C 595 4160 653 4122 653 3817 
L 653 426 
C 653 184 627 153 218 153 
L 218 -13 
C 371 0 653 0 813 0 
C 979 0 1261 0 1414 -13 
L 1414 153 
C 1005 153 979 178 979 426 
L 979 4396 
z
" transform="scale(0.015625)"/>
       <path id="CMR17-79" d="M 2496 2197 
C 2656 2586 2944 2586 3034 2586 
L 3034 2752 
C 2912 2752 2752 2752 2630 2752 
C 2496 2752 2285 2752 2157 2758 
L 2157 2592 
C 2400 2573 2406 2394 2406 2343 
C 2406 2280 2394 2248 2362 2171 
L 1664 449 
L 902 2306 
C 870 2382 870 2426 870 2433 
C 870 2573 1018 2586 1171 2586 
L 1171 2758 
C 1018 2752 742 2752 582 2752 
C 410 2752 205 2752 64 2758 
L 64 2586 
C 410 2586 448 2554 531 2350 
L 1485 15 
C 1197 -738 1030 -1178 627 -1178 
C 557 -1178 397 -1159 282 -1044 
C 429 -1031 493 -942 493 -833 
C 493 -725 416 -629 288 -629 
C 147 -629 77 -725 77 -840 
C 77 -1095 339 -1280 627 -1280 
C 998 -1280 1229 -922 1357 -604 
L 2496 2197 
z
" transform="scale(0.015625)"/>
       <path id="CMR17-76" d="M 2502 2163 
C 2560 2304 2662 2560 3034 2560 
L 3034 2726 
C 2912 2726 2752 2726 2630 2726 
C 2496 2726 2285 2726 2157 2732 
L 2157 2566 
C 2317 2553 2406 2477 2406 2311 
C 2406 2253 2406 2240 2368 2151 
L 1664 377 
L 902 2286 
C 864 2369 864 2381 864 2407 
C 864 2560 1075 2560 1171 2560 
L 1171 2732 
C 1018 2726 736 2726 576 2726 
C 403 2726 205 2726 64 2732 
L 64 2560 
C 307 2560 442 2560 518 2362 
L 1446 44 
C 1485 -51 1491 -64 1549 -64 
C 1606 -64 1613 -51 1651 44 
L 2502 2163 
z
" transform="scale(0.015625)"/>
      </defs>
      <use xlink:href="#CMR17-57" transform="scale(0.996264)"/>
      <use xlink:href="#CMR17-65" transform="translate(87.289395 0) scale(0.996264)"/>
      <use xlink:href="#CMR17-65" transform="translate(127.775055 0) scale(0.996264)"/>
      <use xlink:href="#CMR17-6b" transform="translate(168.260715 0) scale(0.996264)"/>
      <use xlink:href="#CMR17-6c" transform="translate(216.553631 0) scale(0.996264)"/>
      <use xlink:href="#CMR17-79" transform="translate(241.42469 0) scale(0.996264)"/>
      <use xlink:href="#CMR17-63" transform="translate(319.793572 0) scale(0.996264)"/>
      <use xlink:href="#CMR17-6f" transform="translate(360.279232 0) scale(0.996264)"/>
      <use xlink:href="#CMR17-6d" transform="translate(405.96971 0) scale(0.996264)"/>
      <use xlink:href="#CMR17-62" transform="translate(480.286845 0) scale(0.996264)"/>
      <use xlink:href="#CMR17-69" transform="translate(531.182215 0) scale(0.996264)"/>
      <use xlink:href="#CMR17-6e" transform="translate(556.053274 0) scale(0.996264)"/>
      <use xlink:href="#CMR17-61" transform="translate(606.948644 0) scale(0.996264)"/>
      <use xlink:href="#CMR17-74" transform="translate(652.639121 0) scale(0.996264)"/>
      <use xlink:href="#CMR17-69" transform="translate(687.919888 0) scale(0.996264)"/>
      <use xlink:href="#CMR17-6f" transform="translate(712.790947 0) scale(0.996264)"/>
      <use xlink:href="#CMR17-6e" transform="translate(758.481424 0) scale(0.996264)"/>
      <use xlink:href="#CMR17-73" transform="translate(809.376794 0) scale(0.996264)"/>
      <use xlink:href="#CMR17-65" transform="translate(875.254098 0) scale(0.996264)"/>
      <use xlink:href="#CMR17-76" transform="translate(915.739758 0) scale(0.996264)"/>
      <use xlink:href="#CMR17-61" transform="translate(958.827857 0) scale(0.996264)"/>
      <use xlink:href="#CMR17-6c" transform="translate(1004.518335 0) scale(0.996264)"/>
      <use xlink:href="#CMR17-75" transform="translate(1029.389393 0) scale(0.996264)"/>
      <use xlink:href="#CMR17-61" transform="translate(1080.284763 0) scale(0.996264)"/>
      <use xlink:href="#CMR17-74" transform="translate(1125.97524 0) scale(0.996264)"/>
      <use xlink:href="#CMR17-65" transform="translate(1161.256008 0) scale(0.996264)"/>
      <use xlink:href="#CMR17-64" transform="translate(1201.741668 0) scale(0.996264)"/>
      <use xlink:href="#CMR17-70" transform="translate(1282.713004 0) scale(0.996264)"/>
      <use xlink:href="#CMR17-65" transform="translate(1336.210813 0) scale(0.996264)"/>
      <use xlink:href="#CMR17-72" transform="translate(1376.696473 0) scale(0.996264)"/>
      <use xlink:href="#CMR17-73" transform="translate(1442.053207 0) scale(0.996264)"/>
      <use xlink:href="#CMR17-65" transform="translate(1477.854545 0) scale(0.996264)"/>
      <use xlink:href="#CMR17-63" transform="translate(1518.340206 0) scale(0.996264)"/>
      <use xlink:href="#CMR17-6f" transform="translate(1558.825866 0) scale(0.996264)"/>
      <use xlink:href="#CMR17-6e" transform="translate(1604.516343 0) scale(0.996264)"/>
      <use xlink:href="#CMR17-64" transform="translate(1655.411713 0) scale(0.996264)"/>
     </g>
    </g>
    <g id="patch_37">
     <path d="M 190.237281 79.124596 
L 214.237281 79.124596 
L 214.237281 70.724596 
L 190.237281 70.724596 
z
" style="fill: #ff7f0e; opacity: 0.5"/>
    </g>
    <g id="text_16">
     <!-- Number of combinations per outing -->
     <g transform="translate(223.837281 79.124596) scale(0.12 -0.12)">
      <use xlink:href="#CMR17-4e" transform="scale(0.996264)"/>
      <use xlink:href="#CMR17-75" transform="translate(69.07243 0) scale(0.996264)"/>
      <use xlink:href="#CMR17-6d" transform="translate(119.9678 0) scale(0.996264)"/>
      <use xlink:href="#CMR17-62" transform="translate(194.284936 0) scale(0.996264)"/>
      <use xlink:href="#CMR17-65" transform="translate(247.782744 0) scale(0.996264)"/>
      <use xlink:href="#CMR17-72" transform="translate(288.268404 0) scale(0.996264)"/>
      <use xlink:href="#CMR17-6f" transform="translate(353.625139 0) scale(0.996264)"/>
      <use xlink:href="#CMR17-66" transform="translate(399.315616 0) scale(0.996264)"/>
      <use xlink:href="#CMR17-63" transform="translate(456.865095 0) scale(0.996264)"/>
      <use xlink:href="#CMR17-6f" transform="translate(497.350755 0) scale(0.996264)"/>
      <use xlink:href="#CMR17-6d" transform="translate(543.041232 0) scale(0.996264)"/>
      <use xlink:href="#CMR17-62" transform="translate(617.358368 0) scale(0.996264)"/>
      <use xlink:href="#CMR17-69" transform="translate(668.253738 0) scale(0.996264)"/>
      <use xlink:href="#CMR17-6e" transform="translate(693.124796 0) scale(0.996264)"/>
      <use xlink:href="#CMR17-61" transform="translate(744.020166 0) scale(0.996264)"/>
      <use xlink:href="#CMR17-74" transform="translate(789.710643 0) scale(0.996264)"/>
      <use xlink:href="#CMR17-69" transform="translate(824.991411 0) scale(0.996264)"/>
      <use xlink:href="#CMR17-6f" transform="translate(849.862469 0) scale(0.996264)"/>
      <use xlink:href="#CMR17-6e" transform="translate(895.552947 0) scale(0.996264)"/>
      <use xlink:href="#CMR17-73" transform="translate(946.448316 0) scale(0.996264)"/>
      <use xlink:href="#CMR17-70" transform="translate(1012.32562 0) scale(0.996264)"/>
      <use xlink:href="#CMR17-65" transform="translate(1065.823429 0) scale(0.996264)"/>
      <use xlink:href="#CMR17-72" transform="translate(1106.309089 0) scale(0.996264)"/>
      <use xlink:href="#CMR17-6f" transform="translate(1171.665823 0) scale(0.996264)"/>
      <use xlink:href="#CMR17-75" transform="translate(1217.356301 0) scale(0.996264)"/>
      <use xlink:href="#CMR17-74" transform="translate(1268.25167 0) scale(0.996264)"/>
      <use xlink:href="#CMR17-69" transform="translate(1303.532438 0) scale(0.996264)"/>
      <use xlink:href="#CMR17-6e" transform="translate(1328.403497 0) scale(0.996264)"/>
      <use xlink:href="#CMR17-67" transform="translate(1379.298866 0) scale(0.996264)"/>
     </g>
    </g>
   </g>
  </g>
  <g id="axes_2">
   <g id="patch_38">
    <path d="M 85.863769 75948.572923 
L 90.972992 75948.572923 
L 90.972992 55.8 
L 85.863769 55.8 
z
" clip-path="url(#pcff1379462)" style="fill: #ff7f0e; opacity: 0.5"/>
   </g>
   <g id="patch_39">
    <path d="M 98.636824 75948.572923 
L 103.746047 75948.572923 
L 103.746047 156.563981 
L 98.636824 156.563981 
z
" clip-path="url(#pcff1379462)" style="fill: #ff7f0e; opacity: 0.5"/>
   </g>
   <g id="patch_40">
    <path d="M 111.409876 75948.572923 
L 116.519099 75948.572923 
L 116.519099 195.5602 
L 111.409876 195.5602 
z
" clip-path="url(#pcff1379462)" style="fill: #ff7f0e; opacity: 0.5"/>
   </g>
   <g id="patch_41">
    <path d="M 124.182931 75948.572923 
L 129.292154 75948.572923 
L 129.292154 222.32641 
L 124.182931 222.32641 
z
" clip-path="url(#pcff1379462)" style="fill: #ff7f0e; opacity: 0.5"/>
   </g>
   <g id="patch_42">
    <path d="M 136.955985 75948.572923 
L 142.065209 75948.572923 
L 142.065209 241.629609 
L 136.955985 241.629609 
z
" clip-path="url(#pcff1379462)" style="fill: #ff7f0e; opacity: 0.5"/>
   </g>
   <g id="patch_43">
    <path d="M 149.72904 75948.572923 
L 154.838264 75948.572923 
L 154.838264 254.945279 
L 149.72904 254.945279 
z
" clip-path="url(#pcff1379462)" style="fill: #ff7f0e; opacity: 0.5"/>
   </g>
   <g id="patch_44">
    <path d="M 162.502095 75948.572923 
L 167.611325 75948.572923 
L 167.611325 262.273422 
L 162.502095 262.273422 
z
" clip-path="url(#pcff1379462)" style="fill: #ff7f0e; opacity: 0.5"/>
   </g>
   <g id="patch_45">
    <path d="M 175.27515 75948.572923 
L 180.38438 75948.572923 
L 180.38438 271.72104 
L 175.27515 271.72104 
z
" clip-path="url(#pcff1379462)" style="fill: #ff7f0e; opacity: 0.5"/>
   </g>
   <g id="patch_46">
    <path d="M 188.048205 75948.572923 
L 193.157435 75948.572923 
L 193.157435 277.708569 
L 188.048205 277.708569 
z
" clip-path="url(#pcff1379462)" style="fill: #ff7f0e; opacity: 0.5"/>
   </g>
   <g id="patch_47">
    <path d="M 200.82126 75948.572923 
L 205.93049 75948.572923 
L 205.93049 285.036711 
L 200.82126 285.036711 
z
" clip-path="url(#pcff1379462)" style="fill: #ff7f0e; opacity: 0.5"/>
   </g>
   <g id="patch_48">
    <path d="M 213.594315 75948.572923 
L 218.703545 75948.572923 
L 218.703545 294.484329 
L 213.594315 294.484329 
z
" clip-path="url(#pcff1379462)" style="fill: #ff7f0e; opacity: 0.5"/>
   </g>
   <g id="patch_49">
    <path d="M 226.36737 75948.572923 
L 231.476599 75948.572923 
L 231.476599 294.484329 
L 226.36737 294.484329 
z
" clip-path="url(#pcff1379462)" style="fill: #ff7f0e; opacity: 0.5"/>
   </g>
   <g id="patch_50">
    <path d="M 239.140425 75948.572923 
L 244.249654 75948.572923 
L 244.249654 294.484329 
L 239.140425 294.484329 
z
" clip-path="url(#pcff1379462)" style="fill: #ff7f0e; opacity: 0.5"/>
   </g>
   <g id="patch_51">
    <path d="M 251.91348 75948.572923 
L 257.022709 75948.572923 
L 257.022709 294.484329 
L 251.91348 294.484329 
z
" clip-path="url(#pcff1379462)" style="fill: #ff7f0e; opacity: 0.5"/>
   </g>
   <g id="patch_52">
    <path d="M 264.686523 75948.572923 
L 269.79574 75948.572923 
L 269.79574 294.484329 
L 264.686523 294.484329 
z
" clip-path="url(#pcff1379462)" style="fill: #ff7f0e; opacity: 0.5"/>
   </g>
   <g id="patch_53">
    <path d="M 277.459578 75948.572923 
L 282.568795 75948.572923 
L 282.568795 294.484329 
L 277.459578 294.484329 
z
" clip-path="url(#pcff1379462)" style="fill: #ff7f0e; opacity: 0.5"/>
   </g>
   <g id="patch_54">
    <path d="M 290.232633 75948.572923 
L 295.34185 75948.572923 
L 295.34185 294.484329 
L 290.232633 294.484329 
z
" clip-path="url(#pcff1379462)" style="fill: #ff7f0e; opacity: 0.5"/>
   </g>
   <g id="patch_55">
    <path d="M 303.005688 75948.572923 
L 308.114905 75948.572923 
L 308.114905 307.8 
L 303.005688 307.8 
z
" clip-path="url(#pcff1379462)" style="fill: #ff7f0e; opacity: 0.5"/>
   </g>
   <g id="patch_56">
    <path d="M 315.778743 75948.572923 
L 320.88796 75948.572923 
L 320.88796 307.8 
L 315.778743 307.8 
z
" clip-path="url(#pcff1379462)" style="fill: #ff7f0e; opacity: 0.5"/>
   </g>
   <g id="patch_57">
    <path d="M 328.551798 75948.572923 
L 333.661015 75948.572923 
L 333.661015 307.8 
L 328.551798 307.8 
z
" clip-path="url(#pcff1379462)" style="fill: #ff7f0e; opacity: 0.5"/>
   </g>
   <g id="patch_58">
    <path d="M 341.324853 75948.572923 
L 346.43407 75948.572923 
L 346.43407 307.8 
L 341.324853 307.8 
z
" clip-path="url(#pcff1379462)" style="fill: #ff7f0e; opacity: 0.5"/>
   </g>
   <g id="patch_59">
    <path d="M 354.097908 75948.572923 
L 359.207125 75948.572923 
L 359.207125 307.8 
L 354.097908 307.8 
z
" clip-path="url(#pcff1379462)" style="fill: #ff7f0e; opacity: 0.5"/>
   </g>
   <g id="patch_60">
    <path d="M 366.870963 75948.572923 
L 371.98018 75948.572923 
L 371.98018 307.8 
L 366.870963 307.8 
z
" clip-path="url(#pcff1379462)" style="fill: #ff7f0e; opacity: 0.5"/>
   </g>
   <g id="patch_61">
    <path d="M 379.644018 75948.572923 
L 384.753235 75948.572923 
L 384.753235 307.8 
L 379.644018 307.8 
z
" clip-path="url(#pcff1379462)" style="fill: #ff7f0e; opacity: 0.5"/>
   </g>
   <g id="patch_62">
    <path d="M 392.417073 75948.572923 
L 397.52629 75948.572923 
L 397.52629 307.8 
L 392.417073 307.8 
z
" clip-path="url(#pcff1379462)" style="fill: #ff7f0e; opacity: 0.5"/>
   </g>
   <g id="patch_63">
    <path d="M 405.190128 75948.572923 
L 410.299345 75948.572923 
L 410.299345 307.8 
L 405.190128 307.8 
z
" clip-path="url(#pcff1379462)" style="fill: #ff7f0e; opacity: 0.5"/>
   </g>
   <g id="patch_64">
    <path d="M 417.963182 75948.572923 
L 423.0724 75948.572923 
L 423.0724 307.8 
L 417.963182 307.8 
z
" clip-path="url(#pcff1379462)" style="fill: #ff7f0e; opacity: 0.5"/>
   </g>
   <g id="patch_65">
    <path d="M 430.736237 75948.572923 
L 435.845455 75948.572923 
L 435.845455 307.8 
L 430.736237 307.8 
z
" clip-path="url(#pcff1379462)" style="fill: #ff7f0e; opacity: 0.5"/>
   </g>
   <g id="matplotlib.axis_3">
    <g id="ytick_6">
     <g id="line2d_23">
      <defs>
       <path id="m3fa4e14fb5" d="M 0 0 
L -3 0 
" style="stroke: #000000; stroke-width: 0.5"/>
      </defs>
      <g>
       <use xlink:href="#m3fa4e14fb5" x="453.6" y="254.945279" style="stroke: #000000; stroke-width: 0.5"/>
      </g>
     </g>
     <g id="text_17">
      <!-- $\mathdefault{10^{1}}$ -->
      <g transform="translate(457.1 260.134142) scale(0.15 -0.15)">
       <use xlink:href="#CMR17-31" transform="scale(0.996264)"/>
       <use xlink:href="#CMR17-30" transform="translate(45.690477 0) scale(0.996264)"/>
       <use xlink:href="#CMR17-31" transform="translate(91.380954 36.153639) scale(0.697382)"/>
      </g>
     </g>
    </g>
    <g id="ytick_7">
     <g id="line2d_24">
      <g>
       <use xlink:href="#m3fa4e14fb5" x="453.6" y="179.32727" style="stroke: #000000; stroke-width: 0.5"/>
      </g>
     </g>
     <g id="text_18">
      <!-- $\mathdefault{10^{2}}$ -->
      <g transform="translate(457.1 184.516132) scale(0.15 -0.15)">
       <use xlink:href="#CMR17-31" transform="scale(0.996264)"/>
       <use xlink:href="#CMR17-30" transform="translate(45.690477 0) scale(0.996264)"/>
       <use xlink:href="#CMR17-32" transform="translate(91.380954 36.153639) scale(0.697382)"/>
      </g>
     </g>
    </g>
    <g id="ytick_8">
     <g id="line2d_25">
      <g>
       <use xlink:href="#m3fa4e14fb5" x="453.6" y="103.70926" style="stroke: #000000; stroke-width: 0.5"/>
      </g>
     </g>
     <g id="text_19">
      <!-- $\mathdefault{10^{3}}$ -->
      <g transform="translate(457.1 108.898123) scale(0.15 -0.15)">
       <use xlink:href="#CMR17-31" transform="scale(0.996264)"/>
       <use xlink:href="#CMR17-30" transform="translate(45.690477 0) scale(0.996264)"/>
       <use xlink:href="#CMR17-33" transform="translate(91.380954 36.153639) scale(0.697382)"/>
      </g>
     </g>
    </g>
    <g id="ytick_9">
     <g id="line2d_26">
      <defs>
       <path id="m8311d47945" d="M 0 0 
L -2 0 
" style="stroke: #000000; stroke-width: 0.5"/>
      </defs>
      <g>
       <use xlink:href="#m8311d47945" x="453.6" y="307.8" style="stroke: #000000; stroke-width: 0.5"/>
      </g>
     </g>
    </g>
    <g id="ytick_10">
     <g id="line2d_27">
      <g>
       <use xlink:href="#m8311d47945" x="453.6" y="294.484329" style="stroke: #000000; stroke-width: 0.5"/>
      </g>
     </g>
    </g>
    <g id="ytick_11">
     <g id="line2d_28">
      <g>
       <use xlink:href="#m8311d47945" x="453.6" y="285.036711" style="stroke: #000000; stroke-width: 0.5"/>
      </g>
     </g>
    </g>
    <g id="ytick_12">
     <g id="line2d_29">
      <g>
       <use xlink:href="#m8311d47945" x="453.6" y="277.708569" style="stroke: #000000; stroke-width: 0.5"/>
      </g>
     </g>
    </g>
    <g id="ytick_13">
     <g id="line2d_30">
      <g>
       <use xlink:href="#m8311d47945" x="453.6" y="271.72104" style="stroke: #000000; stroke-width: 0.5"/>
      </g>
     </g>
    </g>
    <g id="ytick_14">
     <g id="line2d_31">
      <g>
       <use xlink:href="#m8311d47945" x="453.6" y="266.658657" style="stroke: #000000; stroke-width: 0.5"/>
      </g>
     </g>
    </g>
    <g id="ytick_15">
     <g id="line2d_32">
      <g>
       <use xlink:href="#m8311d47945" x="453.6" y="262.273422" style="stroke: #000000; stroke-width: 0.5"/>
      </g>
     </g>
    </g>
    <g id="ytick_16">
     <g id="line2d_33">
      <g>
       <use xlink:href="#m8311d47945" x="453.6" y="258.40537" style="stroke: #000000; stroke-width: 0.5"/>
      </g>
     </g>
    </g>
    <g id="ytick_17">
     <g id="line2d_34">
      <g>
       <use xlink:href="#m8311d47945" x="453.6" y="232.18199" style="stroke: #000000; stroke-width: 0.5"/>
      </g>
     </g>
    </g>
    <g id="ytick_18">
     <g id="line2d_35">
      <g>
       <use xlink:href="#m8311d47945" x="453.6" y="218.86632" style="stroke: #000000; stroke-width: 0.5"/>
      </g>
     </g>
    </g>
    <g id="ytick_19">
     <g id="line2d_36">
      <g>
       <use xlink:href="#m8311d47945" x="453.6" y="209.418701" style="stroke: #000000; stroke-width: 0.5"/>
      </g>
     </g>
    </g>
    <g id="ytick_20">
     <g id="line2d_37">
      <g>
       <use xlink:href="#m8311d47945" x="453.6" y="202.090559" style="stroke: #000000; stroke-width: 0.5"/>
      </g>
     </g>
    </g>
    <g id="ytick_21">
     <g id="line2d_38">
      <g>
       <use xlink:href="#m8311d47945" x="453.6" y="196.103031" style="stroke: #000000; stroke-width: 0.5"/>
      </g>
     </g>
    </g>
    <g id="ytick_22">
     <g id="line2d_39">
      <g>
       <use xlink:href="#m8311d47945" x="453.6" y="191.040648" style="stroke: #000000; stroke-width: 0.5"/>
      </g>
     </g>
    </g>
    <g id="ytick_23">
     <g id="line2d_40">
      <g>
       <use xlink:href="#m8311d47945" x="453.6" y="186.655412" style="stroke: #000000; stroke-width: 0.5"/>
      </g>
     </g>
    </g>
    <g id="ytick_24">
     <g id="line2d_41">
      <g>
       <use xlink:href="#m8311d47945" x="453.6" y="182.78736" style="stroke: #000000; stroke-width: 0.5"/>
      </g>
     </g>
    </g>
    <g id="ytick_25">
     <g id="line2d_42">
      <g>
       <use xlink:href="#m8311d47945" x="453.6" y="156.563981" style="stroke: #000000; stroke-width: 0.5"/>
      </g>
     </g>
    </g>
    <g id="ytick_26">
     <g id="line2d_43">
      <g>
       <use xlink:href="#m8311d47945" x="453.6" y="143.24831" style="stroke: #000000; stroke-width: 0.5"/>
      </g>
     </g>
    </g>
    <g id="ytick_27">
     <g id="line2d_44">
      <g>
       <use xlink:href="#m8311d47945" x="453.6" y="133.800692" style="stroke: #000000; stroke-width: 0.5"/>
      </g>
     </g>
    </g>
    <g id="ytick_28">
     <g id="line2d_45">
      <g>
       <use xlink:href="#m8311d47945" x="453.6" y="126.472549" style="stroke: #000000; stroke-width: 0.5"/>
      </g>
     </g>
    </g>
    <g id="ytick_29">
     <g id="line2d_46">
      <g>
       <use xlink:href="#m8311d47945" x="453.6" y="120.485021" style="stroke: #000000; stroke-width: 0.5"/>
      </g>
     </g>
    </g>
    <g id="ytick_30">
     <g id="line2d_47">
      <g>
       <use xlink:href="#m8311d47945" x="453.6" y="115.422638" style="stroke: #000000; stroke-width: 0.5"/>
      </g>
     </g>
    </g>
    <g id="ytick_31">
     <g id="line2d_48">
      <g>
       <use xlink:href="#m8311d47945" x="453.6" y="111.037403" style="stroke: #000000; stroke-width: 0.5"/>
      </g>
     </g>
    </g>
    <g id="ytick_32">
     <g id="line2d_49">
      <g>
       <use xlink:href="#m8311d47945" x="453.6" y="107.169351" style="stroke: #000000; stroke-width: 0.5"/>
      </g>
     </g>
    </g>
    <g id="ytick_33">
     <g id="line2d_50">
      <g>
       <use xlink:href="#m8311d47945" x="453.6" y="80.945971" style="stroke: #000000; stroke-width: 0.5"/>
      </g>
     </g>
    </g>
    <g id="ytick_34">
     <g id="line2d_51">
      <g>
       <use xlink:href="#m8311d47945" x="453.6" y="67.630301" style="stroke: #000000; stroke-width: 0.5"/>
      </g>
     </g>
    </g>
    <g id="ytick_35">
     <g id="line2d_52">
      <g>
       <use xlink:href="#m8311d47945" x="453.6" y="58.182682" style="stroke: #000000; stroke-width: 0.5"/>
      </g>
     </g>
    </g>
    <g id="ytick_36">
     <g id="line2d_53">
      <g>
       <use xlink:href="#m8311d47945" x="453.6" y="50.85454" style="stroke: #000000; stroke-width: 0.5"/>
      </g>
     </g>
    </g>
    <g id="ytick_37">
     <g id="line2d_54">
      <g>
       <use xlink:href="#m8311d47945" x="453.6" y="44.867011" style="stroke: #000000; stroke-width: 0.5"/>
      </g>
     </g>
    </g>
    <g id="text_20">
     <!-- Number of combinations per outing -->
     <g transform="translate(491.340571 296.052636) rotate(-90) scale(0.15 -0.15)">
      <use xlink:href="#CMR17-4e" transform="scale(0.996264)"/>
      <use xlink:href="#CMR17-75" transform="translate(69.07243 0) scale(0.996264)"/>
      <use xlink:href="#CMR17-6d" transform="translate(119.9678 0) scale(0.996264)"/>
      <use xlink:href="#CMR17-62" transform="translate(194.284936 0) scale(0.996264)"/>
      <use xlink:href="#CMR17-65" transform="translate(247.782744 0) scale(0.996264)"/>
      <use xlink:href="#CMR17-72" transform="translate(288.268404 0) scale(0.996264)"/>
      <use xlink:href="#CMR17-6f" transform="translate(353.625139 0) scale(0.996264)"/>
      <use xlink:href="#CMR17-66" transform="translate(399.315616 0) scale(0.996264)"/>
      <use xlink:href="#CMR17-63" transform="translate(456.865095 0) scale(0.996264)"/>
      <use xlink:href="#CMR17-6f" transform="translate(497.350755 0) scale(0.996264)"/>
      <use xlink:href="#CMR17-6d" transform="translate(543.041232 0) scale(0.996264)"/>
      <use xlink:href="#CMR17-62" transform="translate(617.358368 0) scale(0.996264)"/>
      <use xlink:href="#CMR17-69" transform="translate(668.253738 0) scale(0.996264)"/>
      <use xlink:href="#CMR17-6e" transform="translate(693.124796 0) scale(0.996264)"/>
      <use xlink:href="#CMR17-61" transform="translate(744.020166 0) scale(0.996264)"/>
      <use xlink:href="#CMR17-74" transform="translate(789.710643 0) scale(0.996264)"/>
      <use xlink:href="#CMR17-69" transform="translate(824.991411 0) scale(0.996264)"/>
      <use xlink:href="#CMR17-6f" transform="translate(849.862469 0) scale(0.996264)"/>
      <use xlink:href="#CMR17-6e" transform="translate(895.552947 0) scale(0.996264)"/>
      <use xlink:href="#CMR17-73" transform="translate(946.448316 0) scale(0.996264)"/>
      <use xlink:href="#CMR17-70" transform="translate(1012.32562 0) scale(0.996264)"/>
      <use xlink:href="#CMR17-65" transform="translate(1065.823429 0) scale(0.996264)"/>
      <use xlink:href="#CMR17-72" transform="translate(1106.309089 0) scale(0.996264)"/>
      <use xlink:href="#CMR17-6f" transform="translate(1171.665823 0) scale(0.996264)"/>
      <use xlink:href="#CMR17-75" transform="translate(1217.356301 0) scale(0.996264)"/>
      <use xlink:href="#CMR17-74" transform="translate(1268.25167 0) scale(0.996264)"/>
      <use xlink:href="#CMR17-69" transform="translate(1303.532438 0) scale(0.996264)"/>
      <use xlink:href="#CMR17-6e" transform="translate(1328.403497 0) scale(0.996264)"/>
      <use xlink:href="#CMR17-67" transform="translate(1379.298866 0) scale(0.996264)"/>
     </g>
    </g>
   </g>
   <g id="patch_66">
    <path d="M 63 320.4 
L 63 43.2 
" style="fill: none; stroke: #000000; stroke-width: 0.8; stroke-linejoin: miter; stroke-linecap: square"/>
   </g>
   <g id="patch_67">
    <path d="M 453.6 320.4 
L 453.6 43.2 
" style="fill: none; stroke: #000000; stroke-width: 0.8; stroke-linejoin: miter; stroke-linecap: square"/>
   </g>
   <g id="patch_68">
    <path d="M 63 320.4 
L 453.6 320.4 
" style="fill: none; stroke: #000000; stroke-width: 0.8; stroke-linejoin: miter; stroke-linecap: square"/>
   </g>
   <g id="patch_69">
    <path d="M 63 43.2 
L 453.6 43.2 
" style="fill: none; stroke: #000000; stroke-width: 0.8; stroke-linejoin: miter; stroke-linecap: square"/>
   </g>
   <g id="text_21">
    <!-- Peak performance vs number of outings -->
    <g transform="translate(115.544691 37.2) scale(0.18 -0.18)">
     <defs>
      <path id="CMR17-50" d="M 1267 2042 
L 2291 2042 
C 3117 2042 3718 2578 3718 3184 
C 3718 3791 3130 4352 2291 4352 
L 333 4352 
L 333 4186 
C 774 4186 845 4186 845 3899 
L 845 446 
C 845 160 774 160 333 160 
L 333 0 
C 518 0 858 0 1056 0 
C 1254 0 1594 0 1779 0 
L 1779 160 
C 1338 160 1267 160 1267 446 
L 1267 2042 
z
M 1254 2176 
L 1254 3938 
C 1254 4155 1267 4186 1523 4186 
L 2170 4186 
C 2995 4186 3232 3714 3232 3184 
C 3232 2604 2950 2176 2170 2176 
L 1254 2176 
z
" transform="scale(0.015625)"/>
     </defs>
     <use xlink:href="#CMR17-50" transform="scale(0.996264)"/>
     <use xlink:href="#CMR17-65" transform="translate(59.983847 0) scale(0.996264)"/>
     <use xlink:href="#CMR17-61" transform="translate(100.469507 0) scale(0.996264)"/>
     <use xlink:href="#CMR17-6b" transform="translate(146.159984 0) scale(0.996264)"/>
     <use xlink:href="#CMR17-70" transform="translate(224.528866 0) scale(0.996264)"/>
     <use xlink:href="#CMR17-65" transform="translate(278.026675 0) scale(0.996264)"/>
     <use xlink:href="#CMR17-72" transform="translate(318.512335 0) scale(0.996264)"/>
     <use xlink:href="#CMR17-66" transform="translate(353.793103 0) scale(0.996264)"/>
     <use xlink:href="#CMR17-6f" transform="translate(381.266616 0) scale(0.996264)"/>
     <use xlink:href="#CMR17-72" transform="translate(426.957093 0) scale(0.996264)"/>
     <use xlink:href="#CMR17-6d" transform="translate(462.23786 0) scale(0.996264)"/>
     <use xlink:href="#CMR17-61" transform="translate(539.15745 0) scale(0.996264)"/>
     <use xlink:href="#CMR17-6e" transform="translate(584.847927 0) scale(0.996264)"/>
     <use xlink:href="#CMR17-63" transform="translate(635.743297 0) scale(0.996264)"/>
     <use xlink:href="#CMR17-65" transform="translate(676.228958 0) scale(0.996264)"/>
     <use xlink:href="#CMR17-76" transform="translate(746.790585 0) scale(0.996264)"/>
     <use xlink:href="#CMR17-73" transform="translate(795.0835 0) scale(0.996264)"/>
     <use xlink:href="#CMR17-6e" transform="translate(860.960804 0) scale(0.996264)"/>
     <use xlink:href="#CMR17-75" transform="translate(909.25372 0) scale(0.996264)"/>
     <use xlink:href="#CMR17-6d" transform="translate(960.14909 0) scale(0.996264)"/>
     <use xlink:href="#CMR17-62" transform="translate(1034.466226 0) scale(0.996264)"/>
     <use xlink:href="#CMR17-65" transform="translate(1087.964034 0) scale(0.996264)"/>
     <use xlink:href="#CMR17-72" transform="translate(1128.449695 0) scale(0.996264)"/>
     <use xlink:href="#CMR17-6f" transform="translate(1193.806429 0) scale(0.996264)"/>
     <use xlink:href="#CMR17-66" transform="translate(1239.496906 0) scale(0.996264)"/>
     <use xlink:href="#CMR17-6f" transform="translate(1297.046385 0) scale(0.996264)"/>
     <use xlink:href="#CMR17-75" transform="translate(1342.736862 0) scale(0.996264)"/>
     <use xlink:href="#CMR17-74" transform="translate(1393.632232 0) scale(0.996264)"/>
     <use xlink:href="#CMR17-69" transform="translate(1428.913 0) scale(0.996264)"/>
     <use xlink:href="#CMR17-6e" transform="translate(1453.784058 0) scale(0.996264)"/>
     <use xlink:href="#CMR17-67" transform="translate(1504.679428 0) scale(0.996264)"/>
     <use xlink:href="#CMR17-73" transform="translate(1550.369905 0) scale(0.996264)"/>
    </g>
   </g>
  </g>
 </g>
 <defs>
  <clipPath id="pcff1379462">
   <rect x="63" y="43.2" width="390.6" height="277.2"/>
  </clipPath>
 </defs>
</svg>
