<svg width="100" height="100" xmlns="http://www.w3.org/2000/svg" viewbox="0 -1.8 20 20">
 <g>
  <title>Layer 1</title>
  <path stroke="black" stroke-width="5" id="svg_3" stroke-linejoin="round" stroke-linecap="round" d="m73.63853,62.07143a19.73618,19.23643 0 0 0 11.02195,-3.35714l0,0a3.44436,3.35714 0 0 1 5.33876,2.88714l0,4.02857a13.77744,13.42857 0 0 1 -13.57078,13.22714l-34.85692,0a13.77744,13.42857 0 0 1 -13.57078,-13.22714l0,-4.02857a3.44436,3.35714 0 0 1 5.33876,-2.88714l0,0a19.73618,19.23643 0 0 0 11.02195,3.35714l29.27705,0l0.00001,0zm-0.86109,29.50929l-28.31263,-39.58072m29.5526,47l-1.96328,-2.75286a3.44436,3.35714 0 0 1 0.72332,-4.66643l0,0a3.44436,3.35714 0 0 1 4.8221,0.80571l1.96328,2.75286l-5.54542,3.86071l0,0.00001z" fill="purple"/>
  <path stroke="black" stroke-width="5" id="svg_1" stroke-linejoin="round" stroke-linecap="round" d="m65.63853,37.07143a19.73618,19.23643 0 0 0 11.02195,-3.35714l0,0a3.44436,3.35714 0 0 1 5.33876,2.88714l0,4.02857a13.77744,13.42857 0 0 1 -13.57078,13.22714l-34.85692,0a13.77744,13.42857 0 0 1 -13.57078,-13.22714l0,-4.02857a3.44436,3.35714 0 0 1 5.33876,-2.88714l0,0a19.73618,19.23643 0 0 0 11.02195,3.35714l29.27705,0l0.00001,0zm-0.86109,29.50929l-28.31263,-39.58072m29.5526,47l-1.96328,-2.75286a3.44436,3.35714 0 0 1 0.72332,-4.66643l0,0a3.44436,3.35714 0 0 1 4.8221,0.80571l1.96328,2.75286l-5.54542,3.86071l0,0.00001z" fill="orange"/>
  <path stroke="black" stroke-width="5" id="svg_2" stroke-linejoin="round" stroke-linecap="round" d="m56.63853,12.07143a19.73618,19.23643 0 0 0 11.02195,-3.35714l0,0a3.44436,3.35714 0 0 1 5.33876,2.88714l0,4.02857a13.77744,13.42857 0 0 1 -13.57078,13.22714l-34.85692,0a13.77744,13.42857 0 0 1 -13.57078,-13.22714l0,-4.02857a3.44436,3.35714 0 0 1 5.33876,-2.88714l0,0a19.73618,19.23643 0 0 0 11.02195,3.35714l29.27705,0l0.00001,0zm-0.86109,29.50929l-28.31263,-39.58072m29.5526,47l-1.96328,-2.75286a3.44436,3.35714 0 0 1 0.72332,-4.66643l0,0a3.44436,3.35714 0 0 1 4.8221,0.80571l1.96328,2.75286l-5.54542,3.86071l0,0.00001z" fill="red"/>
 </g>

</svg>