<?xml version="1.0" encoding="utf-8" standalone="no"?>
<!DOCTYPE svg PUBLIC "-//W3C//DTD SVG 1.1//EN"
  "http://www.w3.org/Graphics/SVG/1.1/DTD/svg11.dtd">
<svg xmlns:xlink="http://www.w3.org/1999/xlink" width="504pt" height="360pt" viewBox="0 0 504 360" xmlns="http://www.w3.org/2000/svg" version="1.1">
 <metadata>
  <rdf:RDF xmlns:dc="http://purl.org/dc/elements/1.1/" xmlns:cc="http://creativecommons.org/ns#" xmlns:rdf="http://www.w3.org/1999/02/22-rdf-syntax-ns#">
   <cc:Work>
    <dc:type rdf:resource="http://purl.org/dc/dcmitype/StillImage"/>
    <dc:date>2023-12-15T12:08:23.280211</dc:date>
    <dc:format>image/svg+xml</dc:format>
    <dc:creator>
     <cc:Agent>
      <dc:title>Matplotlib v3.7.1, https://matplotlib.org/</dc:title>
     </cc:Agent>
    </dc:creator>
   </cc:Work>
  </rdf:RDF>
 </metadata>
 <defs>
  <style type="text/css">*{stroke-linejoin: round; stroke-linecap: butt}</style>
 </defs>
 <g id="figure_1">
  <g id="patch_1">
   <path d="M 0 360 
L 504 360 
L 504 0 
L 0 0 
z
" style="fill: #ffffff"/>
  </g>
  <g id="axes_1">
   <g id="patch_2">
    <path d="M 63 320.4 
L 453.6 320.4 
L 453.6 43.2 
L 63 43.2 
z
" style="fill: #ffffff"/>
   </g>
   <g id="matplotlib.axis_1">
    <g id="xtick_1">
     <g id="line2d_1">
      <path d="M 80.754545 320.4 
L 80.754545 43.2 
" clip-path="url(#p01eb32cc61)" style="fill: none; stroke-dasharray: 1.85,0.8; stroke-dashoffset: 0; stroke: #b0b0b0; stroke-opacity: 0.5; stroke-width: 0.5"/>
     </g>
     <g id="line2d_2">
      <defs>
       <path id="m93137b573c" d="M 0 0 
L 0 -3 
" style="stroke: #000000; stroke-width: 0.5"/>
      </defs>
      <g>
       <use xlink:href="#m93137b573c" x="80.754545" y="320.4" style="stroke: #000000; stroke-width: 0.5"/>
      </g>
     </g>
     <g id="text_1">
      <!-- $\mathdefault{0}$ -->
      <g transform="translate(77.096427 334.277725) scale(0.15 -0.15)">
       <defs>
        <path id="CMR17-30" d="M 2688 2025 
C 2688 2416 2682 3080 2413 3591 
C 2176 4039 1798 4198 1466 4198 
C 1158 4198 768 4058 525 3597 
C 269 3118 243 2524 243 2025 
C 243 1661 250 1106 448 619 
C 723 -39 1216 -128 1466 -128 
C 1760 -128 2208 -7 2470 600 
C 2662 1042 2688 1559 2688 2025 
z
M 1466 -26 
C 1056 -26 813 325 723 812 
C 653 1188 653 1738 653 2096 
C 653 2588 653 2997 736 3387 
C 858 3929 1216 4096 1466 4096 
C 1728 4096 2067 3923 2189 3400 
C 2272 3036 2278 2607 2278 2096 
C 2278 1680 2278 1169 2202 792 
C 2067 95 1690 -26 1466 -26 
z
" transform="scale(0.015625)"/>
       </defs>
       <use xlink:href="#CMR17-30" transform="scale(0.996264)"/>
      </g>
     </g>
    </g>
    <g id="xtick_2">
     <g id="line2d_3">
      <path d="M 151.772727 320.4 
L 151.772727 43.2 
" clip-path="url(#p01eb32cc61)" style="fill: none; stroke-dasharray: 1.85,0.8; stroke-dashoffset: 0; stroke: #b0b0b0; stroke-opacity: 0.5; stroke-width: 0.5"/>
     </g>
     <g id="line2d_4">
      <g>
       <use xlink:href="#m93137b573c" x="151.772727" y="320.4" style="stroke: #000000; stroke-width: 0.5"/>
      </g>
     </g>
     <g id="text_2">
      <!-- $\mathdefault{20}$ -->
      <g transform="translate(144.456489 334.277725) scale(0.15 -0.15)">
       <defs>
        <path id="CMR17-32" d="M 2669 989 
L 2554 989 
C 2490 536 2438 459 2413 420 
C 2381 369 1920 369 1830 369 
L 602 369 
C 832 619 1280 1072 1824 1597 
C 2214 1967 2669 2402 2669 3035 
C 2669 3790 2067 4224 1395 4224 
C 691 4224 262 3604 262 3030 
C 262 2780 448 2748 525 2748 
C 589 2748 781 2787 781 3010 
C 781 3207 614 3264 525 3264 
C 486 3264 448 3258 422 3245 
C 544 3790 915 4058 1306 4058 
C 1862 4058 2227 3617 2227 3035 
C 2227 2479 1901 2000 1536 1584 
L 262 146 
L 262 0 
L 2515 0 
L 2669 989 
z
" transform="scale(0.015625)"/>
       </defs>
       <use xlink:href="#CMR17-32" transform="scale(0.996264)"/>
       <use xlink:href="#CMR17-30" transform="translate(45.690477 0) scale(0.996264)"/>
      </g>
     </g>
    </g>
    <g id="xtick_3">
     <g id="line2d_5">
      <path d="M 222.790909 320.4 
L 222.790909 43.2 
" clip-path="url(#p01eb32cc61)" style="fill: none; stroke-dasharray: 1.85,0.8; stroke-dashoffset: 0; stroke: #b0b0b0; stroke-opacity: 0.5; stroke-width: 0.5"/>
     </g>
     <g id="line2d_6">
      <g>
       <use xlink:href="#m93137b573c" x="222.790909" y="320.4" style="stroke: #000000; stroke-width: 0.5"/>
      </g>
     </g>
     <g id="text_3">
      <!-- $\mathdefault{40}$ -->
      <g transform="translate(215.474671 334.277725) scale(0.15 -0.15)">
       <defs>
        <path id="CMR17-34" d="M 2150 4122 
C 2150 4256 2144 4256 2029 4256 
L 128 1254 
L 128 1088 
L 1779 1088 
L 1779 457 
C 1779 224 1766 160 1318 160 
L 1197 160 
L 1197 0 
C 1402 0 1747 0 1965 0 
C 2182 0 2528 0 2733 0 
L 2733 160 
L 2611 160 
C 2163 160 2150 224 2150 457 
L 2150 1088 
L 2803 1088 
L 2803 1254 
L 2150 1254 
L 2150 4122 
z
M 1798 3703 
L 1798 1254 
L 256 1254 
L 1798 3703 
z
" transform="scale(0.015625)"/>
       </defs>
       <use xlink:href="#CMR17-34" transform="scale(0.996264)"/>
       <use xlink:href="#CMR17-30" transform="translate(45.690477 0) scale(0.996264)"/>
      </g>
     </g>
    </g>
    <g id="xtick_4">
     <g id="line2d_7">
      <path d="M 293.809091 320.4 
L 293.809091 43.2 
" clip-path="url(#p01eb32cc61)" style="fill: none; stroke-dasharray: 1.85,0.8; stroke-dashoffset: 0; stroke: #b0b0b0; stroke-opacity: 0.5; stroke-width: 0.5"/>
     </g>
     <g id="line2d_8">
      <g>
       <use xlink:href="#m93137b573c" x="293.809091" y="320.4" style="stroke: #000000; stroke-width: 0.5"/>
      </g>
     </g>
     <g id="text_4">
      <!-- $\mathdefault{60}$ -->
      <g transform="translate(286.492853 334.277725) scale(0.15 -0.15)">
       <defs>
        <path id="CMR17-36" d="M 678 2176 
C 678 3690 1395 4032 1811 4032 
C 1946 4032 2272 4009 2400 3776 
C 2298 3776 2106 3776 2106 3553 
C 2106 3381 2246 3323 2336 3323 
C 2394 3323 2566 3348 2566 3560 
C 2566 3954 2246 4179 1805 4179 
C 1043 4179 243 3390 243 1984 
C 243 253 966 -128 1478 -128 
C 2099 -128 2688 427 2688 1283 
C 2688 2081 2170 2662 1517 2662 
C 1126 2662 838 2407 678 1960 
L 678 2176 
z
M 1478 25 
C 691 25 691 1200 691 1436 
C 691 1896 909 2560 1504 2560 
C 1613 2560 1926 2560 2138 2120 
C 2253 1870 2253 1609 2253 1289 
C 2253 944 2253 690 2118 434 
C 1978 171 1773 25 1478 25 
z
" transform="scale(0.015625)"/>
       </defs>
       <use xlink:href="#CMR17-36" transform="scale(0.996264)"/>
       <use xlink:href="#CMR17-30" transform="translate(45.690477 0) scale(0.996264)"/>
      </g>
     </g>
    </g>
    <g id="xtick_5">
     <g id="line2d_9">
      <path d="M 364.827273 320.4 
L 364.827273 43.2 
" clip-path="url(#p01eb32cc61)" style="fill: none; stroke-dasharray: 1.85,0.8; stroke-dashoffset: 0; stroke: #b0b0b0; stroke-opacity: 0.5; stroke-width: 0.5"/>
     </g>
     <g id="line2d_10">
      <g>
       <use xlink:href="#m93137b573c" x="364.827273" y="320.4" style="stroke: #000000; stroke-width: 0.5"/>
      </g>
     </g>
     <g id="text_5">
      <!-- $\mathdefault{80}$ -->
      <g transform="translate(357.511035 334.277725) scale(0.15 -0.15)">
       <defs>
        <path id="CMR17-38" d="M 1741 2264 
C 2144 2467 2554 2773 2554 3263 
C 2554 3841 1990 4179 1472 4179 
C 890 4179 378 3759 378 3180 
C 378 3021 416 2747 666 2505 
C 730 2442 998 2251 1171 2130 
C 883 1983 211 1634 211 934 
C 211 279 838 -128 1459 -128 
C 2144 -128 2720 362 2720 1010 
C 2720 1590 2330 1857 2074 2029 
L 1741 2264 
z
M 902 2822 
C 851 2854 595 3051 595 3351 
C 595 3739 998 4032 1459 4032 
C 1965 4032 2336 3676 2336 3262 
C 2336 2669 1670 2331 1638 2331 
C 1632 2331 1626 2331 1574 2370 
L 902 2822 
z
M 2080 1519 
C 2176 1449 2483 1240 2483 851 
C 2483 381 2010 25 1472 25 
C 890 25 448 438 448 940 
C 448 1443 838 1862 1280 2060 
L 2080 1519 
z
" transform="scale(0.015625)"/>
       </defs>
       <use xlink:href="#CMR17-38" transform="scale(0.996264)"/>
       <use xlink:href="#CMR17-30" transform="translate(45.690477 0) scale(0.996264)"/>
      </g>
     </g>
    </g>
    <g id="xtick_6">
     <g id="line2d_11">
      <path d="M 435.845455 320.4 
L 435.845455 43.2 
" clip-path="url(#p01eb32cc61)" style="fill: none; stroke-dasharray: 1.85,0.8; stroke-dashoffset: 0; stroke: #b0b0b0; stroke-opacity: 0.5; stroke-width: 0.5"/>
     </g>
     <g id="line2d_12">
      <g>
       <use xlink:href="#m93137b573c" x="435.845455" y="320.4" style="stroke: #000000; stroke-width: 0.5"/>
      </g>
     </g>
     <g id="text_6">
      <!-- $\mathdefault{100}$ -->
      <g transform="translate(424.871098 334.277725) scale(0.15 -0.15)">
       <defs>
        <path id="CMR17-31" d="M 1702 4058 
C 1702 4192 1696 4192 1606 4192 
C 1357 3916 979 3827 621 3827 
C 602 3827 570 3827 563 3808 
C 557 3795 557 3782 557 3648 
C 755 3648 1088 3686 1344 3839 
L 1344 461 
C 1344 236 1331 160 781 160 
L 589 160 
L 589 0 
C 896 0 1216 0 1523 0 
C 1830 0 2150 0 2458 0 
L 2458 160 
L 2266 160 
C 1715 160 1702 230 1702 458 
L 1702 4058 
z
" transform="scale(0.015625)"/>
       </defs>
       <use xlink:href="#CMR17-31" transform="scale(0.996264)"/>
       <use xlink:href="#CMR17-30" transform="translate(45.690477 0) scale(0.996264)"/>
       <use xlink:href="#CMR17-30" transform="translate(91.380954 0) scale(0.996264)"/>
      </g>
     </g>
    </g>
    <g id="text_7">
     <!-- Iteration -->
     <g transform="translate(230.460239 351.561194) scale(0.15 -0.15)">
      <defs>
       <path id="CMR17-49" d="M 1261 3905 
C 1261 4192 1338 4192 1798 4192 
L 1798 4352 
C 1594 4352 1267 4352 1050 4352 
C 832 4352 506 4352 301 4352 
L 301 4192 
C 762 4192 838 4192 838 3905 
L 838 447 
C 838 160 762 160 301 160 
L 301 0 
C 506 0 832 0 1050 0 
C 1267 0 1594 0 1798 0 
L 1798 160 
C 1338 160 1261 160 1261 447 
L 1261 3905 
z
" transform="scale(0.015625)"/>
       <path id="CMR17-74" d="M 966 2560 
L 1862 2560 
L 1862 2725 
L 966 2725 
L 966 3904 
L 851 3904 
C 838 3245 614 2668 70 2668 
L 70 2560 
L 627 2560 
L 627 771 
C 627 650 627 -64 1370 -64 
C 1747 -64 1965 306 1965 777 
L 1965 1140 
L 1850 1140 
L 1850 783 
C 1850 344 1677 51 1408 51 
C 1222 51 966 178 966 758 
L 966 2560 
z
" transform="scale(0.015625)"/>
       <path id="CMR17-65" d="M 2438 1472 
C 2464 1498 2464 1511 2464 1576 
C 2464 2238 2118 2816 1389 2816 
C 710 2816 173 2169 173 1383 
C 173 551 781 -64 1459 -64 
C 2176 -64 2458 607 2458 740 
C 2458 784 2419 784 2406 784 
C 2362 784 2355 771 2330 696 
C 2189 265 1837 51 1504 51 
C 1229 51 954 203 781 480 
C 582 803 582 1176 582 1472 
L 2438 1472 
z
M 589 1568 
C 634 2505 1126 2714 1382 2714 
C 1818 2714 2112 2297 2118 1568 
L 589 1568 
z
" transform="scale(0.015625)"/>
       <path id="CMR17-72" d="M 960 1497 
C 960 2112 1222 2688 1702 2688 
C 1747 2688 1792 2682 1837 2662 
C 1837 2662 1696 2617 1696 2452 
C 1696 2298 1818 2234 1914 2234 
C 1990 2234 2131 2279 2131 2458 
C 2131 2663 1926 2790 1709 2790 
C 1222 2790 1011 2317 947 2093 
L 941 2093 
L 941 2790 
L 198 2720 
L 198 2554 
C 576 2554 634 2515 634 2208 
L 634 428 
C 634 184 608 153 198 153 
L 198 -13 
C 352 0 646 0 813 0 
C 998 0 1325 0 1498 -13 
L 1498 153 
C 1037 153 960 153 960 440 
L 960 1497 
z
" transform="scale(0.015625)"/>
       <path id="CMR17-61" d="M 2304 1653 
C 2304 2072 2304 2294 2035 2543 
C 1798 2752 1523 2816 1306 2816 
C 800 2816 435 2407 435 1971 
C 435 1728 627 1728 666 1728 
C 749 1728 896 1778 896 1954 
C 896 2112 774 2181 666 2181 
C 640 2181 608 2174 589 2168 
C 723 2592 1069 2714 1293 2714 
C 1613 2714 1965 2429 1965 1885 
L 1965 1600 
C 1587 1600 1133 1549 774 1357 
C 371 1133 256 813 256 570 
C 256 77 832 -64 1171 -64 
C 1523 -64 1850 139 1990 511 
C 2003 233 2182 -18 2464 -18 
C 2598 -18 2938 70 2938 567 
L 2938 920 
L 2822 920 
L 2822 562 
C 2822 178 2650 128 2566 128 
C 2304 128 2304 458 2304 738 
L 2304 1653 
z
M 1965 870 
C 1965 317 1568 38 1216 38 
C 896 38 646 275 646 570 
C 646 761 730 1100 1101 1305 
C 1408 1478 1760 1504 1965 1504 
L 1965 870 
z
" transform="scale(0.015625)"/>
       <path id="CMR17-69" d="M 992 3909 
C 992 4049 877 4170 730 4170 
C 589 4170 467 4056 467 3909 
C 467 3769 582 3648 730 3648 
C 870 3648 992 3763 992 3909 
z
M 243 2706 
L 243 2541 
C 602 2541 653 2502 653 2197 
L 653 427 
C 653 184 627 153 218 153 
L 218 -13 
C 371 0 646 0 806 0 
C 960 0 1222 0 1370 -13 
L 1370 153 
C 992 153 979 191 979 420 
L 979 2776 
L 243 2706 
z
" transform="scale(0.015625)"/>
       <path id="CMR17-6f" d="M 2758 1356 
C 2758 2176 2163 2816 1466 2816 
C 768 2816 173 2176 173 1356 
C 173 551 768 -64 1466 -64 
C 2163 -64 2758 551 2758 1356 
z
M 1466 51 
C 1165 51 909 230 762 480 
C 602 767 582 1126 582 1408 
C 582 1677 595 2010 762 2298 
C 890 2509 1139 2714 1466 2714 
C 1754 2714 1997 2554 2150 2330 
C 2349 2029 2349 1607 2349 1408 
C 2349 1158 2336 775 2163 467 
C 1984 173 1709 51 1466 51 
z
" transform="scale(0.015625)"/>
       <path id="CMR17-6e" d="M 2656 1933 
C 2656 2259 2592 2790 1837 2790 
C 1331 2790 1069 2400 973 2144 
L 966 2144 
L 966 2790 
L 211 2720 
L 211 2554 
C 589 2554 646 2515 646 2208 
L 646 428 
C 646 184 621 153 211 153 
L 211 -13 
C 365 0 646 0 813 0 
C 979 0 1267 0 1421 -13 
L 1421 153 
C 1011 153 986 178 986 428 
L 986 1658 
C 986 2247 1344 2688 1792 2688 
C 2266 2688 2317 2266 2317 1958 
L 2317 428 
C 2317 184 2291 153 1882 153 
L 1882 -13 
C 2035 0 2317 0 2483 0 
C 2650 0 2938 0 3091 -13 
L 3091 153 
C 2682 153 2656 178 2656 428 
L 2656 1933 
z
" transform="scale(0.015625)"/>
      </defs>
      <use xlink:href="#CMR17-49" transform="scale(0.996264)"/>
      <use xlink:href="#CMR17-74" transform="translate(32.638409 0) scale(0.996264)"/>
      <use xlink:href="#CMR17-65" transform="translate(67.919177 0) scale(0.996264)"/>
      <use xlink:href="#CMR17-72" transform="translate(108.404837 0) scale(0.996264)"/>
      <use xlink:href="#CMR17-61" transform="translate(143.685605 0) scale(0.996264)"/>
      <use xlink:href="#CMR17-74" transform="translate(189.376082 0) scale(0.996264)"/>
      <use xlink:href="#CMR17-69" transform="translate(224.65685 0) scale(0.996264)"/>
      <use xlink:href="#CMR17-6f" transform="translate(249.527909 0) scale(0.996264)"/>
      <use xlink:href="#CMR17-6e" transform="translate(295.218386 0) scale(0.996264)"/>
     </g>
    </g>
   </g>
   <g id="matplotlib.axis_2">
    <g id="ytick_1">
     <g id="line2d_13">
      <path d="M 63 283.61812 
L 453.6 283.61812 
" clip-path="url(#p01eb32cc61)" style="fill: none; stroke-dasharray: 1.85,0.8; stroke-dashoffset: 0; stroke: #b0b0b0; stroke-opacity: 0.5; stroke-width: 0.5"/>
     </g>
     <g id="line2d_14">
      <defs>
       <path id="m1ae69dd954" d="M 0 0 
L 3 0 
" style="stroke: #000000; stroke-width: 0.5"/>
      </defs>
      <g>
       <use xlink:href="#m1ae69dd954" x="63" y="283.61812" style="stroke: #000000; stroke-width: 0.5"/>
      </g>
     </g>
     <g id="text_8">
      <!-- $\mathdefault{−8.5}$ -->
      <g transform="translate(29.179832 288.806983) scale(0.15 -0.15)">
       <defs>
        <path id="CMSY10-0" d="M 4218 1472 
C 4326 1472 4442 1472 4442 1600 
C 4442 1728 4326 1728 4218 1728 
L 755 1728 
C 646 1728 531 1728 531 1600 
C 531 1472 646 1472 755 1472 
L 4218 1472 
z
" transform="scale(0.015625)"/>
        <path id="CMMI12-3a" d="M 1178 307 
C 1178 492 1024 619 870 619 
C 685 619 557 466 557 313 
C 557 128 710 0 864 0 
C 1050 0 1178 153 1178 307 
z
" transform="scale(0.015625)"/>
        <path id="CMR17-35" d="M 730 3692 
C 794 3666 1056 3584 1325 3584 
C 1920 3584 2246 3911 2432 4100 
C 2432 4157 2432 4192 2394 4192 
C 2387 4192 2374 4192 2323 4163 
C 2099 4058 1837 3973 1517 3973 
C 1325 3973 1037 3999 723 4139 
C 653 4171 640 4171 634 4171 
C 602 4171 595 4164 595 4037 
L 595 2203 
C 595 2089 595 2057 659 2057 
C 691 2057 704 2070 736 2114 
C 941 2401 1222 2522 1542 2522 
C 1766 2522 2246 2382 2246 1289 
C 2246 1085 2246 715 2054 421 
C 1894 159 1645 25 1370 25 
C 947 25 518 320 403 814 
C 429 807 480 795 506 795 
C 589 795 749 840 749 1038 
C 749 1210 627 1280 506 1280 
C 358 1280 262 1190 262 1011 
C 262 454 704 -128 1382 -128 
C 2042 -128 2669 440 2669 1264 
C 2669 2030 2170 2624 1549 2624 
C 1222 2624 947 2503 730 2274 
L 730 3692 
z
" transform="scale(0.015625)"/>
       </defs>
       <use xlink:href="#CMSY10-0" transform="scale(0.996264)"/>
       <use xlink:href="#CMR17-38" transform="translate(77.487468 0) scale(0.996264)"/>
       <use xlink:href="#CMMI12-3a" transform="translate(123.177945 0) scale(0.996264)"/>
       <use xlink:href="#CMR17-35" transform="translate(150.275122 0) scale(0.996264)"/>
      </g>
     </g>
    </g>
    <g id="ytick_2">
     <g id="line2d_15">
      <path d="M 63 246.399589 
L 453.6 246.399589 
" clip-path="url(#p01eb32cc61)" style="fill: none; stroke-dasharray: 1.85,0.8; stroke-dashoffset: 0; stroke: #b0b0b0; stroke-opacity: 0.5; stroke-width: 0.5"/>
     </g>
     <g id="line2d_16">
      <g>
       <use xlink:href="#m1ae69dd954" x="63" y="246.399589" style="stroke: #000000; stroke-width: 0.5"/>
      </g>
     </g>
     <g id="text_9">
      <!-- $\mathdefault{−8.0}$ -->
      <g transform="translate(29.179832 251.588451) scale(0.15 -0.15)">
       <use xlink:href="#CMSY10-0" transform="scale(0.996264)"/>
       <use xlink:href="#CMR17-38" transform="translate(77.487468 0) scale(0.996264)"/>
       <use xlink:href="#CMMI12-3a" transform="translate(123.177945 0) scale(0.996264)"/>
       <use xlink:href="#CMR17-30" transform="translate(150.275122 0) scale(0.996264)"/>
      </g>
     </g>
    </g>
    <g id="ytick_3">
     <g id="line2d_17">
      <path d="M 63 209.181057 
L 453.6 209.181057 
" clip-path="url(#p01eb32cc61)" style="fill: none; stroke-dasharray: 1.85,0.8; stroke-dashoffset: 0; stroke: #b0b0b0; stroke-opacity: 0.5; stroke-width: 0.5"/>
     </g>
     <g id="line2d_18">
      <g>
       <use xlink:href="#m1ae69dd954" x="63" y="209.181057" style="stroke: #000000; stroke-width: 0.5"/>
      </g>
     </g>
     <g id="text_10">
      <!-- $\mathdefault{−7.5}$ -->
      <g transform="translate(29.179832 214.36992) scale(0.15 -0.15)">
       <defs>
        <path id="CMR17-37" d="M 2886 3941 
L 2886 4081 
L 1382 4081 
C 634 4081 621 4165 595 4288 
L 480 4288 
L 294 3094 
L 410 3094 
C 429 3215 474 3540 550 3661 
C 589 3712 1062 3712 1171 3712 
L 2579 3712 
L 1869 2661 
C 1395 1954 1069 999 1069 165 
C 1069 89 1069 -128 1299 -128 
C 1530 -128 1530 89 1530 171 
L 1530 465 
C 1530 1508 1709 2196 2003 2636 
L 2886 3941 
z
" transform="scale(0.015625)"/>
       </defs>
       <use xlink:href="#CMSY10-0" transform="scale(0.996264)"/>
       <use xlink:href="#CMR17-37" transform="translate(77.487468 0) scale(0.996264)"/>
       <use xlink:href="#CMMI12-3a" transform="translate(123.177945 0) scale(0.996264)"/>
       <use xlink:href="#CMR17-35" transform="translate(150.275122 0) scale(0.996264)"/>
      </g>
     </g>
    </g>
    <g id="ytick_4">
     <g id="line2d_19">
      <path d="M 63 171.962526 
L 453.6 171.962526 
" clip-path="url(#p01eb32cc61)" style="fill: none; stroke-dasharray: 1.85,0.8; stroke-dashoffset: 0; stroke: #b0b0b0; stroke-opacity: 0.5; stroke-width: 0.5"/>
     </g>
     <g id="line2d_20">
      <g>
       <use xlink:href="#m1ae69dd954" x="63" y="171.962526" style="stroke: #000000; stroke-width: 0.5"/>
      </g>
     </g>
     <g id="text_11">
      <!-- $\mathdefault{−7.0}$ -->
      <g transform="translate(29.179832 177.151388) scale(0.15 -0.15)">
       <use xlink:href="#CMSY10-0" transform="scale(0.996264)"/>
       <use xlink:href="#CMR17-37" transform="translate(77.487468 0) scale(0.996264)"/>
       <use xlink:href="#CMMI12-3a" transform="translate(123.177945 0) scale(0.996264)"/>
       <use xlink:href="#CMR17-30" transform="translate(150.275122 0) scale(0.996264)"/>
      </g>
     </g>
    </g>
    <g id="ytick_5">
     <g id="line2d_21">
      <path d="M 63 134.743994 
L 453.6 134.743994 
" clip-path="url(#p01eb32cc61)" style="fill: none; stroke-dasharray: 1.85,0.8; stroke-dashoffset: 0; stroke: #b0b0b0; stroke-opacity: 0.5; stroke-width: 0.5"/>
     </g>
     <g id="line2d_22">
      <g>
       <use xlink:href="#m1ae69dd954" x="63" y="134.743994" style="stroke: #000000; stroke-width: 0.5"/>
      </g>
     </g>
     <g id="text_12">
      <!-- $\mathdefault{−6.5}$ -->
      <g transform="translate(29.179832 139.932857) scale(0.15 -0.15)">
       <use xlink:href="#CMSY10-0" transform="scale(0.996264)"/>
       <use xlink:href="#CMR17-36" transform="translate(77.487468 0) scale(0.996264)"/>
       <use xlink:href="#CMMI12-3a" transform="translate(123.177945 0) scale(0.996264)"/>
       <use xlink:href="#CMR17-35" transform="translate(150.275122 0) scale(0.996264)"/>
      </g>
     </g>
    </g>
    <g id="ytick_6">
     <g id="line2d_23">
      <path d="M 63 97.525463 
L 453.6 97.525463 
" clip-path="url(#p01eb32cc61)" style="fill: none; stroke-dasharray: 1.85,0.8; stroke-dashoffset: 0; stroke: #b0b0b0; stroke-opacity: 0.5; stroke-width: 0.5"/>
     </g>
     <g id="line2d_24">
      <g>
       <use xlink:href="#m1ae69dd954" x="63" y="97.525463" style="stroke: #000000; stroke-width: 0.5"/>
      </g>
     </g>
     <g id="text_13">
      <!-- $\mathdefault{−6.0}$ -->
      <g transform="translate(29.179832 102.714325) scale(0.15 -0.15)">
       <use xlink:href="#CMSY10-0" transform="scale(0.996264)"/>
       <use xlink:href="#CMR17-36" transform="translate(77.487468 0) scale(0.996264)"/>
       <use xlink:href="#CMMI12-3a" transform="translate(123.177945 0) scale(0.996264)"/>
       <use xlink:href="#CMR17-30" transform="translate(150.275122 0) scale(0.996264)"/>
      </g>
     </g>
    </g>
    <g id="ytick_7">
     <g id="line2d_25">
      <path d="M 63 60.306932 
L 453.6 60.306932 
" clip-path="url(#p01eb32cc61)" style="fill: none; stroke-dasharray: 1.85,0.8; stroke-dashoffset: 0; stroke: #b0b0b0; stroke-opacity: 0.5; stroke-width: 0.5"/>
     </g>
     <g id="line2d_26">
      <g>
       <use xlink:href="#m1ae69dd954" x="63" y="60.306932" style="stroke: #000000; stroke-width: 0.5"/>
      </g>
     </g>
     <g id="text_14">
      <!-- $\mathdefault{−5.5}$ -->
      <g transform="translate(29.179832 65.495794) scale(0.15 -0.15)">
       <use xlink:href="#CMSY10-0" transform="scale(0.996264)"/>
       <use xlink:href="#CMR17-35" transform="translate(77.487468 0) scale(0.996264)"/>
       <use xlink:href="#CMMI12-3a" transform="translate(123.177945 0) scale(0.996264)"/>
       <use xlink:href="#CMR17-35" transform="translate(150.275122 0) scale(0.996264)"/>
      </g>
     </g>
    </g>
    <g id="text_15">
     <!-- Total score -->
     <g transform="translate(22.274088 216.999225) rotate(-90) scale(0.15 -0.15)">
      <defs>
       <path id="CMR17-54" d="M 3981 4326 
L 288 4326 
L 179 2918 
L 294 2918 
C 378 3976 467 4160 1453 4160 
C 1568 4160 1754 4160 1805 4154 
C 1926 4135 1926 4058 1926 3912 
L 1926 459 
C 1926 230 1907 160 1376 160 
L 1197 160 
L 1197 0 
C 1504 0 1824 0 2138 0 
C 2451 0 2771 0 3078 0 
L 3078 160 
L 2899 160 
C 2368 160 2349 230 2349 459 
L 2349 3912 
C 2349 4052 2349 4129 2464 4154 
C 2515 4160 2701 4160 2816 4160 
C 3795 4160 3891 3976 3974 2918 
L 4090 2918 
L 3981 4326 
z
" transform="scale(0.015625)"/>
       <path id="CMR17-6c" d="M 979 4396 
L 218 4326 
L 218 4160 
C 595 4160 653 4122 653 3817 
L 653 426 
C 653 184 627 153 218 153 
L 218 -13 
C 371 0 653 0 813 0 
C 979 0 1261 0 1414 -13 
L 1414 153 
C 1005 153 979 178 979 426 
L 979 4396 
z
" transform="scale(0.015625)"/>
       <path id="CMR17-73" d="M 1978 2697 
C 1978 2813 1971 2819 1933 2819 
C 1907 2819 1901 2813 1824 2717 
C 1805 2691 1747 2626 1728 2601 
C 1523 2819 1235 2819 1126 2819 
C 416 2819 160 2447 160 2076 
C 160 1498 813 1365 998 1325 
C 1402 1243 1542 1217 1677 1101 
C 1760 1025 1901 884 1901 654 
C 1901 384 1747 38 1158 38 
C 602 38 403 460 288 1021 
C 269 1110 269 1117 218 1117 
C 166 1117 160 1110 160 983 
L 160 63 
C 160 -51 166 -58 205 -58 
C 237 -58 243 -51 275 0 
C 314 57 410 211 448 276 
C 576 103 800 -64 1158 -64 
C 1792 -64 2131 283 2131 784 
C 2131 1112 1958 1285 1875 1362 
C 1683 1561 1459 1606 1190 1657 
C 838 1735 390 1825 390 2217 
C 390 2383 480 2737 1126 2737 
C 1811 2737 1850 2094 1862 1888 
C 1869 1856 1901 1849 1920 1849 
C 1978 1849 1978 1869 1978 1978 
L 1978 2697 
z
" transform="scale(0.015625)"/>
       <path id="CMR17-63" d="M 2234 2240 
C 2112 2240 1933 2240 1933 2017 
C 1933 1838 2080 1787 2163 1787 
C 2208 1787 2394 1807 2394 2024 
C 2394 2467 1958 2803 1466 2803 
C 787 2803 211 2178 211 1363 
C 211 516 813 -64 1466 -64 
C 2259 -64 2458 677 2458 748 
C 2458 774 2451 793 2406 793 
C 2362 793 2355 787 2330 703 
C 2163 180 1798 51 1523 51 
C 1114 51 621 427 621 1369 
C 621 2338 1094 2688 1472 2688 
C 1722 2688 2093 2573 2234 2240 
z
" transform="scale(0.015625)"/>
      </defs>
      <use xlink:href="#CMR17-54" transform="scale(0.996264)"/>
      <use xlink:href="#CMR17-6f" transform="translate(58.702625 0) scale(0.996264)"/>
      <use xlink:href="#CMR17-74" transform="translate(104.393102 0) scale(0.996264)"/>
      <use xlink:href="#CMR17-61" transform="translate(139.67387 0) scale(0.996264)"/>
      <use xlink:href="#CMR17-6c" transform="translate(185.364347 0) scale(0.996264)"/>
      <use xlink:href="#CMR17-73" transform="translate(240.311372 0) scale(0.996264)"/>
      <use xlink:href="#CMR17-63" transform="translate(276.11271 0) scale(0.996264)"/>
      <use xlink:href="#CMR17-6f" transform="translate(316.59837 0) scale(0.996264)"/>
      <use xlink:href="#CMR17-72" transform="translate(362.288847 0) scale(0.996264)"/>
      <use xlink:href="#CMR17-65" transform="translate(397.569615 0) scale(0.996264)"/>
     </g>
    </g>
   </g>
   <g id="line2d_27">
    <path d="M 80.754545 159.226795 
L 84.305455 108.574714 
L 87.856364 100.142391 
L 91.407273 76.502794 
L 94.958182 78.480043 
L 98.509091 114.244725 
L 102.06 90.808688 
L 105.610909 108.69103 
L 109.161818 93.134846 
L 112.712727 116.105659 
L 116.263636 112.063952 
L 119.814545 114.797195 
L 123.365455 100.927455 
L 126.916364 95.02485 
L 130.467273 87.435766 
L 134.018182 121.921054 
L 137.569091 74.961735 
L 141.12 124.421667 
L 144.670909 135.296464 
L 148.221818 110.726418 
L 151.772727 85.923777 
L 155.323636 97.641778 
L 158.874545 94.47238 
L 162.425455 124.014618 
L 165.976364 90.837758 
L 169.527273 75.71773 
L 173.078182 97.060238 
L 176.629091 104.184098 
L 180.18 97.845338 
L 183.730909 84.615313 
L 187.281818 80.660816 
L 190.832727 130.876742 
L 194.383636 98.950242 
L 197.934545 99.706236 
L 201.485455 91.273913 
L 205.036364 101.712555 
L 208.587273 123.491218 
L 212.138182 86.010987 
L 215.689091 70.890959 
L 219.24 102.439479 
L 222.790909 83.394059 
L 226.341818 105.841507 
L 229.892727 98.833927 
L 233.443636 106.510256 
L 236.994545 120.61259 
L 240.545455 111.075363 
L 244.096364 118.286432 
L 247.647273 75.71773 
L 251.198182 113.372416 
L 254.749091 99.270082 
L 258.3 125.555677 
L 261.850909 77.724048 
L 265.401818 94.588695 
L 268.952727 113.692291 
L 272.503636 116.251044 
L 276.054545 138.524002 
L 279.605455 113.052576 
L 283.156364 119.304126 
L 286.707273 90.954073 
L 290.258182 103.195474 
L 293.809091 82.289155 
L 297.36 91.361158 
L 300.910909 116.251044 
L 304.461818 99.386397 
L 308.012727 125.119522 
L 311.563636 123.549358 
L 315.114545 109.563339 
L 318.665455 67.866946 
L 322.216364 90.837758 
L 325.767273 115.233349 
L 329.318182 89.093139 
L 332.869091 55.8 
L 336.42 98.397772 
L 339.970909 90.721479 
L 343.521818 80.573571 
L 347.072727 112.296582 
L 350.623636 96.216999 
L 354.174545 77.142509 
L 357.725455 105.957787 
L 361.276364 108.69103 
L 364.827273 96.187929 
L 368.378182 116.687198 
L 371.929091 113.372416 
L 375.48 116.716268 
L 379.030909 131.225687 
L 382.581818 130.789533 
L 386.132727 107.237181 
L 389.683636 113.285171 
L 393.234545 102.759319 
L 396.785455 73.304326 
L 400.336364 73.653271 
L 403.887273 121.717494 
L 407.438182 80.777131 
L 410.989091 137.797077 
L 414.54 116.890759 
L 418.090909 69.030025 
L 421.641818 93.919946 
L 425.192727 108.545645 
L 428.743636 112.500106 
L 432.294545 90.837758 
L 435.845455 85.574832 
" clip-path="url(#p01eb32cc61)" style="fill: none; stroke: #1f77b4; stroke-width: 1.5; stroke-linecap: square"/>
   </g>
   <g id="line2d_28">
    <path d="M 80.754545 283.199429 
L 84.305455 288.98295 
L 87.856364 288.567382 
L 91.407273 276.998068 
L 94.958182 273.555967 
L 98.509091 274.260246 
L 102.06 295.154851 
L 105.610909 268.193266 
L 109.161818 292.513787 
L 112.712727 279.482957 
L 116.263636 286.323997 
L 119.814545 291.96547 
L 123.365455 281.708666 
L 126.916364 272.269864 
L 130.467273 288.554391 
L 134.018182 282.200972 
L 137.569091 280.850625 
L 141.12 283.571481 
L 144.670909 278.823258 
L 148.221818 287.247915 
L 151.772727 275.326354 
L 155.323636 296.967477 
L 158.874545 292.337167 
L 162.425455 280.606353 
L 165.976364 276.0383 
L 169.527273 277.594799 
L 173.078182 287.543086 
L 176.629091 269.463609 
L 180.18 288.106311 
L 183.730909 289.765459 
L 187.281818 293.399371 
L 190.832727 287.751509 
L 194.383636 286.153695 
L 197.934545 297.167452 
L 201.485455 295.231448 
L 205.036364 291.706858 
L 208.587273 292.269586 
L 212.138182 270.065097 
L 215.689091 279.983072 
L 219.24 283.141928 
L 222.790909 258.410666 
L 226.341818 278.4177 
L 229.892727 300.445924 
L 233.443636 295.471674 
L 236.994545 291.695784 
L 240.545455 294.008241 
L 244.096364 272.759544 
L 247.647273 290.567986 
L 251.198182 284.570931 
L 254.749091 297.219345 
L 258.3 261.582797 
L 261.850909 291.200283 
L 265.401818 288.466294 
L 268.952727 285.949532 
L 272.503636 281.270736 
L 276.054545 278.572242 
L 279.605455 298.19686 
L 283.156364 284.501433 
L 286.707273 288.671168 
L 290.258182 270.530996 
L 293.809091 279.49829 
L 297.36 294.99896 
L 300.910909 284.14294 
L 304.461818 268.074289 
L 308.012727 282.71628 
L 311.563636 280.679542 
L 315.114545 279.127232 
L 318.665455 271.15669 
L 322.216364 282.794864 
L 325.767273 290.963322 
L 329.318182 279.200492 
L 332.869091 281.493925 
L 336.42 289.216716 
L 339.970909 283.842303 
L 343.521818 264.754502 
L 347.072727 271.037145 
L 350.623636 286.071774 
L 354.174545 307.8 
L 357.725455 272.808952 
L 361.276364 279.925429 
L 364.827273 270.163842 
L 368.378182 285.318158 
L 371.929091 286.329179 
L 375.48 287.804822 
L 379.030909 281.046554 
L 382.581818 280.813285 
L 386.132727 286.999952 
L 389.683636 287.64893 
L 393.234545 271.632315 
L 396.785455 291.02132 
L 400.336364 284.69367 
L 403.887273 284.629638 
L 407.438182 288.075857 
L 410.989091 283.031185 
L 414.54 274.432393 
L 418.090909 286.980998 
L 421.641818 284.25787 
L 425.192727 283.194318 
L 428.743636 275.751719 
L 432.294545 274.472644 
" clip-path="url(#p01eb32cc61)" style="fill: none; stroke: #ff7f0e; stroke-width: 1.5; stroke-linecap: square"/>
   </g>
   <g id="line2d_29">
    <path d="M 80.754545 159.226795 
L 84.305455 159.226795 
L 87.856364 159.226795 
L 91.407273 159.226795 
L 94.958182 159.226795 
L 98.509091 159.226795 
L 102.06 159.226795 
L 105.610909 159.226795 
L 109.161818 159.226795 
L 112.712727 159.226795 
L 116.263636 159.226795 
L 119.814545 159.226795 
L 123.365455 159.226795 
L 126.916364 159.226795 
L 130.467273 159.226795 
L 134.018182 159.226795 
L 137.569091 159.226795 
L 141.12 159.226795 
L 144.670909 159.226795 
L 148.221818 159.226795 
L 151.772727 159.226795 
L 155.323636 159.226795 
L 158.874545 159.226795 
L 162.425455 159.226795 
L 165.976364 159.226795 
L 169.527273 159.226795 
L 173.078182 159.226795 
L 176.629091 159.226795 
L 180.18 159.226795 
L 183.730909 159.226795 
L 187.281818 159.226795 
L 190.832727 159.226795 
L 194.383636 159.226795 
L 197.934545 159.226795 
L 201.485455 159.226795 
L 205.036364 159.226795 
L 208.587273 159.226795 
L 212.138182 159.226795 
L 215.689091 159.226795 
L 219.24 159.226795 
L 222.790909 159.226795 
L 226.341818 159.226795 
L 229.892727 159.226795 
L 233.443636 159.226795 
L 236.994545 159.226795 
L 240.545455 159.226795 
L 244.096364 159.226795 
L 247.647273 159.226795 
L 251.198182 159.226795 
L 254.749091 159.226795 
L 258.3 159.226795 
L 261.850909 159.226795 
L 265.401818 159.226795 
L 268.952727 159.226795 
L 272.503636 159.226795 
L 276.054545 159.226795 
L 279.605455 159.226795 
L 283.156364 159.226795 
L 286.707273 159.226795 
L 290.258182 159.226795 
L 293.809091 159.226795 
L 297.36 159.226795 
L 300.910909 159.226795 
L 304.461818 159.226795 
L 308.012727 159.226795 
L 311.563636 159.226795 
L 315.114545 159.226795 
L 318.665455 159.226795 
L 322.216364 159.226795 
L 325.767273 159.226795 
L 329.318182 159.226795 
L 332.869091 159.226795 
L 336.42 159.226795 
L 339.970909 159.226795 
L 343.521818 159.226795 
L 347.072727 159.226795 
L 350.623636 159.226795 
L 354.174545 159.226795 
L 357.725455 159.226795 
L 361.276364 159.226795 
L 364.827273 159.226795 
L 368.378182 159.226795 
L 371.929091 159.226795 
L 375.48 159.226795 
L 379.030909 159.226795 
L 382.581818 159.226795 
L 386.132727 159.226795 
L 389.683636 159.226795 
L 393.234545 159.226795 
L 396.785455 159.226795 
L 400.336364 159.226795 
L 403.887273 159.226795 
L 407.438182 159.226795 
L 410.989091 159.226795 
L 414.54 159.226795 
L 418.090909 159.226795 
L 421.641818 159.226795 
L 425.192727 159.226795 
L 428.743636 159.226795 
L 432.294545 159.226795 
L 435.845455 159.226795 
" clip-path="url(#p01eb32cc61)" style="fill: none; stroke: #2ca02c; stroke-width: 1.5; stroke-linecap: square"/>
   </g>
   <g id="line2d_30">
    <path d="M 80.754545 159.226795 
L 84.305455 108.574714 
L 87.856364 100.142391 
L 91.407273 76.502794 
L 94.958182 76.502794 
L 98.509091 76.502794 
L 102.06 76.502794 
L 105.610909 76.502794 
L 109.161818 76.502794 
L 112.712727 76.502794 
L 116.263636 76.502794 
L 119.814545 76.502794 
L 123.365455 76.502794 
L 126.916364 76.502794 
L 130.467273 76.502794 
L 134.018182 76.502794 
L 137.569091 74.961735 
L 141.12 74.961735 
L 144.670909 74.961735 
L 148.221818 74.961735 
L 151.772727 74.961735 
L 155.323636 74.961735 
L 158.874545 74.961735 
L 162.425455 74.961735 
L 165.976364 74.961735 
L 169.527273 74.961735 
L 173.078182 74.961735 
L 176.629091 74.961735 
L 180.18 74.961735 
L 183.730909 74.961735 
L 187.281818 74.961735 
L 190.832727 74.961735 
L 194.383636 74.961735 
L 197.934545 74.961735 
L 201.485455 74.961735 
L 205.036364 74.961735 
L 208.587273 74.961735 
L 212.138182 74.961735 
L 215.689091 70.890959 
L 219.24 70.890959 
L 222.790909 70.890959 
L 226.341818 70.890959 
L 229.892727 70.890959 
L 233.443636 70.890959 
L 236.994545 70.890959 
L 240.545455 70.890959 
L 244.096364 70.890959 
L 247.647273 70.890959 
L 251.198182 70.890959 
L 254.749091 70.890959 
L 258.3 70.890959 
L 261.850909 70.890959 
L 265.401818 70.890959 
L 268.952727 70.890959 
L 272.503636 70.890959 
L 276.054545 70.890959 
L 279.605455 70.890959 
L 283.156364 70.890959 
L 286.707273 70.890959 
L 290.258182 70.890959 
L 293.809091 70.890959 
L 297.36 70.890959 
L 300.910909 70.890959 
L 304.461818 70.890959 
L 308.012727 70.890959 
L 311.563636 70.890959 
L 315.114545 70.890959 
L 318.665455 67.866946 
L 322.216364 67.866946 
L 325.767273 67.866946 
L 329.318182 67.866946 
L 332.869091 55.8 
L 336.42 55.8 
L 339.970909 55.8 
L 343.521818 55.8 
L 347.072727 55.8 
L 350.623636 55.8 
L 354.174545 55.8 
L 357.725455 55.8 
L 361.276364 55.8 
L 364.827273 55.8 
L 368.378182 55.8 
L 371.929091 55.8 
L 375.48 55.8 
L 379.030909 55.8 
L 382.581818 55.8 
L 386.132727 55.8 
L 389.683636 55.8 
L 393.234545 55.8 
L 396.785455 55.8 
L 400.336364 55.8 
L 403.887273 55.8 
L 407.438182 55.8 
L 410.989091 55.8 
L 414.54 55.8 
L 418.090909 55.8 
L 421.641818 55.8 
L 425.192727 55.8 
L 428.743636 55.8 
L 432.294545 55.8 
" clip-path="url(#p01eb32cc61)" style="fill: none; stroke: #d62728; stroke-width: 1.5; stroke-linecap: square"/>
   </g>
   <g id="patch_3">
    <path d="M 63 320.4 
L 63 43.2 
" style="fill: none; stroke: #000000; stroke-width: 0.8; stroke-linejoin: miter; stroke-linecap: square"/>
   </g>
   <g id="patch_4">
    <path d="M 453.6 320.4 
L 453.6 43.2 
" style="fill: none; stroke: #000000; stroke-width: 0.8; stroke-linejoin: miter; stroke-linecap: square"/>
   </g>
   <g id="patch_5">
    <path d="M 63 320.4 
L 453.6 320.4 
" style="fill: none; stroke: #000000; stroke-width: 0.8; stroke-linejoin: miter; stroke-linecap: square"/>
   </g>
   <g id="patch_6">
    <path d="M 63 43.2 
L 453.6 43.2 
" style="fill: none; stroke: #000000; stroke-width: 0.8; stroke-linejoin: miter; stroke-linecap: square"/>
   </g>
   <g id="text_16">
    <!-- Iterative permutation improvement -->
    <g transform="translate(131.737462 37.2) scale(0.18 -0.18)">
     <defs>
      <path id="CMR17-76" d="M 2502 2163 
C 2560 2304 2662 2560 3034 2560 
L 3034 2726 
C 2912 2726 2752 2726 2630 2726 
C 2496 2726 2285 2726 2157 2732 
L 2157 2566 
C 2317 2553 2406 2477 2406 2311 
C 2406 2253 2406 2240 2368 2151 
L 1664 377 
L 902 2286 
C 864 2369 864 2381 864 2407 
C 864 2560 1075 2560 1171 2560 
L 1171 2732 
C 1018 2726 736 2726 576 2726 
C 403 2726 205 2726 64 2732 
L 64 2560 
C 307 2560 442 2560 518 2362 
L 1446 44 
C 1485 -51 1491 -64 1549 -64 
C 1606 -64 1613 -51 1651 44 
L 2502 2163 
z
" transform="scale(0.015625)"/>
      <path id="CMR17-70" d="M 1408 -1063 
C 998 -1063 973 -1037 973 -789 
L 973 402 
C 1158 134 1427 -38 1766 -38 
C 2406 -38 3053 523 3053 1388 
C 3053 2191 2496 2802 1837 2802 
C 1453 2802 1139 2592 960 2338 
L 960 2802 
L 198 2732 
L 198 2567 
C 576 2567 634 2528 634 2223 
L 634 -789 
C 634 -1031 608 -1063 198 -1063 
L 198 -1228 
C 352 -1216 634 -1216 800 -1216 
C 966 -1216 1254 -1216 1408 -1228 
L 1408 -1063 
z
M 973 2012 
C 973 2102 973 2235 1222 2471 
C 1254 2497 1472 2688 1792 2688 
C 2259 2688 2643 2108 2643 1382 
C 2643 656 2234 64 1728 64 
C 1498 64 1248 172 1056 472 
C 973 612 973 650 973 752 
L 973 2012 
z
" transform="scale(0.015625)"/>
      <path id="CMR17-6d" d="M 4326 1933 
C 4326 2252 4269 2790 3507 2790 
C 3072 2790 2771 2496 2656 2151 
L 2650 2151 
C 2573 2676 2195 2790 1837 2790 
C 1331 2790 1069 2400 973 2144 
L 966 2144 
L 966 2790 
L 211 2720 
L 211 2554 
C 589 2554 646 2515 646 2208 
L 646 428 
C 646 184 621 153 211 153 
L 211 -13 
C 365 0 646 0 813 0 
C 979 0 1267 0 1421 -13 
L 1421 153 
C 1011 153 986 178 986 428 
L 986 1658 
C 986 2247 1344 2688 1792 2688 
C 2266 2688 2317 2266 2317 1958 
L 2317 428 
C 2317 184 2291 153 1882 153 
L 1882 -13 
C 2035 0 2317 0 2483 0 
C 2650 0 2938 0 3091 -13 
L 3091 153 
C 2682 153 2656 178 2656 428 
L 2656 1658 
C 2656 2247 3014 2688 3462 2688 
C 3936 2688 3987 2266 3987 1958 
L 3987 428 
C 3987 184 3962 153 3552 153 
L 3552 -13 
C 3706 0 3987 0 4154 0 
C 4320 0 4608 0 4762 -13 
L 4762 153 
C 4352 153 4326 178 4326 428 
L 4326 1933 
z
" transform="scale(0.015625)"/>
      <path id="CMR17-75" d="M 1882 2693 
L 1882 2528 
C 2259 2528 2317 2489 2317 2186 
L 2317 1032 
C 2317 500 2029 38 1555 38 
C 1030 38 986 348 986 678 
L 986 2763 
L 211 2693 
L 211 2528 
C 467 2528 640 2528 646 2274 
L 646 1058 
C 646 633 646 361 813 183 
C 896 101 1056 -64 1517 -64 
C 2061 -64 2272 377 2323 506 
L 2330 506 
L 2330 -63 
L 3091 -63 
L 3091 128 
C 2714 128 2656 166 2656 473 
L 2656 2763 
L 1882 2693 
z
" transform="scale(0.015625)"/>
     </defs>
     <use xlink:href="#CMR17-49" transform="scale(0.996264)"/>
     <use xlink:href="#CMR17-74" transform="translate(32.638409 0) scale(0.996264)"/>
     <use xlink:href="#CMR17-65" transform="translate(67.919177 0) scale(0.996264)"/>
     <use xlink:href="#CMR17-72" transform="translate(108.404837 0) scale(0.996264)"/>
     <use xlink:href="#CMR17-61" transform="translate(143.685605 0) scale(0.996264)"/>
     <use xlink:href="#CMR17-74" transform="translate(189.376082 0) scale(0.996264)"/>
     <use xlink:href="#CMR17-69" transform="translate(224.65685 0) scale(0.996264)"/>
     <use xlink:href="#CMR17-76" transform="translate(249.527909 0) scale(0.996264)"/>
     <use xlink:href="#CMR17-65" transform="translate(295.218371 0) scale(0.996264)"/>
     <use xlink:href="#CMR17-70" transform="translate(365.779997 0) scale(0.996264)"/>
     <use xlink:href="#CMR17-65" transform="translate(419.277806 0) scale(0.996264)"/>
     <use xlink:href="#CMR17-72" transform="translate(459.763466 0) scale(0.996264)"/>
     <use xlink:href="#CMR17-6d" transform="translate(495.044234 0) scale(0.996264)"/>
     <use xlink:href="#CMR17-75" transform="translate(569.36137 0) scale(0.996264)"/>
     <use xlink:href="#CMR17-74" transform="translate(620.25674 0) scale(0.996264)"/>
     <use xlink:href="#CMR17-61" transform="translate(655.537508 0) scale(0.996264)"/>
     <use xlink:href="#CMR17-74" transform="translate(701.227985 0) scale(0.996264)"/>
     <use xlink:href="#CMR17-69" transform="translate(736.508753 0) scale(0.996264)"/>
     <use xlink:href="#CMR17-6f" transform="translate(761.379811 0) scale(0.996264)"/>
     <use xlink:href="#CMR17-6e" transform="translate(807.070288 0) scale(0.996264)"/>
     <use xlink:href="#CMR17-69" transform="translate(888.041624 0) scale(0.996264)"/>
     <use xlink:href="#CMR17-6d" transform="translate(912.912683 0) scale(0.996264)"/>
     <use xlink:href="#CMR17-70" transform="translate(989.832273 0) scale(0.996264)"/>
     <use xlink:href="#CMR17-72" transform="translate(1040.727642 0) scale(0.996264)"/>
     <use xlink:href="#CMR17-6f" transform="translate(1076.00841 0) scale(0.996264)"/>
     <use xlink:href="#CMR17-76" transform="translate(1119.096433 0) scale(0.996264)"/>
     <use xlink:href="#CMR17-65" transform="translate(1164.786895 0) scale(0.996264)"/>
     <use xlink:href="#CMR17-6d" transform="translate(1205.272556 0) scale(0.996264)"/>
     <use xlink:href="#CMR17-65" transform="translate(1282.192146 0) scale(0.996264)"/>
     <use xlink:href="#CMR17-6e" transform="translate(1322.677806 0) scale(0.996264)"/>
     <use xlink:href="#CMR17-74" transform="translate(1370.970722 0) scale(0.996264)"/>
    </g>
   </g>
   <g id="legend_1">
    <g id="patch_7">
     <path d="M 247.073313 312.9 
L 443.1 312.9 
Q 446.1 312.9 446.1 309.9 
L 446.1 227.777021 
Q 446.1 224.777021 443.1 224.777021 
L 247.073313 224.777021 
Q 244.073313 224.777021 244.073313 227.777021 
L 244.073313 309.9 
Q 244.073313 312.9 247.073313 312.9 
z
" style="fill: #ffffff; opacity: 0.8; stroke: #cccccc; stroke-linejoin: miter"/>
    </g>
    <g id="line2d_31">
     <path d="M 250.073313 236.027021 
L 265.073313 236.027021 
L 280.073313 236.027021 
" style="fill: none; stroke: #1f77b4; stroke-width: 1.5; stroke-linecap: square"/>
    </g>
    <g id="text_17">
     <!-- Max of iteration score -->
     <g transform="translate(292.073313 241.277021) scale(0.15 -0.15)">
      <defs>
       <path id="CMR17-4d" d="M 1338 4224 
C 1299 4320 1293 4320 1158 4320 
L 339 4320 
L 339 4160 
C 781 4160 851 4160 851 3875 
L 851 610 
C 851 451 851 153 339 153 
L 339 -13 
C 486 0 755 0 915 0 
C 1075 0 1344 0 1491 -13 
L 1491 153 
C 979 153 979 451 979 610 
L 979 4135 
L 986 4135 
L 2490 89 
C 2515 25 2528 -13 2579 -13 
C 2630 -13 2643 25 2669 89 
L 4186 4166 
L 4192 4166 
L 4192 438 
C 4192 153 4122 153 3680 153 
L 3680 -13 
C 3853 0 4198 0 4384 0 
C 4570 0 4922 0 5094 -13 
L 5094 153 
C 4653 153 4582 153 4582 438 
L 4582 3875 
C 4582 4160 4653 4160 5094 4160 
L 5094 4320 
L 4282 4320 
C 4147 4320 4141 4314 4102 4218 
L 2720 502 
L 1338 4224 
z
" transform="scale(0.015625)"/>
       <path id="CMR17-78" d="M 1664 1477 
C 1856 1726 2074 2006 2253 2216 
C 2464 2458 2707 2560 2989 2560 
L 2989 2726 
C 2880 2726 2656 2726 2541 2726 
C 2368 2726 2170 2726 2022 2732 
L 2022 2566 
C 2112 2553 2163 2489 2163 2400 
C 2163 2285 2099 2215 2067 2171 
L 1594 1573 
L 1030 2306 
C 973 2376 973 2388 973 2420 
C 973 2497 1037 2560 1146 2560 
L 1146 2732 
C 992 2726 717 2726 557 2726 
C 384 2726 179 2726 38 2732 
L 38 2560 
C 384 2560 461 2534 614 2343 
L 1350 1395 
C 1363 1382 1395 1344 1395 1325 
C 1395 1299 838 619 768 530 
C 480 185 179 160 6 160 
L 6 0 
C 115 0 339 0 454 0 
C 582 0 864 0 979 -6 
L 979 160 
C 941 166 838 179 838 325 
C 838 440 890 510 947 586 
L 1478 1236 
L 2035 512 
C 2086 442 2163 346 2163 301 
C 2163 211 2086 160 1984 160 
L 1984 -6 
C 2138 0 2413 0 2573 0 
C 2746 0 2950 0 3091 -6 
L 3091 160 
C 2771 160 2675 172 2522 370 
L 1664 1477 
z
" transform="scale(0.015625)"/>
       <path id="CMR17-66" d="M 979 2560 
L 1709 2560 
L 1709 2725 
L 966 2725 
L 966 3494 
C 966 4022 1235 4352 1510 4352 
C 1594 4352 1690 4327 1754 4282 
C 1702 4269 1568 4225 1568 4067 
C 1568 3901 1696 3850 1786 3850 
C 1875 3850 2003 3901 2003 4067 
C 2003 4308 1773 4454 1517 4454 
C 1152 4454 653 4156 653 3481 
L 653 2725 
L 141 2725 
L 141 2560 
L 653 2560 
L 653 427 
C 653 184 627 153 218 153 
L 218 -13 
C 371 0 666 0 832 0 
C 1018 0 1344 0 1517 -13 
L 1517 153 
C 1056 153 979 153 979 439 
L 979 2560 
z
" transform="scale(0.015625)"/>
      </defs>
      <use xlink:href="#CMR17-4d" transform="scale(0.996264)"/>
      <use xlink:href="#CMR17-61" transform="translate(84.686941 0) scale(0.996264)"/>
      <use xlink:href="#CMR17-78" transform="translate(130.377418 0) scale(0.996264)"/>
      <use xlink:href="#CMR17-6f" transform="translate(208.7463 0) scale(0.996264)"/>
      <use xlink:href="#CMR17-66" transform="translate(254.436777 0) scale(0.996264)"/>
      <use xlink:href="#CMR17-69" transform="translate(311.986256 0) scale(0.996264)"/>
      <use xlink:href="#CMR17-74" transform="translate(336.857314 0) scale(0.996264)"/>
      <use xlink:href="#CMR17-65" transform="translate(372.138082 0) scale(0.996264)"/>
      <use xlink:href="#CMR17-72" transform="translate(412.623743 0) scale(0.996264)"/>
      <use xlink:href="#CMR17-61" transform="translate(447.90451 0) scale(0.996264)"/>
      <use xlink:href="#CMR17-74" transform="translate(493.594987 0) scale(0.996264)"/>
      <use xlink:href="#CMR17-69" transform="translate(528.875755 0) scale(0.996264)"/>
      <use xlink:href="#CMR17-6f" transform="translate(553.746814 0) scale(0.996264)"/>
      <use xlink:href="#CMR17-6e" transform="translate(599.437291 0) scale(0.996264)"/>
      <use xlink:href="#CMR17-73" transform="translate(680.408627 0) scale(0.996264)"/>
      <use xlink:href="#CMR17-63" transform="translate(716.209965 0) scale(0.996264)"/>
      <use xlink:href="#CMR17-6f" transform="translate(756.695625 0) scale(0.996264)"/>
      <use xlink:href="#CMR17-72" transform="translate(802.386102 0) scale(0.996264)"/>
      <use xlink:href="#CMR17-65" transform="translate(837.66687 0) scale(0.996264)"/>
     </g>
    </g>
    <g id="line2d_32">
     <path d="M 250.073313 256.932766 
L 265.073313 256.932766 
L 280.073313 256.932766 
" style="fill: none; stroke: #ff7f0e; stroke-width: 1.5; stroke-linecap: square"/>
    </g>
    <g id="text_18">
     <!-- Mean of iteration score -->
     <g transform="translate(292.073313 262.182766) scale(0.15 -0.15)">
      <use xlink:href="#CMR17-4d" transform="scale(0.996264)"/>
      <use xlink:href="#CMR17-65" transform="translate(84.686941 0) scale(0.996264)"/>
      <use xlink:href="#CMR17-61" transform="translate(125.172601 0) scale(0.996264)"/>
      <use xlink:href="#CMR17-6e" transform="translate(170.863078 0) scale(0.996264)"/>
      <use xlink:href="#CMR17-6f" transform="translate(251.834414 0) scale(0.996264)"/>
      <use xlink:href="#CMR17-66" transform="translate(297.524891 0) scale(0.996264)"/>
      <use xlink:href="#CMR17-69" transform="translate(355.07437 0) scale(0.996264)"/>
      <use xlink:href="#CMR17-74" transform="translate(379.945429 0) scale(0.996264)"/>
      <use xlink:href="#CMR17-65" transform="translate(415.226196 0) scale(0.996264)"/>
      <use xlink:href="#CMR17-72" transform="translate(455.711857 0) scale(0.996264)"/>
      <use xlink:href="#CMR17-61" transform="translate(490.992625 0) scale(0.996264)"/>
      <use xlink:href="#CMR17-74" transform="translate(536.683102 0) scale(0.996264)"/>
      <use xlink:href="#CMR17-69" transform="translate(571.96387 0) scale(0.996264)"/>
      <use xlink:href="#CMR17-6f" transform="translate(596.834928 0) scale(0.996264)"/>
      <use xlink:href="#CMR17-6e" transform="translate(642.525405 0) scale(0.996264)"/>
      <use xlink:href="#CMR17-73" transform="translate(723.496741 0) scale(0.996264)"/>
      <use xlink:href="#CMR17-63" transform="translate(759.298079 0) scale(0.996264)"/>
      <use xlink:href="#CMR17-6f" transform="translate(799.783739 0) scale(0.996264)"/>
      <use xlink:href="#CMR17-72" transform="translate(845.474217 0) scale(0.996264)"/>
      <use xlink:href="#CMR17-65" transform="translate(880.754984 0) scale(0.996264)"/>
     </g>
    </g>
    <g id="line2d_33">
     <path d="M 250.073313 277.838511 
L 265.073313 277.838511 
L 280.073313 277.838511 
" style="fill: none; stroke: #2ca02c; stroke-width: 1.5; stroke-linecap: square"/>
    </g>
    <g id="text_19">
     <!-- Original score -->
     <g transform="translate(292.073313 283.088511) scale(0.15 -0.15)">
      <defs>
       <path id="CMR17-4f" d="M 4307 2135 
C 4307 3437 3366 4416 2304 4416 
C 1216 4416 294 3424 294 2135 
C 294 845 1229 -128 2298 -128 
C 3392 -128 4307 864 4307 2135 
z
M 2304 -13 
C 1574 -13 781 711 781 2217 
C 781 3716 1651 4301 2298 4301 
C 2976 4301 3821 3698 3821 2217 
C 3821 686 3008 -13 2304 -13 
z
" transform="scale(0.015625)"/>
       <path id="CMR17-67" d="M 710 1164 
C 832 1068 1043 960 1299 960 
C 1805 960 2240 1357 2240 1888 
C 2240 2054 2189 2310 1997 2509 
C 2176 2692 2438 2752 2586 2752 
C 2611 2752 2650 2752 2682 2734 
C 2656 2728 2598 2703 2598 2605 
C 2598 2527 2656 2471 2739 2471 
C 2835 2471 2886 2533 2886 2614 
C 2886 2731 2790 2854 2586 2854 
C 2330 2854 2106 2738 1926 2580 
C 1734 2753 1504 2816 1299 2816 
C 794 2816 358 2419 358 1888 
C 358 1522 570 1292 634 1228 
C 442 1004 442 743 442 711 
C 442 545 506 302 723 168 
C 390 85 128 -169 128 -486 
C 128 -943 736 -1280 1466 -1280 
C 2170 -1280 2803 -956 2803 -479 
C 2803 384 1856 384 1363 384 
C 1216 384 954 384 922 391 
C 723 423 589 602 589 826 
C 589 883 589 1024 710 1164 
z
M 1299 1068 
C 736 1068 736 1760 736 1889 
C 736 2016 736 2708 1299 2708 
C 1862 2708 1862 2016 1862 1889 
C 1862 1760 1862 1068 1299 1068 
z
M 1466 -1171 
C 826 -1171 384 -835 384 -486 
C 384 -289 493 -105 634 -4 
C 794 104 858 104 1293 104 
C 1818 104 2547 104 2547 -486 
C 2547 -835 2106 -1171 1466 -1171 
z
" transform="scale(0.015625)"/>
      </defs>
      <use xlink:href="#CMR17-4f" transform="scale(0.996264)"/>
      <use xlink:href="#CMR17-72" transform="translate(71.714788 0) scale(0.996264)"/>
      <use xlink:href="#CMR17-69" transform="translate(106.995556 0) scale(0.996264)"/>
      <use xlink:href="#CMR17-67" transform="translate(131.866615 0) scale(0.996264)"/>
      <use xlink:href="#CMR17-69" transform="translate(177.557092 0) scale(0.996264)"/>
      <use xlink:href="#CMR17-6e" transform="translate(202.42815 0) scale(0.996264)"/>
      <use xlink:href="#CMR17-61" transform="translate(253.32352 0) scale(0.996264)"/>
      <use xlink:href="#CMR17-6c" transform="translate(299.013997 0) scale(0.996264)"/>
      <use xlink:href="#CMR17-73" transform="translate(353.961022 0) scale(0.996264)"/>
      <use xlink:href="#CMR17-63" transform="translate(389.76236 0) scale(0.996264)"/>
      <use xlink:href="#CMR17-6f" transform="translate(430.24802 0) scale(0.996264)"/>
      <use xlink:href="#CMR17-72" transform="translate(475.938497 0) scale(0.996264)"/>
      <use xlink:href="#CMR17-65" transform="translate(511.219265 0) scale(0.996264)"/>
     </g>
    </g>
    <g id="line2d_34">
     <path d="M 250.073313 298.744255 
L 265.073313 298.744255 
L 280.073313 298.744255 
" style="fill: none; stroke: #d62728; stroke-width: 1.5; stroke-linecap: square"/>
    </g>
    <g id="text_20">
     <!-- Best score overall -->
     <g transform="translate(292.073313 303.994255) scale(0.15 -0.15)">
      <defs>
       <path id="CMR17-42" d="M 333 4352 
L 333 4186 
C 774 4186 845 4186 845 3900 
L 845 452 
C 845 166 774 166 333 166 
L 333 0 
L 2534 0 
C 3354 0 3885 583 3885 1164 
C 3885 1741 3360 2233 2675 2233 
C 3290 2356 3718 2771 3718 3264 
C 3718 3802 3194 4352 2368 4352 
L 333 4352 
z
M 1248 2304 
L 1248 3937 
C 1248 4155 1261 4186 1517 4186 
L 2336 4186 
C 2970 4186 3251 3674 3251 3277 
C 3251 2791 2861 2304 2170 2304 
L 1248 2304 
z
M 1517 166 
C 1261 166 1248 197 1248 413 
L 1248 2202 
L 2432 2202 
C 3091 2202 3411 1625 3411 1162 
C 3411 699 3046 166 2349 166 
L 1517 166 
z
" transform="scale(0.015625)"/>
      </defs>
      <use xlink:href="#CMR17-42" transform="scale(0.996264)"/>
      <use xlink:href="#CMR17-65" transform="translate(65.188754 0) scale(0.996264)"/>
      <use xlink:href="#CMR17-73" transform="translate(105.674415 0) scale(0.996264)"/>
      <use xlink:href="#CMR17-74" transform="translate(141.475753 0) scale(0.996264)"/>
      <use xlink:href="#CMR17-73" transform="translate(206.832487 0) scale(0.996264)"/>
      <use xlink:href="#CMR17-63" transform="translate(242.633824 0) scale(0.996264)"/>
      <use xlink:href="#CMR17-6f" transform="translate(283.119485 0) scale(0.996264)"/>
      <use xlink:href="#CMR17-72" transform="translate(328.809962 0) scale(0.996264)"/>
      <use xlink:href="#CMR17-65" transform="translate(364.09073 0) scale(0.996264)"/>
      <use xlink:href="#CMR17-6f" transform="translate(434.652357 0) scale(0.996264)"/>
      <use xlink:href="#CMR17-76" transform="translate(477.74038 0) scale(0.996264)"/>
      <use xlink:href="#CMR17-65" transform="translate(523.430842 0) scale(0.996264)"/>
      <use xlink:href="#CMR17-72" transform="translate(563.916502 0) scale(0.996264)"/>
      <use xlink:href="#CMR17-61" transform="translate(599.19727 0) scale(0.996264)"/>
      <use xlink:href="#CMR17-6c" transform="translate(644.887747 0) scale(0.996264)"/>
      <use xlink:href="#CMR17-6c" transform="translate(669.758805 0) scale(0.996264)"/>
     </g>
    </g>
   </g>
  </g>
 </g>
 <defs>
  <clipPath id="p01eb32cc61">
   <rect x="63" y="43.2" width="390.6" height="277.2"/>
  </clipPath>
 </defs>
</svg>
