<?xml version="1.0" encoding="utf-8" standalone="no"?>
<!DOCTYPE svg PUBLIC "-//W3C//DTD SVG 1.1//EN"
  "http://www.w3.org/Graphics/SVG/1.1/DTD/svg11.dtd">
<svg xmlns:xlink="http://www.w3.org/1999/xlink" width="504pt" height="360pt" viewBox="0 0 504 360" xmlns="http://www.w3.org/2000/svg" version="1.1">
 <metadata>
  <rdf:RDF xmlns:dc="http://purl.org/dc/elements/1.1/" xmlns:cc="http://creativecommons.org/ns#" xmlns:rdf="http://www.w3.org/1999/02/22-rdf-syntax-ns#">
   <cc:Work>
    <dc:type rdf:resource="http://purl.org/dc/dcmitype/StillImage"/>
    <dc:date>2023-12-15T12:08:20.101818</dc:date>
    <dc:format>image/svg+xml</dc:format>
    <dc:creator>
     <cc:Agent>
      <dc:title>Matplotlib v3.7.1, https://matplotlib.org/</dc:title>
     </cc:Agent>
    </dc:creator>
   </cc:Work>
  </rdf:RDF>
 </metadata>
 <defs>
  <style type="text/css">*{stroke-linejoin: round; stroke-linecap: butt}</style>
 </defs>
 <g id="figure_1">
  <g id="patch_1">
   <path d="M 0 360 
L 504 360 
L 504 0 
L 0 0 
z
" style="fill: #ffffff"/>
  </g>
  <g id="axes_1">
   <g id="patch_2">
    <path d="M 63 320.4 
L 453.6 320.4 
L 453.6 43.2 
L 63 43.2 
z
" style="fill: #ffffff"/>
   </g>
   <g id="patch_3">
    <path d="M 80.754545 320.4 
L 94.960831 320.4 
L 94.960831 320.339776 
L 80.754545 320.339776 
z
" clip-path="url(#p74cf0ba124)" style="fill: #1f77b4; opacity: 0.8"/>
   </g>
   <g id="patch_4">
    <path d="M 94.960831 320.4 
L 109.167053 320.4 
L 109.167053 320.199254 
L 94.960831 320.199254 
z
" clip-path="url(#p74cf0ba124)" style="fill: #1f77b4; opacity: 0.8"/>
   </g>
   <g id="patch_5">
    <path d="M 109.167053 320.4 
L 123.373339 320.4 
L 123.373339 318.693666 
L 109.167053 318.693666 
z
" clip-path="url(#p74cf0ba124)" style="fill: #1f77b4; opacity: 0.8"/>
   </g>
   <g id="patch_6">
    <path d="M 123.373339 320.4 
L 137.579625 320.4 
L 137.579625 316.284724 
L 123.373339 316.284724 
z
" clip-path="url(#p74cf0ba124)" style="fill: #1f77b4; opacity: 0.8"/>
   </g>
   <g id="patch_7">
    <path d="M 137.579625 320.4 
L 151.785847 320.4 
L 151.785847 310.764187 
L 137.579625 310.764187 
z
" clip-path="url(#p74cf0ba124)" style="fill: #1f77b4; opacity: 0.8"/>
   </g>
   <g id="patch_8">
    <path d="M 151.785847 320.4 
L 165.992132 320.4 
L 165.992132 302.714349 
L 151.785847 302.714349 
z
" clip-path="url(#p74cf0ba124)" style="fill: #1f77b4; opacity: 0.8"/>
   </g>
   <g id="patch_9">
    <path d="M 165.992132 320.4 
L 180.198418 320.4 
L 180.198418 282.659904 
L 165.992132 282.659904 
z
" clip-path="url(#p74cf0ba124)" style="fill: #1f77b4; opacity: 0.8"/>
   </g>
   <g id="patch_10">
    <path d="M 180.198418 320.4 
L 194.40464 320.4 
L 194.40464 257.90774 
L 180.198418 257.90774 
z
" clip-path="url(#p74cf0ba124)" style="fill: #1f77b4; opacity: 0.8"/>
   </g>
   <g id="patch_11">
    <path d="M 194.40464 320.4 
L 208.610926 320.4 
L 208.610926 218.662337 
L 194.40464 218.662337 
z
" clip-path="url(#p74cf0ba124)" style="fill: #1f77b4; opacity: 0.8"/>
   </g>
   <g id="patch_12">
    <path d="M 208.610926 320.4 
L 222.817148 320.4 
L 222.817148 183.972953 
L 208.610926 183.972953 
z
" clip-path="url(#p74cf0ba124)" style="fill: #1f77b4; opacity: 0.8"/>
   </g>
   <g id="patch_13">
    <path d="M 222.817148 320.4 
L 237.023433 320.4 
L 237.023433 131.579074 
L 222.817148 131.579074 
z
" clip-path="url(#p74cf0ba124)" style="fill: #1f77b4; opacity: 0.8"/>
   </g>
   <g id="patch_14">
    <path d="M 237.023433 320.4 
L 251.229719 320.4 
L 251.229719 83.801719 
L 237.023433 83.801719 
z
" clip-path="url(#p74cf0ba124)" style="fill: #1f77b4; opacity: 0.8"/>
   </g>
   <g id="patch_15">
    <path d="M 251.229719 320.4 
L 265.435941 320.4 
L 265.435941 73.984166 
L 251.229719 73.984166 
z
" clip-path="url(#p74cf0ba124)" style="fill: #1f77b4; opacity: 0.8"/>
   </g>
   <g id="patch_16">
    <path d="M 265.435941 320.4 
L 279.642227 320.4 
L 279.642227 56.4 
L 265.435941 56.4 
z
" clip-path="url(#p74cf0ba124)" style="fill: #1f77b4; opacity: 0.8"/>
   </g>
   <g id="patch_17">
    <path d="M 279.642227 320.4 
L 293.848513 320.4 
L 293.848513 83.861942 
L 279.642227 83.861942 
z
" clip-path="url(#p74cf0ba124)" style="fill: #1f77b4; opacity: 0.8"/>
   </g>
   <g id="patch_18">
    <path d="M 293.848513 320.4 
L 308.054767 320.4 
L 308.054767 122.765914 
L 293.848513 122.765914 
z
" clip-path="url(#p74cf0ba124)" style="fill: #1f77b4; opacity: 0.8"/>
   </g>
   <g id="patch_19">
    <path d="M 308.054767 320.4 
L 322.26102 320.4 
L 322.26102 174.397693 
L 308.054767 174.397693 
z
" clip-path="url(#p74cf0ba124)" style="fill: #1f77b4; opacity: 0.8"/>
   </g>
   <g id="patch_20">
    <path d="M 322.26102 320.4 
L 336.467274 320.4 
L 336.467274 249.978428 
L 322.26102 249.978428 
z
" clip-path="url(#p74cf0ba124)" style="fill: #1f77b4; opacity: 0.8"/>
   </g>
   <g id="patch_21">
    <path d="M 336.467274 320.4 
L 350.67356 320.4 
L 350.67356 282.218265 
L 336.467274 282.218265 
z
" clip-path="url(#p74cf0ba124)" style="fill: #1f77b4; opacity: 0.8"/>
   </g>
   <g id="patch_22">
    <path d="M 350.67356 320.4 
L 364.879814 320.4 
L 364.879814 309.35899 
L 350.67356 309.35899 
z
" clip-path="url(#p74cf0ba124)" style="fill: #1f77b4; opacity: 0.8"/>
   </g>
   <g id="patch_23">
    <path d="M 133.650458 320.4 
L 148.280907 320.4 
L 148.280907 318.935498 
L 133.650458 318.935498 
z
" clip-path="url(#p74cf0ba124)" style="fill: #ff7f0e; opacity: 0.2"/>
   </g>
   <g id="patch_24">
    <path d="M 148.280907 320.4 
L 162.911292 320.4 
L 162.911292 311.479812 
L 148.280907 311.479812 
z
" clip-path="url(#p74cf0ba124)" style="fill: #ff7f0e; opacity: 0.2"/>
   </g>
   <g id="patch_25">
    <path d="M 162.911292 320.4 
L 177.541741 320.4 
L 177.541741 298.565605 
L 162.911292 298.565605 
z
" clip-path="url(#p74cf0ba124)" style="fill: #ff7f0e; opacity: 0.2"/>
   </g>
   <g id="patch_26">
    <path d="M 177.541741 320.4 
L 192.17219 320.4 
L 192.17219 284.985677 
L 177.541741 284.985677 
z
" clip-path="url(#p74cf0ba124)" style="fill: #ff7f0e; opacity: 0.2"/>
   </g>
   <g id="patch_27">
    <path d="M 192.17219 320.4 
L 206.802574 320.4 
L 206.802574 255.695352 
L 192.17219 255.695352 
z
" clip-path="url(#p74cf0ba124)" style="fill: #ff7f0e; opacity: 0.2"/>
   </g>
   <g id="patch_28">
    <path d="M 206.802574 320.4 
L 221.433023 320.4 
L 221.433023 218.550537 
L 206.802574 218.550537 
z
" clip-path="url(#p74cf0ba124)" style="fill: #ff7f0e; opacity: 0.2"/>
   </g>
   <g id="patch_29">
    <path d="M 221.433023 320.4 
L 236.063472 320.4 
L 236.063472 178.476435 
L 221.433023 178.476435 
z
" clip-path="url(#p74cf0ba124)" style="fill: #ff7f0e; opacity: 0.2"/>
   </g>
   <g id="patch_30">
    <path d="M 236.063472 320.4 
L 250.693921 320.4 
L 250.693921 144.526614 
L 236.063472 144.526614 
z
" clip-path="url(#p74cf0ba124)" style="fill: #ff7f0e; opacity: 0.2"/>
   </g>
   <g id="patch_31">
    <path d="M 250.693921 320.4 
L 265.324306 320.4 
L 265.324306 114.170576 
L 250.693921 114.170576 
z
" clip-path="url(#p74cf0ba124)" style="fill: #ff7f0e; opacity: 0.2"/>
   </g>
   <g id="patch_32">
    <path d="M 265.324306 320.4 
L 279.954755 320.4 
L 279.954755 89.674354 
L 265.324306 89.674354 
z
" clip-path="url(#p74cf0ba124)" style="fill: #ff7f0e; opacity: 0.2"/>
   </g>
   <g id="patch_33">
    <path d="M 279.954755 320.4 
L 294.585171 320.4 
L 294.585171 92.869133 
L 279.954755 92.869133 
z
" clip-path="url(#p74cf0ba124)" style="fill: #ff7f0e; opacity: 0.2"/>
   </g>
   <g id="patch_34">
    <path d="M 294.585171 320.4 
L 309.21562 320.4 
L 309.21562 117.23362 
L 294.585171 117.23362 
z
" clip-path="url(#p74cf0ba124)" style="fill: #ff7f0e; opacity: 0.2"/>
   </g>
   <g id="patch_35">
    <path d="M 309.21562 320.4 
L 323.846037 320.4 
L 323.846037 148.919744 
L 309.21562 148.919744 
z
" clip-path="url(#p74cf0ba124)" style="fill: #ff7f0e; opacity: 0.2"/>
   </g>
   <g id="patch_36">
    <path d="M 323.846037 320.4 
L 338.476486 320.4 
L 338.476486 175.148021 
L 323.846037 175.148021 
z
" clip-path="url(#p74cf0ba124)" style="fill: #ff7f0e; opacity: 0.2"/>
   </g>
   <g id="patch_37">
    <path d="M 338.476486 320.4 
L 353.106903 320.4 
L 353.106903 227.736756 
L 338.476486 227.736756 
z
" clip-path="url(#p74cf0ba124)" style="fill: #ff7f0e; opacity: 0.2"/>
   </g>
   <g id="patch_38">
    <path d="M 353.106903 320.4 
L 367.737319 320.4 
L 367.737319 261.287241 
L 353.106903 261.287241 
z
" clip-path="url(#p74cf0ba124)" style="fill: #ff7f0e; opacity: 0.2"/>
   </g>
   <g id="patch_39">
    <path d="M 367.737319 320.4 
L 382.367768 320.4 
L 382.367768 282.056673 
L 367.737319 282.056673 
z
" clip-path="url(#p74cf0ba124)" style="fill: #ff7f0e; opacity: 0.2"/>
   </g>
   <g id="patch_40">
    <path d="M 382.367768 320.4 
L 396.998185 320.4 
L 396.998185 305.089263 
L 382.367768 305.089263 
z
" clip-path="url(#p74cf0ba124)" style="fill: #ff7f0e; opacity: 0.2"/>
   </g>
   <g id="patch_41">
    <path d="M 396.998185 320.4 
L 411.628634 320.4 
L 411.628634 314.408855 
L 396.998185 314.408855 
z
" clip-path="url(#p74cf0ba124)" style="fill: #ff7f0e; opacity: 0.2"/>
   </g>
   <g id="patch_42">
    <path d="M 411.628634 320.4 
L 426.259051 320.4 
L 426.259051 318.935495 
L 411.628634 318.935495 
z
" clip-path="url(#p74cf0ba124)" style="fill: #ff7f0e; opacity: 0.2"/>
   </g>
   <g id="patch_43">
    <path d="M 137.642656 320.4 
L 151.594188 320.4 
L 151.594188 319.003847 
L 137.642656 319.003847 
z
" clip-path="url(#p74cf0ba124)" style="fill: #2ca02c; opacity: 0.2"/>
   </g>
   <g id="patch_44">
    <path d="M 151.594188 320.4 
L 165.545655 320.4 
L 165.545655 316.490753 
L 151.594188 316.490753 
z
" clip-path="url(#p74cf0ba124)" style="fill: #2ca02c; opacity: 0.2"/>
   </g>
   <g id="patch_45">
    <path d="M 165.545655 320.4 
L 179.497123 320.4 
L 179.497123 309.370339 
L 165.545655 309.370339 
z
" clip-path="url(#p74cf0ba124)" style="fill: #2ca02c; opacity: 0.2"/>
   </g>
   <g id="patch_46">
    <path d="M 179.497123 320.4 
L 193.448654 320.4 
L 193.448654 286.333862 
L 179.497123 286.333862 
z
" clip-path="url(#p74cf0ba124)" style="fill: #2ca02c; opacity: 0.2"/>
   </g>
   <g id="patch_47">
    <path d="M 193.448654 320.4 
L 207.400186 320.4 
L 207.400186 265.391565 
L 193.448654 265.391565 
z
" clip-path="url(#p74cf0ba124)" style="fill: #2ca02c; opacity: 0.2"/>
   </g>
   <g id="patch_48">
    <path d="M 207.400186 320.4 
L 221.351653 320.4 
L 221.351653 230.766554 
L 207.400186 230.766554 
z
" clip-path="url(#p74cf0ba124)" style="fill: #2ca02c; opacity: 0.2"/>
   </g>
   <g id="patch_49">
    <path d="M 221.351653 320.4 
L 235.303121 320.4 
L 235.303121 194.047556 
L 221.351653 194.047556 
z
" clip-path="url(#p74cf0ba124)" style="fill: #2ca02c; opacity: 0.2"/>
   </g>
   <g id="patch_50">
    <path d="M 235.303121 320.4 
L 249.254652 320.4 
L 249.254652 150.627773 
L 235.303121 150.627773 
z
" clip-path="url(#p74cf0ba124)" style="fill: #2ca02c; opacity: 0.2"/>
   </g>
   <g id="patch_51">
    <path d="M 249.254652 320.4 
L 263.206184 320.4 
L 263.206184 115.723943 
L 249.254652 115.723943 
z
" clip-path="url(#p74cf0ba124)" style="fill: #2ca02c; opacity: 0.2"/>
   </g>
   <g id="patch_52">
    <path d="M 263.206184 320.4 
L 277.157651 320.4 
L 277.157651 80.260549 
L 263.206184 80.260549 
z
" clip-path="url(#p74cf0ba124)" style="fill: #2ca02c; opacity: 0.2"/>
   </g>
   <g id="patch_53">
    <path d="M 277.157651 320.4 
L 291.109151 320.4 
L 291.109151 95.199974 
L 277.157651 95.199974 
z
" clip-path="url(#p74cf0ba124)" style="fill: #2ca02c; opacity: 0.2"/>
   </g>
   <g id="patch_54">
    <path d="M 291.109151 320.4 
L 305.06065 320.4 
L 305.06065 87.800345 
L 291.109151 87.800345 
z
" clip-path="url(#p74cf0ba124)" style="fill: #2ca02c; opacity: 0.2"/>
   </g>
   <g id="patch_55">
    <path d="M 305.06065 320.4 
L 319.01215 320.4 
L 319.01215 113.90847 
L 305.06065 113.90847 
z
" clip-path="url(#p74cf0ba124)" style="fill: #2ca02c; opacity: 0.2"/>
   </g>
   <g id="patch_56">
    <path d="M 319.01215 320.4 
L 332.963649 320.4 
L 332.963649 157.608165 
L 319.01215 157.608165 
z
" clip-path="url(#p74cf0ba124)" style="fill: #2ca02c; opacity: 0.2"/>
   </g>
   <g id="patch_57">
    <path d="M 332.963649 320.4 
L 346.915149 320.4 
L 346.915149 201.30786 
L 332.963649 201.30786 
z
" clip-path="url(#p74cf0ba124)" style="fill: #2ca02c; opacity: 0.2"/>
   </g>
   <g id="patch_58">
    <path d="M 346.915149 320.4 
L 360.866648 320.4 
L 360.866648 238.026773 
L 346.915149 238.026773 
z
" clip-path="url(#p74cf0ba124)" style="fill: #2ca02c; opacity: 0.2"/>
   </g>
   <g id="patch_59">
    <path d="M 360.866648 320.4 
L 374.818148 320.4 
L 374.818148 275.58338 
L 360.866648 275.58338 
z
" clip-path="url(#p74cf0ba124)" style="fill: #2ca02c; opacity: 0.2"/>
   </g>
   <g id="patch_60">
    <path d="M 374.818148 320.4 
L 388.769648 320.4 
L 388.769648 297.084188 
L 374.818148 297.084188 
z
" clip-path="url(#p74cf0ba124)" style="fill: #2ca02c; opacity: 0.2"/>
   </g>
   <g id="patch_61">
    <path d="M 388.769648 320.4 
L 402.721147 320.4 
L 402.721147 311.604215 
L 388.769648 311.604215 
z
" clip-path="url(#p74cf0ba124)" style="fill: #2ca02c; opacity: 0.2"/>
   </g>
   <g id="patch_62">
    <path d="M 402.721147 320.4 
L 416.672647 320.4 
L 416.672647 317.747303 
L 402.721147 317.747303 
z
" clip-path="url(#p74cf0ba124)" style="fill: #2ca02c; opacity: 0.2"/>
   </g>
   <g id="patch_63">
    <path d="M 146.835098 320.4 
L 159.999989 320.4 
L 159.999989 319.216338 
L 146.835098 319.216338 
z
" clip-path="url(#p74cf0ba124)" style="fill: #d62728; opacity: 0.2"/>
   </g>
   <g id="patch_64">
    <path d="M 159.999989 320.4 
L 173.164879 320.4 
L 173.164879 316.109225 
L 159.999989 316.109225 
z
" clip-path="url(#p74cf0ba124)" style="fill: #d62728; opacity: 0.2"/>
   </g>
   <g id="patch_65">
    <path d="M 173.164879 320.4 
L 186.329769 320.4 
L 186.329769 310.782746 
L 173.164879 310.782746 
z
" clip-path="url(#p74cf0ba124)" style="fill: #d62728; opacity: 0.2"/>
   </g>
   <g id="patch_66">
    <path d="M 186.329769 320.4 
L 199.49466 320.4 
L 199.49466 295.543098 
L 186.329769 295.543098 
z
" clip-path="url(#p74cf0ba124)" style="fill: #d62728; opacity: 0.2"/>
   </g>
   <g id="patch_67">
    <path d="M 199.49466 320.4 
L 212.65955 320.4 
L 212.65955 268.614789 
L 199.49466 268.614789 
z
" clip-path="url(#p74cf0ba124)" style="fill: #d62728; opacity: 0.2"/>
   </g>
   <g id="patch_68">
    <path d="M 212.65955 320.4 
L 225.824441 320.4 
L 225.824441 240.354859 
L 212.65955 240.354859 
z
" clip-path="url(#p74cf0ba124)" style="fill: #d62728; opacity: 0.2"/>
   </g>
   <g id="patch_69">
    <path d="M 225.824441 320.4 
L 238.989331 320.4 
L 238.989331 209.727605 
L 225.824441 209.727605 
z
" clip-path="url(#p74cf0ba124)" style="fill: #d62728; opacity: 0.2"/>
   </g>
   <g id="patch_70">
    <path d="M 238.989331 320.4 
L 252.154221 320.4 
L 252.154221 156.758732 
L 238.989331 156.758732 
z
" clip-path="url(#p74cf0ba124)" style="fill: #d62728; opacity: 0.2"/>
   </g>
   <g id="patch_71">
    <path d="M 252.154221 320.4 
L 265.319112 320.4 
L 265.319112 112.22345 
L 252.154221 112.22345 
z
" clip-path="url(#p74cf0ba124)" style="fill: #d62728; opacity: 0.2"/>
   </g>
   <g id="patch_72">
    <path d="M 265.319112 320.4 
L 278.484002 320.4 
L 278.484002 75.529928 
L 265.319112 75.529928 
z
" clip-path="url(#p74cf0ba124)" style="fill: #d62728; opacity: 0.2"/>
   </g>
   <g id="patch_73">
    <path d="M 278.484002 320.4 
L 291.648861 320.4 
L 291.648861 65.912055 
L 278.484002 65.912055 
z
" clip-path="url(#p74cf0ba124)" style="fill: #d62728; opacity: 0.2"/>
   </g>
   <g id="patch_74">
    <path d="M 291.648861 320.4 
L 304.813751 320.4 
L 304.813751 70.20345 
L 291.648861 70.20345 
z
" clip-path="url(#p74cf0ba124)" style="fill: #d62728; opacity: 0.2"/>
   </g>
   <g id="patch_75">
    <path d="M 304.813751 320.4 
L 317.978641 320.4 
L 317.978641 83.96352 
L 304.813751 83.96352 
z
" clip-path="url(#p74cf0ba124)" style="fill: #d62728; opacity: 0.2"/>
   </g>
   <g id="patch_76">
    <path d="M 317.978641 320.4 
L 331.143532 320.4 
L 331.143532 126.871267 
L 317.978641 126.871267 
z
" clip-path="url(#p74cf0ba124)" style="fill: #d62728; opacity: 0.2"/>
   </g>
   <g id="patch_77">
    <path d="M 331.143532 320.4 
L 344.308422 320.4 
L 344.308422 182.355422 
L 331.143532 182.355422 
z
" clip-path="url(#p74cf0ba124)" style="fill: #d62728; opacity: 0.2"/>
   </g>
   <g id="patch_78">
    <path d="M 344.308422 320.4 
L 357.473313 320.4 
L 357.473313 222.895845 
L 344.308422 222.895845 
z
" clip-path="url(#p74cf0ba124)" style="fill: #d62728; opacity: 0.2"/>
   </g>
   <g id="patch_79">
    <path d="M 357.473313 320.4 
L 370.638203 320.4 
L 370.638203 264.324014 
L 357.473313 264.324014 
z
" clip-path="url(#p74cf0ba124)" style="fill: #d62728; opacity: 0.2"/>
   </g>
   <g id="patch_80">
    <path d="M 370.638203 320.4 
L 383.803093 320.4 
L 383.803093 290.660493 
L 370.638203 290.660493 
z
" clip-path="url(#p74cf0ba124)" style="fill: #d62728; opacity: 0.2"/>
   </g>
   <g id="patch_81">
    <path d="M 383.803093 320.4 
L 396.967984 320.4 
L 396.967984 311.078662 
L 383.803093 311.078662 
z
" clip-path="url(#p74cf0ba124)" style="fill: #d62728; opacity: 0.2"/>
   </g>
   <g id="patch_82">
    <path d="M 396.967984 320.4 
L 410.132874 320.4 
L 410.132874 318.624507 
L 396.967984 318.624507 
z
" clip-path="url(#p74cf0ba124)" style="fill: #d62728; opacity: 0.2"/>
   </g>
   <g id="patch_83">
    <path d="M 153.61119 320.4 
L 167.277702 320.4 
L 167.277702 318.689676 
L 153.61119 318.689676 
z
" clip-path="url(#p74cf0ba124)" style="fill: #9467bd; opacity: 0.2"/>
   </g>
   <g id="patch_84">
    <path d="M 167.277702 320.4 
L 180.944278 320.4 
L 180.944278 312.988629 
L 167.277702 312.988629 
z
" clip-path="url(#p74cf0ba124)" style="fill: #9467bd; opacity: 0.2"/>
   </g>
   <g id="patch_85">
    <path d="M 180.944278 320.4 
L 194.61079 320.4 
L 194.61079 301.158849 
L 180.944278 301.158849 
z
" clip-path="url(#p74cf0ba124)" style="fill: #9467bd; opacity: 0.2"/>
   </g>
   <g id="patch_86">
    <path d="M 194.61079 320.4 
L 208.277366 320.4 
L 208.277366 276.501877 
L 194.61079 276.501877 
z
" clip-path="url(#p74cf0ba124)" style="fill: #9467bd; opacity: 0.2"/>
   </g>
   <g id="patch_87">
    <path d="M 208.277366 320.4 
L 221.943878 320.4 
L 221.943878 233.601032 
L 208.277366 233.601032 
z
" clip-path="url(#p74cf0ba124)" style="fill: #9467bd; opacity: 0.2"/>
   </g>
   <g id="patch_88">
    <path d="M 221.943878 320.4 
L 235.61039 320.4 
L 235.61039 198.681907 
L 221.943878 198.681907 
z
" clip-path="url(#p74cf0ba124)" style="fill: #9467bd; opacity: 0.2"/>
   </g>
   <g id="patch_89">
    <path d="M 235.61039 320.4 
L 249.276967 320.4 
L 249.276967 152.503933 
L 235.61039 152.503933 
z
" clip-path="url(#p74cf0ba124)" style="fill: #9467bd; opacity: 0.2"/>
   </g>
   <g id="patch_90">
    <path d="M 249.276967 320.4 
L 262.943479 320.4 
L 262.943479 97.487707 
L 249.276967 97.487707 
z
" clip-path="url(#p74cf0ba124)" style="fill: #9467bd; opacity: 0.2"/>
   </g>
   <g id="patch_91">
    <path d="M 262.943479 320.4 
L 276.609991 320.4 
L 276.609991 73.970745 
L 262.943479 73.970745 
z
" clip-path="url(#p74cf0ba124)" style="fill: #9467bd; opacity: 0.2"/>
   </g>
   <g id="patch_92">
    <path d="M 276.609991 320.4 
L 290.276567 320.4 
L 290.276567 79.958009 
L 276.609991 79.958009 
z
" clip-path="url(#p74cf0ba124)" style="fill: #9467bd; opacity: 0.2"/>
   </g>
   <g id="patch_93">
    <path d="M 290.276567 320.4 
L 303.943079 320.4 
L 303.943079 67.842083 
L 290.276567 67.842083 
z
" clip-path="url(#p74cf0ba124)" style="fill: #9467bd; opacity: 0.2"/>
   </g>
   <g id="patch_94">
    <path d="M 303.943079 320.4 
L 317.609623 320.4 
L 317.609623 101.336451 
L 303.943079 101.336451 
z
" clip-path="url(#p74cf0ba124)" style="fill: #9467bd; opacity: 0.2"/>
   </g>
   <g id="patch_95">
    <path d="M 317.609623 320.4 
L 331.276167 320.4 
L 331.276167 153.786279 
L 317.609623 153.786279 
z
" clip-path="url(#p74cf0ba124)" style="fill: #9467bd; opacity: 0.2"/>
   </g>
   <g id="patch_96">
    <path d="M 331.276167 320.4 
L 344.942679 320.4 
L 344.942679 198.681907 
L 331.276167 198.681907 
z
" clip-path="url(#p74cf0ba124)" style="fill: #9467bd; opacity: 0.2"/>
   </g>
   <g id="patch_97">
    <path d="M 344.942679 320.4 
L 358.609223 320.4 
L 358.609223 234.741449 
L 344.942679 234.741449 
z
" clip-path="url(#p74cf0ba124)" style="fill: #9467bd; opacity: 0.2"/>
   </g>
   <g id="patch_98">
    <path d="M 358.609223 320.4 
L 372.275767 320.4 
L 372.275767 273.936293 
L 358.609223 273.936293 
z
" clip-path="url(#p74cf0ba124)" style="fill: #9467bd; opacity: 0.2"/>
   </g>
   <g id="patch_99">
    <path d="M 372.275767 320.4 
L 385.942311 320.4 
L 385.942311 296.740567 
L 372.275767 296.740567 
z
" clip-path="url(#p74cf0ba124)" style="fill: #9467bd; opacity: 0.2"/>
   </g>
   <g id="patch_100">
    <path d="M 385.942311 320.4 
L 399.608855 320.4 
L 399.608855 311.420817 
L 385.942311 311.420817 
z
" clip-path="url(#p74cf0ba124)" style="fill: #9467bd; opacity: 0.2"/>
   </g>
   <g id="patch_101">
    <path d="M 399.608855 320.4 
L 413.275367 320.4 
L 413.275367 317.549459 
L 399.608855 317.549459 
z
" clip-path="url(#p74cf0ba124)" style="fill: #9467bd; opacity: 0.2"/>
   </g>
   <g id="patch_102">
    <path d="M 413.275367 320.4 
L 426.941911 320.4 
L 426.941911 319.687366 
L 413.275367 319.687366 
z
" clip-path="url(#p74cf0ba124)" style="fill: #9467bd; opacity: 0.2"/>
   </g>
   <g id="patch_103">
    <path d="M 147.412896 320.4 
L 161.834502 320.4 
L 161.834502 319.319484 
L 147.412896 319.319484 
z
" clip-path="url(#p74cf0ba124)" style="fill: #8c564b; opacity: 0.2"/>
   </g>
   <g id="patch_104">
    <path d="M 161.834502 320.4 
L 176.256171 320.4 
L 176.256171 315.807826 
L 161.834502 315.807826 
z
" clip-path="url(#p74cf0ba124)" style="fill: #8c564b; opacity: 0.2"/>
   </g>
   <g id="patch_105">
    <path d="M 176.256171 320.4 
L 190.677777 320.4 
L 190.677777 309.054579 
L 176.256171 309.054579 
z
" clip-path="url(#p74cf0ba124)" style="fill: #8c564b; opacity: 0.2"/>
   </g>
   <g id="patch_106">
    <path d="M 190.677777 320.4 
L 205.099382 320.4 
L 205.099382 289.335156 
L 190.677777 289.335156 
z
" clip-path="url(#p74cf0ba124)" style="fill: #8c564b; opacity: 0.2"/>
   </g>
   <g id="patch_107">
    <path d="M 205.099382 320.4 
L 219.521052 320.4 
L 219.521052 262.862761 
L 205.099382 262.862761 
z
" clip-path="url(#p74cf0ba124)" style="fill: #8c564b; opacity: 0.2"/>
   </g>
   <g id="patch_108">
    <path d="M 219.521052 320.4 
L 233.942657 320.4 
L 233.942657 225.854821 
L 219.521052 225.854821 
z
" clip-path="url(#p74cf0ba124)" style="fill: #8c564b; opacity: 0.2"/>
   </g>
   <g id="patch_109">
    <path d="M 233.942657 320.4 
L 248.364263 320.4 
L 248.364263 181.283523 
L 233.942657 181.283523 
z
" clip-path="url(#p74cf0ba124)" style="fill: #8c564b; opacity: 0.2"/>
   </g>
   <g id="patch_110">
    <path d="M 248.364263 320.4 
L 262.785932 320.4 
L 262.785932 138.874064 
L 248.364263 138.874064 
z
" clip-path="url(#p74cf0ba124)" style="fill: #8c564b; opacity: 0.2"/>
   </g>
   <g id="patch_111">
    <path d="M 262.785932 320.4 
L 277.207538 320.4 
L 277.207538 88.899377 
L 262.785932 88.899377 
z
" clip-path="url(#p74cf0ba124)" style="fill: #8c564b; opacity: 0.2"/>
   </g>
   <g id="patch_112">
    <path d="M 277.207538 320.4 
L 291.629175 320.4 
L 291.629175 76.879174 
L 277.207538 76.879174 
z
" clip-path="url(#p74cf0ba124)" style="fill: #8c564b; opacity: 0.2"/>
   </g>
   <g id="patch_113">
    <path d="M 291.629175 320.4 
L 306.050813 320.4 
L 306.050813 80.931101 
L 291.629175 80.931101 
z
" clip-path="url(#p74cf0ba124)" style="fill: #8c564b; opacity: 0.2"/>
   </g>
   <g id="patch_114">
    <path d="M 306.050813 320.4 
L 320.472418 320.4 
L 320.472418 94.031829 
L 306.050813 94.031829 
z
" clip-path="url(#p74cf0ba124)" style="fill: #8c564b; opacity: 0.2"/>
   </g>
   <g id="patch_115">
    <path d="M 320.472418 320.4 
L 334.894056 320.4 
L 334.894056 136.30744 
L 320.472418 136.30744 
z
" clip-path="url(#p74cf0ba124)" style="fill: #8c564b; opacity: 0.2"/>
   </g>
   <g id="patch_116">
    <path d="M 334.894056 320.4 
L 349.315693 320.4 
L 349.315693 182.094217 
L 334.894056 182.094217 
z
" clip-path="url(#p74cf0ba124)" style="fill: #8c564b; opacity: 0.2"/>
   </g>
   <g id="patch_117">
    <path d="M 349.315693 320.4 
L 363.737299 320.4 
L 363.737299 228.556112 
L 349.315693 228.556112 
z
" clip-path="url(#p74cf0ba124)" style="fill: #8c564b; opacity: 0.2"/>
   </g>
   <g id="patch_118">
    <path d="M 363.737299 320.4 
L 378.158936 320.4 
L 378.158936 264.34834 
L 363.737299 264.34834 
z
" clip-path="url(#p74cf0ba124)" style="fill: #8c564b; opacity: 0.2"/>
   </g>
   <g id="patch_119">
    <path d="M 378.158936 320.4 
L 392.580574 320.4 
L 392.580574 291.766381 
L 378.158936 291.766381 
z
" clip-path="url(#p74cf0ba124)" style="fill: #8c564b; opacity: 0.2"/>
   </g>
   <g id="patch_120">
    <path d="M 392.580574 320.4 
L 407.002212 320.4 
L 407.002212 308.514347 
L 392.580574 308.514347 
z
" clip-path="url(#p74cf0ba124)" style="fill: #8c564b; opacity: 0.2"/>
   </g>
   <g id="patch_121">
    <path d="M 407.002212 320.4 
L 421.423817 320.4 
L 421.423817 316.212999 
L 407.002212 316.212999 
z
" clip-path="url(#p74cf0ba124)" style="fill: #8c564b; opacity: 0.2"/>
   </g>
   <g id="patch_122">
    <path d="M 421.423817 320.4 
L 435.845455 320.4 
L 435.845455 319.589615 
L 421.423817 319.589615 
z
" clip-path="url(#p74cf0ba124)" style="fill: #8c564b; opacity: 0.2"/>
   </g>
   <g id="matplotlib.axis_1">
    <g id="xtick_1">
     <g id="line2d_1">
      <path d="M 84.431522 320.4 
L 84.431522 43.2 
" clip-path="url(#p74cf0ba124)" style="fill: none; stroke-dasharray: 1.85,0.8; stroke-dashoffset: 0; stroke: #b0b0b0; stroke-opacity: 0.5; stroke-width: 0.5"/>
     </g>
     <g id="line2d_2">
      <defs>
       <path id="m1b04e3d43e" d="M 0 0 
L 0 -3 
" style="stroke: #000000; stroke-width: 0.5"/>
      </defs>
      <g>
       <use xlink:href="#m1b04e3d43e" x="84.431522" y="320.4" style="stroke: #000000; stroke-width: 0.5"/>
      </g>
     </g>
     <g id="text_1">
      <!-- $\mathdefault{−11}$ -->
      <g transform="translate(71.303727 334.277725) scale(0.15 -0.15)">
       <defs>
        <path id="CMSY10-0" d="M 4218 1472 
C 4326 1472 4442 1472 4442 1600 
C 4442 1728 4326 1728 4218 1728 
L 755 1728 
C 646 1728 531 1728 531 1600 
C 531 1472 646 1472 755 1472 
L 4218 1472 
z
" transform="scale(0.015625)"/>
        <path id="CMR17-31" d="M 1702 4058 
C 1702 4192 1696 4192 1606 4192 
C 1357 3916 979 3827 621 3827 
C 602 3827 570 3827 563 3808 
C 557 3795 557 3782 557 3648 
C 755 3648 1088 3686 1344 3839 
L 1344 461 
C 1344 236 1331 160 781 160 
L 589 160 
L 589 0 
C 896 0 1216 0 1523 0 
C 1830 0 2150 0 2458 0 
L 2458 160 
L 2266 160 
C 1715 160 1702 230 1702 458 
L 1702 4058 
z
" transform="scale(0.015625)"/>
       </defs>
       <use xlink:href="#CMSY10-0" transform="scale(0.996264)"/>
       <use xlink:href="#CMR17-31" transform="translate(77.487468 0) scale(0.996264)"/>
       <use xlink:href="#CMR17-31" transform="translate(123.177945 0) scale(0.996264)"/>
      </g>
     </g>
    </g>
    <g id="xtick_2">
     <g id="line2d_3">
      <path d="M 151.667671 320.4 
L 151.667671 43.2 
" clip-path="url(#p74cf0ba124)" style="fill: none; stroke-dasharray: 1.85,0.8; stroke-dashoffset: 0; stroke: #b0b0b0; stroke-opacity: 0.5; stroke-width: 0.5"/>
     </g>
     <g id="line2d_4">
      <g>
       <use xlink:href="#m1b04e3d43e" x="151.667671" y="320.4" style="stroke: #000000; stroke-width: 0.5"/>
      </g>
     </g>
     <g id="text_2">
      <!-- $\mathdefault{−10}$ -->
      <g transform="translate(138.539875 334.277725) scale(0.15 -0.15)">
       <defs>
        <path id="CMR17-30" d="M 2688 2025 
C 2688 2416 2682 3080 2413 3591 
C 2176 4039 1798 4198 1466 4198 
C 1158 4198 768 4058 525 3597 
C 269 3118 243 2524 243 2025 
C 243 1661 250 1106 448 619 
C 723 -39 1216 -128 1466 -128 
C 1760 -128 2208 -7 2470 600 
C 2662 1042 2688 1559 2688 2025 
z
M 1466 -26 
C 1056 -26 813 325 723 812 
C 653 1188 653 1738 653 2096 
C 653 2588 653 2997 736 3387 
C 858 3929 1216 4096 1466 4096 
C 1728 4096 2067 3923 2189 3400 
C 2272 3036 2278 2607 2278 2096 
C 2278 1680 2278 1169 2202 792 
C 2067 95 1690 -26 1466 -26 
z
" transform="scale(0.015625)"/>
       </defs>
       <use xlink:href="#CMSY10-0" transform="scale(0.996264)"/>
       <use xlink:href="#CMR17-31" transform="translate(77.487468 0) scale(0.996264)"/>
       <use xlink:href="#CMR17-30" transform="translate(123.177945 0) scale(0.996264)"/>
      </g>
     </g>
    </g>
    <g id="xtick_3">
     <g id="line2d_5">
      <path d="M 218.903819 320.4 
L 218.903819 43.2 
" clip-path="url(#p74cf0ba124)" style="fill: none; stroke-dasharray: 1.85,0.8; stroke-dashoffset: 0; stroke: #b0b0b0; stroke-opacity: 0.5; stroke-width: 0.5"/>
     </g>
     <g id="line2d_6">
      <g>
       <use xlink:href="#m1b04e3d43e" x="218.903819" y="320.4" style="stroke: #000000; stroke-width: 0.5"/>
      </g>
     </g>
     <g id="text_3">
      <!-- $\mathdefault{−9}$ -->
      <g transform="translate(209.434143 334.277725) scale(0.15 -0.15)">
       <defs>
        <path id="CMR17-39" d="M 2253 1864 
C 2253 464 1670 31 1190 31 
C 1043 31 685 31 538 294 
C 704 268 826 357 826 518 
C 826 692 685 749 595 749 
C 538 749 365 723 365 506 
C 365 71 742 -128 1203 -128 
C 1939 -128 2688 674 2688 2073 
C 2688 3817 1971 4179 1485 4179 
C 851 4179 243 3628 243 2778 
C 243 1991 762 1408 1414 1408 
C 1952 1408 2189 1903 2253 2112 
L 2253 1864 
z
M 1427 1510 
C 1254 1510 1011 1542 813 1922 
C 678 2169 678 2461 678 2771 
C 678 3146 678 3405 858 3684 
C 947 3817 1114 4032 1485 4032 
C 2240 4032 2240 2885 2240 2632 
C 2240 2182 2035 1510 1427 1510 
z
" transform="scale(0.015625)"/>
       </defs>
       <use xlink:href="#CMSY10-0" transform="scale(0.996264)"/>
       <use xlink:href="#CMR17-39" transform="translate(77.487468 0) scale(0.996264)"/>
      </g>
     </g>
    </g>
    <g id="xtick_4">
     <g id="line2d_7">
      <path d="M 286.139968 320.4 
L 286.139968 43.2 
" clip-path="url(#p74cf0ba124)" style="fill: none; stroke-dasharray: 1.85,0.8; stroke-dashoffset: 0; stroke: #b0b0b0; stroke-opacity: 0.5; stroke-width: 0.5"/>
     </g>
     <g id="line2d_8">
      <g>
       <use xlink:href="#m1b04e3d43e" x="286.139968" y="320.4" style="stroke: #000000; stroke-width: 0.5"/>
      </g>
     </g>
     <g id="text_4">
      <!-- $\mathdefault{−8}$ -->
      <g transform="translate(276.670291 334.277725) scale(0.15 -0.15)">
       <defs>
        <path id="CMR17-38" d="M 1741 2264 
C 2144 2467 2554 2773 2554 3263 
C 2554 3841 1990 4179 1472 4179 
C 890 4179 378 3759 378 3180 
C 378 3021 416 2747 666 2505 
C 730 2442 998 2251 1171 2130 
C 883 1983 211 1634 211 934 
C 211 279 838 -128 1459 -128 
C 2144 -128 2720 362 2720 1010 
C 2720 1590 2330 1857 2074 2029 
L 1741 2264 
z
M 902 2822 
C 851 2854 595 3051 595 3351 
C 595 3739 998 4032 1459 4032 
C 1965 4032 2336 3676 2336 3262 
C 2336 2669 1670 2331 1638 2331 
C 1632 2331 1626 2331 1574 2370 
L 902 2822 
z
M 2080 1519 
C 2176 1449 2483 1240 2483 851 
C 2483 381 2010 25 1472 25 
C 890 25 448 438 448 940 
C 448 1443 838 1862 1280 2060 
L 2080 1519 
z
" transform="scale(0.015625)"/>
       </defs>
       <use xlink:href="#CMSY10-0" transform="scale(0.996264)"/>
       <use xlink:href="#CMR17-38" transform="translate(77.487468 0) scale(0.996264)"/>
      </g>
     </g>
    </g>
    <g id="xtick_5">
     <g id="line2d_9">
      <path d="M 353.376116 320.4 
L 353.376116 43.2 
" clip-path="url(#p74cf0ba124)" style="fill: none; stroke-dasharray: 1.85,0.8; stroke-dashoffset: 0; stroke: #b0b0b0; stroke-opacity: 0.5; stroke-width: 0.5"/>
     </g>
     <g id="line2d_10">
      <g>
       <use xlink:href="#m1b04e3d43e" x="353.376116" y="320.4" style="stroke: #000000; stroke-width: 0.5"/>
      </g>
     </g>
     <g id="text_5">
      <!-- $\mathdefault{−7}$ -->
      <g transform="translate(343.906439 334.277725) scale(0.15 -0.15)">
       <defs>
        <path id="CMR17-37" d="M 2886 3941 
L 2886 4081 
L 1382 4081 
C 634 4081 621 4165 595 4288 
L 480 4288 
L 294 3094 
L 410 3094 
C 429 3215 474 3540 550 3661 
C 589 3712 1062 3712 1171 3712 
L 2579 3712 
L 1869 2661 
C 1395 1954 1069 999 1069 165 
C 1069 89 1069 -128 1299 -128 
C 1530 -128 1530 89 1530 171 
L 1530 465 
C 1530 1508 1709 2196 2003 2636 
L 2886 3941 
z
" transform="scale(0.015625)"/>
       </defs>
       <use xlink:href="#CMSY10-0" transform="scale(0.996264)"/>
       <use xlink:href="#CMR17-37" transform="translate(77.487468 0) scale(0.996264)"/>
      </g>
     </g>
    </g>
    <g id="xtick_6">
     <g id="line2d_11">
      <path d="M 420.612265 320.4 
L 420.612265 43.2 
" clip-path="url(#p74cf0ba124)" style="fill: none; stroke-dasharray: 1.85,0.8; stroke-dashoffset: 0; stroke: #b0b0b0; stroke-opacity: 0.5; stroke-width: 0.5"/>
     </g>
     <g id="line2d_12">
      <g>
       <use xlink:href="#m1b04e3d43e" x="420.612265" y="320.4" style="stroke: #000000; stroke-width: 0.5"/>
      </g>
     </g>
     <g id="text_6">
      <!-- $\mathdefault{−6}$ -->
      <g transform="translate(411.142588 334.277725) scale(0.15 -0.15)">
       <defs>
        <path id="CMR17-36" d="M 678 2176 
C 678 3690 1395 4032 1811 4032 
C 1946 4032 2272 4009 2400 3776 
C 2298 3776 2106 3776 2106 3553 
C 2106 3381 2246 3323 2336 3323 
C 2394 3323 2566 3348 2566 3560 
C 2566 3954 2246 4179 1805 4179 
C 1043 4179 243 3390 243 1984 
C 243 253 966 -128 1478 -128 
C 2099 -128 2688 427 2688 1283 
C 2688 2081 2170 2662 1517 2662 
C 1126 2662 838 2407 678 1960 
L 678 2176 
z
M 1478 25 
C 691 25 691 1200 691 1436 
C 691 1896 909 2560 1504 2560 
C 1613 2560 1926 2560 2138 2120 
C 2253 1870 2253 1609 2253 1289 
C 2253 944 2253 690 2118 434 
C 1978 171 1773 25 1478 25 
z
" transform="scale(0.015625)"/>
       </defs>
       <use xlink:href="#CMSY10-0" transform="scale(0.996264)"/>
       <use xlink:href="#CMR17-36" transform="translate(77.487468 0) scale(0.996264)"/>
      </g>
     </g>
    </g>
    <g id="text_7">
     <!-- Total score -->
     <g transform="translate(223.100775 351.561194) scale(0.15 -0.15)">
      <defs>
       <path id="CMR17-54" d="M 3981 4326 
L 288 4326 
L 179 2918 
L 294 2918 
C 378 3976 467 4160 1453 4160 
C 1568 4160 1754 4160 1805 4154 
C 1926 4135 1926 4058 1926 3912 
L 1926 459 
C 1926 230 1907 160 1376 160 
L 1197 160 
L 1197 0 
C 1504 0 1824 0 2138 0 
C 2451 0 2771 0 3078 0 
L 3078 160 
L 2899 160 
C 2368 160 2349 230 2349 459 
L 2349 3912 
C 2349 4052 2349 4129 2464 4154 
C 2515 4160 2701 4160 2816 4160 
C 3795 4160 3891 3976 3974 2918 
L 4090 2918 
L 3981 4326 
z
" transform="scale(0.015625)"/>
       <path id="CMR17-6f" d="M 2758 1356 
C 2758 2176 2163 2816 1466 2816 
C 768 2816 173 2176 173 1356 
C 173 551 768 -64 1466 -64 
C 2163 -64 2758 551 2758 1356 
z
M 1466 51 
C 1165 51 909 230 762 480 
C 602 767 582 1126 582 1408 
C 582 1677 595 2010 762 2298 
C 890 2509 1139 2714 1466 2714 
C 1754 2714 1997 2554 2150 2330 
C 2349 2029 2349 1607 2349 1408 
C 2349 1158 2336 775 2163 467 
C 1984 173 1709 51 1466 51 
z
" transform="scale(0.015625)"/>
       <path id="CMR17-74" d="M 966 2560 
L 1862 2560 
L 1862 2725 
L 966 2725 
L 966 3904 
L 851 3904 
C 838 3245 614 2668 70 2668 
L 70 2560 
L 627 2560 
L 627 771 
C 627 650 627 -64 1370 -64 
C 1747 -64 1965 306 1965 777 
L 1965 1140 
L 1850 1140 
L 1850 783 
C 1850 344 1677 51 1408 51 
C 1222 51 966 178 966 758 
L 966 2560 
z
" transform="scale(0.015625)"/>
       <path id="CMR17-61" d="M 2304 1653 
C 2304 2072 2304 2294 2035 2543 
C 1798 2752 1523 2816 1306 2816 
C 800 2816 435 2407 435 1971 
C 435 1728 627 1728 666 1728 
C 749 1728 896 1778 896 1954 
C 896 2112 774 2181 666 2181 
C 640 2181 608 2174 589 2168 
C 723 2592 1069 2714 1293 2714 
C 1613 2714 1965 2429 1965 1885 
L 1965 1600 
C 1587 1600 1133 1549 774 1357 
C 371 1133 256 813 256 570 
C 256 77 832 -64 1171 -64 
C 1523 -64 1850 139 1990 511 
C 2003 233 2182 -18 2464 -18 
C 2598 -18 2938 70 2938 567 
L 2938 920 
L 2822 920 
L 2822 562 
C 2822 178 2650 128 2566 128 
C 2304 128 2304 458 2304 738 
L 2304 1653 
z
M 1965 870 
C 1965 317 1568 38 1216 38 
C 896 38 646 275 646 570 
C 646 761 730 1100 1101 1305 
C 1408 1478 1760 1504 1965 1504 
L 1965 870 
z
" transform="scale(0.015625)"/>
       <path id="CMR17-6c" d="M 979 4396 
L 218 4326 
L 218 4160 
C 595 4160 653 4122 653 3817 
L 653 426 
C 653 184 627 153 218 153 
L 218 -13 
C 371 0 653 0 813 0 
C 979 0 1261 0 1414 -13 
L 1414 153 
C 1005 153 979 178 979 426 
L 979 4396 
z
" transform="scale(0.015625)"/>
       <path id="CMR17-73" d="M 1978 2697 
C 1978 2813 1971 2819 1933 2819 
C 1907 2819 1901 2813 1824 2717 
C 1805 2691 1747 2626 1728 2601 
C 1523 2819 1235 2819 1126 2819 
C 416 2819 160 2447 160 2076 
C 160 1498 813 1365 998 1325 
C 1402 1243 1542 1217 1677 1101 
C 1760 1025 1901 884 1901 654 
C 1901 384 1747 38 1158 38 
C 602 38 403 460 288 1021 
C 269 1110 269 1117 218 1117 
C 166 1117 160 1110 160 983 
L 160 63 
C 160 -51 166 -58 205 -58 
C 237 -58 243 -51 275 0 
C 314 57 410 211 448 276 
C 576 103 800 -64 1158 -64 
C 1792 -64 2131 283 2131 784 
C 2131 1112 1958 1285 1875 1362 
C 1683 1561 1459 1606 1190 1657 
C 838 1735 390 1825 390 2217 
C 390 2383 480 2737 1126 2737 
C 1811 2737 1850 2094 1862 1888 
C 1869 1856 1901 1849 1920 1849 
C 1978 1849 1978 1869 1978 1978 
L 1978 2697 
z
" transform="scale(0.015625)"/>
       <path id="CMR17-63" d="M 2234 2240 
C 2112 2240 1933 2240 1933 2017 
C 1933 1838 2080 1787 2163 1787 
C 2208 1787 2394 1807 2394 2024 
C 2394 2467 1958 2803 1466 2803 
C 787 2803 211 2178 211 1363 
C 211 516 813 -64 1466 -64 
C 2259 -64 2458 677 2458 748 
C 2458 774 2451 793 2406 793 
C 2362 793 2355 787 2330 703 
C 2163 180 1798 51 1523 51 
C 1114 51 621 427 621 1369 
C 621 2338 1094 2688 1472 2688 
C 1722 2688 2093 2573 2234 2240 
z
" transform="scale(0.015625)"/>
       <path id="CMR17-72" d="M 960 1497 
C 960 2112 1222 2688 1702 2688 
C 1747 2688 1792 2682 1837 2662 
C 1837 2662 1696 2617 1696 2452 
C 1696 2298 1818 2234 1914 2234 
C 1990 2234 2131 2279 2131 2458 
C 2131 2663 1926 2790 1709 2790 
C 1222 2790 1011 2317 947 2093 
L 941 2093 
L 941 2790 
L 198 2720 
L 198 2554 
C 576 2554 634 2515 634 2208 
L 634 428 
C 634 184 608 153 198 153 
L 198 -13 
C 352 0 646 0 813 0 
C 998 0 1325 0 1498 -13 
L 1498 153 
C 1037 153 960 153 960 440 
L 960 1497 
z
" transform="scale(0.015625)"/>
       <path id="CMR17-65" d="M 2438 1472 
C 2464 1498 2464 1511 2464 1576 
C 2464 2238 2118 2816 1389 2816 
C 710 2816 173 2169 173 1383 
C 173 551 781 -64 1459 -64 
C 2176 -64 2458 607 2458 740 
C 2458 784 2419 784 2406 784 
C 2362 784 2355 771 2330 696 
C 2189 265 1837 51 1504 51 
C 1229 51 954 203 781 480 
C 582 803 582 1176 582 1472 
L 2438 1472 
z
M 589 1568 
C 634 2505 1126 2714 1382 2714 
C 1818 2714 2112 2297 2118 1568 
L 589 1568 
z
" transform="scale(0.015625)"/>
      </defs>
      <use xlink:href="#CMR17-54" transform="scale(0.996264)"/>
      <use xlink:href="#CMR17-6f" transform="translate(58.702625 0) scale(0.996264)"/>
      <use xlink:href="#CMR17-74" transform="translate(104.393102 0) scale(0.996264)"/>
      <use xlink:href="#CMR17-61" transform="translate(139.67387 0) scale(0.996264)"/>
      <use xlink:href="#CMR17-6c" transform="translate(185.364347 0) scale(0.996264)"/>
      <use xlink:href="#CMR17-73" transform="translate(240.311372 0) scale(0.996264)"/>
      <use xlink:href="#CMR17-63" transform="translate(276.11271 0) scale(0.996264)"/>
      <use xlink:href="#CMR17-6f" transform="translate(316.59837 0) scale(0.996264)"/>
      <use xlink:href="#CMR17-72" transform="translate(362.288847 0) scale(0.996264)"/>
      <use xlink:href="#CMR17-65" transform="translate(397.569615 0) scale(0.996264)"/>
     </g>
    </g>
   </g>
   <g id="matplotlib.axis_2">
    <g id="ytick_1">
     <g id="line2d_13">
      <path d="M 63 320.4 
L 453.6 320.4 
" clip-path="url(#p74cf0ba124)" style="fill: none; stroke-dasharray: 1.85,0.8; stroke-dashoffset: 0; stroke: #b0b0b0; stroke-opacity: 0.5; stroke-width: 0.5"/>
     </g>
     <g id="line2d_14">
      <defs>
       <path id="mfefa6984a5" d="M 0 0 
L 3 0 
" style="stroke: #000000; stroke-width: 0.5"/>
      </defs>
      <g>
       <use xlink:href="#mfefa6984a5" x="63" y="320.4" style="stroke: #000000; stroke-width: 0.5"/>
      </g>
     </g>
     <g id="text_8">
      <!-- $\mathdefault{0.0}$ -->
      <g transform="translate(40.802948 325.588862) scale(0.15 -0.15)">
       <defs>
        <path id="CMMI12-3a" d="M 1178 307 
C 1178 492 1024 619 870 619 
C 685 619 557 466 557 313 
C 557 128 710 0 864 0 
C 1050 0 1178 153 1178 307 
z
" transform="scale(0.015625)"/>
       </defs>
       <use xlink:href="#CMR17-30" transform="scale(0.996264)"/>
       <use xlink:href="#CMMI12-3a" transform="translate(45.690477 0) scale(0.996264)"/>
       <use xlink:href="#CMR17-30" transform="translate(72.787654 0) scale(0.996264)"/>
      </g>
     </g>
    </g>
    <g id="ytick_2">
     <g id="line2d_15">
      <path d="M 63 277.984668 
L 453.6 277.984668 
" clip-path="url(#p74cf0ba124)" style="fill: none; stroke-dasharray: 1.85,0.8; stroke-dashoffset: 0; stroke: #b0b0b0; stroke-opacity: 0.5; stroke-width: 0.5"/>
     </g>
     <g id="line2d_16">
      <g>
       <use xlink:href="#mfefa6984a5" x="63" y="277.984668" style="stroke: #000000; stroke-width: 0.5"/>
      </g>
     </g>
     <g id="text_9">
      <!-- $\mathdefault{0.1}$ -->
      <g transform="translate(40.802948 283.17353) scale(0.15 -0.15)">
       <use xlink:href="#CMR17-30" transform="scale(0.996264)"/>
       <use xlink:href="#CMMI12-3a" transform="translate(45.690477 0) scale(0.996264)"/>
       <use xlink:href="#CMR17-31" transform="translate(72.787654 0) scale(0.996264)"/>
      </g>
     </g>
    </g>
    <g id="ytick_3">
     <g id="line2d_17">
      <path d="M 63 235.569336 
L 453.6 235.569336 
" clip-path="url(#p74cf0ba124)" style="fill: none; stroke-dasharray: 1.85,0.8; stroke-dashoffset: 0; stroke: #b0b0b0; stroke-opacity: 0.5; stroke-width: 0.5"/>
     </g>
     <g id="line2d_18">
      <g>
       <use xlink:href="#mfefa6984a5" x="63" y="235.569336" style="stroke: #000000; stroke-width: 0.5"/>
      </g>
     </g>
     <g id="text_10">
      <!-- $\mathdefault{0.2}$ -->
      <g transform="translate(40.802948 240.758198) scale(0.15 -0.15)">
       <defs>
        <path id="CMR17-32" d="M 2669 989 
L 2554 989 
C 2490 536 2438 459 2413 420 
C 2381 369 1920 369 1830 369 
L 602 369 
C 832 619 1280 1072 1824 1597 
C 2214 1967 2669 2402 2669 3035 
C 2669 3790 2067 4224 1395 4224 
C 691 4224 262 3604 262 3030 
C 262 2780 448 2748 525 2748 
C 589 2748 781 2787 781 3010 
C 781 3207 614 3264 525 3264 
C 486 3264 448 3258 422 3245 
C 544 3790 915 4058 1306 4058 
C 1862 4058 2227 3617 2227 3035 
C 2227 2479 1901 2000 1536 1584 
L 262 146 
L 262 0 
L 2515 0 
L 2669 989 
z
" transform="scale(0.015625)"/>
       </defs>
       <use xlink:href="#CMR17-30" transform="scale(0.996264)"/>
       <use xlink:href="#CMMI12-3a" transform="translate(45.690477 0) scale(0.996264)"/>
       <use xlink:href="#CMR17-32" transform="translate(72.787654 0) scale(0.996264)"/>
      </g>
     </g>
    </g>
    <g id="ytick_4">
     <g id="line2d_19">
      <path d="M 63 193.154004 
L 453.6 193.154004 
" clip-path="url(#p74cf0ba124)" style="fill: none; stroke-dasharray: 1.85,0.8; stroke-dashoffset: 0; stroke: #b0b0b0; stroke-opacity: 0.5; stroke-width: 0.5"/>
     </g>
     <g id="line2d_20">
      <g>
       <use xlink:href="#mfefa6984a5" x="63" y="193.154004" style="stroke: #000000; stroke-width: 0.5"/>
      </g>
     </g>
     <g id="text_11">
      <!-- $\mathdefault{0.3}$ -->
      <g transform="translate(40.802948 198.342866) scale(0.15 -0.15)">
       <defs>
        <path id="CMR17-33" d="M 1414 2157 
C 1984 2157 2234 1662 2234 1090 
C 2234 320 1824 25 1453 25 
C 1114 25 563 194 390 693 
C 422 680 454 680 486 680 
C 640 680 755 782 755 948 
C 755 1133 614 1216 486 1216 
C 378 1216 211 1165 211 926 
C 211 335 787 -128 1466 -128 
C 2176 -128 2720 430 2720 1085 
C 2720 1707 2208 2157 1600 2227 
C 2086 2328 2554 2756 2554 3329 
C 2554 3820 2048 4179 1472 4179 
C 890 4179 378 3829 378 3329 
C 378 3110 544 3072 627 3072 
C 762 3072 877 3155 877 3321 
C 877 3486 762 3569 627 3569 
C 602 3569 570 3569 544 3557 
C 730 3959 1235 4032 1459 4032 
C 1683 4032 2106 3925 2106 3320 
C 2106 3143 2080 2828 1862 2550 
C 1670 2304 1453 2304 1242 2284 
C 1210 2284 1062 2269 1037 2269 
C 992 2263 966 2257 966 2208 
C 966 2163 973 2157 1101 2157 
L 1414 2157 
z
" transform="scale(0.015625)"/>
       </defs>
       <use xlink:href="#CMR17-30" transform="scale(0.996264)"/>
       <use xlink:href="#CMMI12-3a" transform="translate(45.690477 0) scale(0.996264)"/>
       <use xlink:href="#CMR17-33" transform="translate(72.787654 0) scale(0.996264)"/>
      </g>
     </g>
    </g>
    <g id="ytick_5">
     <g id="line2d_21">
      <path d="M 63 150.738672 
L 453.6 150.738672 
" clip-path="url(#p74cf0ba124)" style="fill: none; stroke-dasharray: 1.85,0.8; stroke-dashoffset: 0; stroke: #b0b0b0; stroke-opacity: 0.5; stroke-width: 0.5"/>
     </g>
     <g id="line2d_22">
      <g>
       <use xlink:href="#mfefa6984a5" x="63" y="150.738672" style="stroke: #000000; stroke-width: 0.5"/>
      </g>
     </g>
     <g id="text_12">
      <!-- $\mathdefault{0.4}$ -->
      <g transform="translate(40.802948 155.927534) scale(0.15 -0.15)">
       <defs>
        <path id="CMR17-34" d="M 2150 4122 
C 2150 4256 2144 4256 2029 4256 
L 128 1254 
L 128 1088 
L 1779 1088 
L 1779 457 
C 1779 224 1766 160 1318 160 
L 1197 160 
L 1197 0 
C 1402 0 1747 0 1965 0 
C 2182 0 2528 0 2733 0 
L 2733 160 
L 2611 160 
C 2163 160 2150 224 2150 457 
L 2150 1088 
L 2803 1088 
L 2803 1254 
L 2150 1254 
L 2150 4122 
z
M 1798 3703 
L 1798 1254 
L 256 1254 
L 1798 3703 
z
" transform="scale(0.015625)"/>
       </defs>
       <use xlink:href="#CMR17-30" transform="scale(0.996264)"/>
       <use xlink:href="#CMMI12-3a" transform="translate(45.690477 0) scale(0.996264)"/>
       <use xlink:href="#CMR17-34" transform="translate(72.787654 0) scale(0.996264)"/>
      </g>
     </g>
    </g>
    <g id="ytick_6">
     <g id="line2d_23">
      <path d="M 63 108.32334 
L 453.6 108.32334 
" clip-path="url(#p74cf0ba124)" style="fill: none; stroke-dasharray: 1.85,0.8; stroke-dashoffset: 0; stroke: #b0b0b0; stroke-opacity: 0.5; stroke-width: 0.5"/>
     </g>
     <g id="line2d_24">
      <g>
       <use xlink:href="#mfefa6984a5" x="63" y="108.32334" style="stroke: #000000; stroke-width: 0.5"/>
      </g>
     </g>
     <g id="text_13">
      <!-- $\mathdefault{0.5}$ -->
      <g transform="translate(40.802948 113.512202) scale(0.15 -0.15)">
       <defs>
        <path id="CMR17-35" d="M 730 3692 
C 794 3666 1056 3584 1325 3584 
C 1920 3584 2246 3911 2432 4100 
C 2432 4157 2432 4192 2394 4192 
C 2387 4192 2374 4192 2323 4163 
C 2099 4058 1837 3973 1517 3973 
C 1325 3973 1037 3999 723 4139 
C 653 4171 640 4171 634 4171 
C 602 4171 595 4164 595 4037 
L 595 2203 
C 595 2089 595 2057 659 2057 
C 691 2057 704 2070 736 2114 
C 941 2401 1222 2522 1542 2522 
C 1766 2522 2246 2382 2246 1289 
C 2246 1085 2246 715 2054 421 
C 1894 159 1645 25 1370 25 
C 947 25 518 320 403 814 
C 429 807 480 795 506 795 
C 589 795 749 840 749 1038 
C 749 1210 627 1280 506 1280 
C 358 1280 262 1190 262 1011 
C 262 454 704 -128 1382 -128 
C 2042 -128 2669 440 2669 1264 
C 2669 2030 2170 2624 1549 2624 
C 1222 2624 947 2503 730 2274 
L 730 3692 
z
" transform="scale(0.015625)"/>
       </defs>
       <use xlink:href="#CMR17-30" transform="scale(0.996264)"/>
       <use xlink:href="#CMMI12-3a" transform="translate(45.690477 0) scale(0.996264)"/>
       <use xlink:href="#CMR17-35" transform="translate(72.787654 0) scale(0.996264)"/>
      </g>
     </g>
    </g>
    <g id="ytick_7">
     <g id="line2d_25">
      <path d="M 63 65.908008 
L 453.6 65.908008 
" clip-path="url(#p74cf0ba124)" style="fill: none; stroke-dasharray: 1.85,0.8; stroke-dashoffset: 0; stroke: #b0b0b0; stroke-opacity: 0.5; stroke-width: 0.5"/>
     </g>
     <g id="line2d_26">
      <g>
       <use xlink:href="#mfefa6984a5" x="63" y="65.908008" style="stroke: #000000; stroke-width: 0.5"/>
      </g>
     </g>
     <g id="text_14">
      <!-- $\mathdefault{0.6}$ -->
      <g transform="translate(40.802948 71.09687) scale(0.15 -0.15)">
       <use xlink:href="#CMR17-30" transform="scale(0.996264)"/>
       <use xlink:href="#CMMI12-3a" transform="translate(45.690477 0) scale(0.996264)"/>
       <use xlink:href="#CMR17-36" transform="translate(72.787654 0) scale(0.996264)"/>
      </g>
     </g>
    </g>
    <g id="text_15">
     <!-- Frequency -->
     <g transform="translate(33.897203 214.416921) rotate(-90) scale(0.15 -0.15)">
      <defs>
       <path id="CMR17-46" d="M 3482 4325 
L 326 4325 
L 326 4160 
C 768 4160 838 4160 838 3874 
L 838 446 
C 838 160 768 160 326 160 
L 326 0 
C 512 0 870 0 1069 0 
C 1331 0 1638 0 1901 0 
L 1901 160 
L 1760 160 
C 1274 160 1261 223 1261 452 
L 1261 2075 
L 1837 2075 
C 2432 2075 2490 1865 2490 1332 
L 2605 1332 
L 2605 2987 
L 2490 2987 
C 2490 2450 2432 2240 1837 2240 
L 1261 2240 
L 1261 3911 
C 1261 4128 1274 4160 1530 4160 
L 2355 4160 
C 3322 4160 3430 3765 3520 2916 
L 3635 2916 
L 3482 4325 
z
" transform="scale(0.015625)"/>
       <path id="CMR17-71" d="M 2630 2802 
L 2528 2802 
L 2336 2172 
C 2189 2509 1920 2802 1491 2802 
C 838 2802 211 2223 211 1383 
C 211 548 800 -38 1440 -38 
C 1933 -38 2208 338 2291 478 
L 2291 -789 
C 2291 -1031 2266 -1063 1856 -1063 
L 1856 -1228 
C 2010 -1216 2291 -1216 2458 -1216 
C 2624 -1216 2912 -1216 3066 -1228 
L 3066 -1063 
C 2656 -1063 2630 -1037 2630 -789 
L 2630 2802 
z
M 2304 886 
C 2304 612 2074 357 2054 338 
C 1856 115 1626 64 1472 64 
C 992 64 621 669 621 1375 
C 621 2121 1043 2688 1536 2688 
C 2048 2688 2304 2108 2304 1777 
L 2304 886 
z
" transform="scale(0.015625)"/>
       <path id="CMR17-75" d="M 1882 2693 
L 1882 2528 
C 2259 2528 2317 2489 2317 2186 
L 2317 1032 
C 2317 500 2029 38 1555 38 
C 1030 38 986 348 986 678 
L 986 2763 
L 211 2693 
L 211 2528 
C 467 2528 640 2528 646 2274 
L 646 1058 
C 646 633 646 361 813 183 
C 896 101 1056 -64 1517 -64 
C 2061 -64 2272 377 2323 506 
L 2330 506 
L 2330 -63 
L 3091 -63 
L 3091 128 
C 2714 128 2656 166 2656 473 
L 2656 2763 
L 1882 2693 
z
" transform="scale(0.015625)"/>
       <path id="CMR17-6e" d="M 2656 1933 
C 2656 2259 2592 2790 1837 2790 
C 1331 2790 1069 2400 973 2144 
L 966 2144 
L 966 2790 
L 211 2720 
L 211 2554 
C 589 2554 646 2515 646 2208 
L 646 428 
C 646 184 621 153 211 153 
L 211 -13 
C 365 0 646 0 813 0 
C 979 0 1267 0 1421 -13 
L 1421 153 
C 1011 153 986 178 986 428 
L 986 1658 
C 986 2247 1344 2688 1792 2688 
C 2266 2688 2317 2266 2317 1958 
L 2317 428 
C 2317 184 2291 153 1882 153 
L 1882 -13 
C 2035 0 2317 0 2483 0 
C 2650 0 2938 0 3091 -13 
L 3091 153 
C 2682 153 2656 178 2656 428 
L 2656 1933 
z
" transform="scale(0.015625)"/>
       <path id="CMR17-79" d="M 2496 2197 
C 2656 2586 2944 2586 3034 2586 
L 3034 2752 
C 2912 2752 2752 2752 2630 2752 
C 2496 2752 2285 2752 2157 2758 
L 2157 2592 
C 2400 2573 2406 2394 2406 2343 
C 2406 2280 2394 2248 2362 2171 
L 1664 449 
L 902 2306 
C 870 2382 870 2426 870 2433 
C 870 2573 1018 2586 1171 2586 
L 1171 2758 
C 1018 2752 742 2752 582 2752 
C 410 2752 205 2752 64 2758 
L 64 2586 
C 410 2586 448 2554 531 2350 
L 1485 15 
C 1197 -738 1030 -1178 627 -1178 
C 557 -1178 397 -1159 282 -1044 
C 429 -1031 493 -942 493 -833 
C 493 -725 416 -629 288 -629 
C 147 -629 77 -725 77 -840 
C 77 -1095 339 -1280 627 -1280 
C 998 -1280 1229 -922 1357 -604 
L 2496 2197 
z
" transform="scale(0.015625)"/>
      </defs>
      <use xlink:href="#CMR17-46" transform="scale(0.996264)"/>
      <use xlink:href="#CMR17-72" transform="translate(52.176591 0) scale(0.996264)"/>
      <use xlink:href="#CMR17-65" transform="translate(87.457359 0) scale(0.996264)"/>
      <use xlink:href="#CMR17-71" transform="translate(127.943019 0) scale(0.996264)"/>
      <use xlink:href="#CMR17-75" transform="translate(176.235935 0) scale(0.996264)"/>
      <use xlink:href="#CMR17-65" transform="translate(227.131305 0) scale(0.996264)"/>
      <use xlink:href="#CMR17-6e" transform="translate(267.616966 0) scale(0.996264)"/>
      <use xlink:href="#CMR17-63" transform="translate(318.512335 0) scale(0.996264)"/>
      <use xlink:href="#CMR17-79" transform="translate(358.997996 0) scale(0.996264)"/>
     </g>
    </g>
   </g>
   <g id="line2d_27">
    <path d="M 364.879814 320.4 
L 364.879814 43.2 
" clip-path="url(#p74cf0ba124)" style="fill: none; stroke-dasharray: 5.55,2.4; stroke-dashoffset: 0; stroke: #1f77b4; stroke-width: 1.5"/>
   </g>
   <g id="line2d_28">
    <path d="M 426.259051 320.4 
L 426.259051 43.2 
" clip-path="url(#p74cf0ba124)" style="fill: none; stroke-dasharray: 5.55,2.4; stroke-dashoffset: 0; stroke: #ff7f0e; stroke-width: 1.5"/>
   </g>
   <g id="line2d_29">
    <path d="M 416.672647 320.4 
L 416.672647 43.2 
" clip-path="url(#p74cf0ba124)" style="fill: none; stroke-dasharray: 5.55,2.4; stroke-dashoffset: 0; stroke: #2ca02c; stroke-width: 1.5"/>
   </g>
   <g id="line2d_30">
    <path d="M 410.132874 320.4 
L 410.132874 43.2 
" clip-path="url(#p74cf0ba124)" style="fill: none; stroke-dasharray: 5.55,2.4; stroke-dashoffset: 0; stroke: #d62728; stroke-width: 1.5"/>
   </g>
   <g id="line2d_31">
    <path d="M 426.941911 320.4 
L 426.941911 43.2 
" clip-path="url(#p74cf0ba124)" style="fill: none; stroke-dasharray: 5.55,2.4; stroke-dashoffset: 0; stroke: #9467bd; stroke-width: 1.5"/>
   </g>
   <g id="line2d_32">
    <path d="M 435.845455 320.4 
L 435.845455 43.2 
" clip-path="url(#p74cf0ba124)" style="fill: none; stroke-dasharray: 5.55,2.4; stroke-dashoffset: 0; stroke: #8c564b; stroke-width: 1.5"/>
   </g>
   <g id="patch_123">
    <path d="M 63 320.4 
L 63 43.2 
" style="fill: none; stroke: #000000; stroke-width: 0.8; stroke-linejoin: miter; stroke-linecap: square"/>
   </g>
   <g id="patch_124">
    <path d="M 453.6 320.4 
L 453.6 43.2 
" style="fill: none; stroke: #000000; stroke-width: 0.8; stroke-linejoin: miter; stroke-linecap: square"/>
   </g>
   <g id="patch_125">
    <path d="M 63 320.4 
L 453.6 320.4 
" style="fill: none; stroke: #000000; stroke-width: 0.8; stroke-linejoin: miter; stroke-linecap: square"/>
   </g>
   <g id="patch_126">
    <path d="M 63 43.2 
L 453.6 43.2 
" style="fill: none; stroke: #000000; stroke-width: 0.8; stroke-linejoin: miter; stroke-linecap: square"/>
   </g>
   <g id="text_16">
    <!-- Histogram of weekly scores after a single step permutation -->
    <g transform="translate(48.139744 37.2) scale(0.18 -0.18)">
     <defs>
      <path id="CMR17-48" d="M 3590 3905 
C 3590 4192 3661 4192 4102 4192 
L 4102 4352 
C 3917 4352 3578 4352 3379 4352 
C 3181 4352 2842 4352 2656 4352 
L 2656 4192 
C 3098 4192 3168 4192 3168 3904 
L 3168 2341 
L 1261 2341 
L 1261 3904 
C 1261 4192 1331 4192 1773 4192 
L 1773 4352 
C 1587 4352 1248 4352 1050 4352 
C 851 4352 512 4352 326 4352 
L 326 4192 
C 768 4192 838 4192 838 3905 
L 838 447 
C 838 160 768 160 326 160 
L 326 0 
C 512 0 851 0 1050 0 
C 1248 0 1587 0 1773 0 
L 1773 160 
C 1331 160 1261 160 1261 446 
L 1261 2176 
L 3168 2176 
L 3168 446 
C 3168 160 3098 160 2656 160 
L 2656 0 
C 2842 0 3181 0 3379 0 
C 3578 0 3917 0 4102 0 
L 4102 160 
C 3661 160 3590 160 3590 447 
L 3590 3905 
z
" transform="scale(0.015625)"/>
      <path id="CMR17-69" d="M 992 3909 
C 992 4049 877 4170 730 4170 
C 589 4170 467 4056 467 3909 
C 467 3769 582 3648 730 3648 
C 870 3648 992 3763 992 3909 
z
M 243 2706 
L 243 2541 
C 602 2541 653 2502 653 2197 
L 653 427 
C 653 184 627 153 218 153 
L 218 -13 
C 371 0 646 0 806 0 
C 960 0 1222 0 1370 -13 
L 1370 153 
C 992 153 979 191 979 420 
L 979 2776 
L 243 2706 
z
" transform="scale(0.015625)"/>
      <path id="CMR17-67" d="M 710 1164 
C 832 1068 1043 960 1299 960 
C 1805 960 2240 1357 2240 1888 
C 2240 2054 2189 2310 1997 2509 
C 2176 2692 2438 2752 2586 2752 
C 2611 2752 2650 2752 2682 2734 
C 2656 2728 2598 2703 2598 2605 
C 2598 2527 2656 2471 2739 2471 
C 2835 2471 2886 2533 2886 2614 
C 2886 2731 2790 2854 2586 2854 
C 2330 2854 2106 2738 1926 2580 
C 1734 2753 1504 2816 1299 2816 
C 794 2816 358 2419 358 1888 
C 358 1522 570 1292 634 1228 
C 442 1004 442 743 442 711 
C 442 545 506 302 723 168 
C 390 85 128 -169 128 -486 
C 128 -943 736 -1280 1466 -1280 
C 2170 -1280 2803 -956 2803 -479 
C 2803 384 1856 384 1363 384 
C 1216 384 954 384 922 391 
C 723 423 589 602 589 826 
C 589 883 589 1024 710 1164 
z
M 1299 1068 
C 736 1068 736 1760 736 1889 
C 736 2016 736 2708 1299 2708 
C 1862 2708 1862 2016 1862 1889 
C 1862 1760 1862 1068 1299 1068 
z
M 1466 -1171 
C 826 -1171 384 -835 384 -486 
C 384 -289 493 -105 634 -4 
C 794 104 858 104 1293 104 
C 1818 104 2547 104 2547 -486 
C 2547 -835 2106 -1171 1466 -1171 
z
" transform="scale(0.015625)"/>
      <path id="CMR17-6d" d="M 4326 1933 
C 4326 2252 4269 2790 3507 2790 
C 3072 2790 2771 2496 2656 2151 
L 2650 2151 
C 2573 2676 2195 2790 1837 2790 
C 1331 2790 1069 2400 973 2144 
L 966 2144 
L 966 2790 
L 211 2720 
L 211 2554 
C 589 2554 646 2515 646 2208 
L 646 428 
C 646 184 621 153 211 153 
L 211 -13 
C 365 0 646 0 813 0 
C 979 0 1267 0 1421 -13 
L 1421 153 
C 1011 153 986 178 986 428 
L 986 1658 
C 986 2247 1344 2688 1792 2688 
C 2266 2688 2317 2266 2317 1958 
L 2317 428 
C 2317 184 2291 153 1882 153 
L 1882 -13 
C 2035 0 2317 0 2483 0 
C 2650 0 2938 0 3091 -13 
L 3091 153 
C 2682 153 2656 178 2656 428 
L 2656 1658 
C 2656 2247 3014 2688 3462 2688 
C 3936 2688 3987 2266 3987 1958 
L 3987 428 
C 3987 184 3962 153 3552 153 
L 3552 -13 
C 3706 0 3987 0 4154 0 
C 4320 0 4608 0 4762 -13 
L 4762 153 
C 4352 153 4326 178 4326 428 
L 4326 1933 
z
" transform="scale(0.015625)"/>
      <path id="CMR17-66" d="M 979 2560 
L 1709 2560 
L 1709 2725 
L 966 2725 
L 966 3494 
C 966 4022 1235 4352 1510 4352 
C 1594 4352 1690 4327 1754 4282 
C 1702 4269 1568 4225 1568 4067 
C 1568 3901 1696 3850 1786 3850 
C 1875 3850 2003 3901 2003 4067 
C 2003 4308 1773 4454 1517 4454 
C 1152 4454 653 4156 653 3481 
L 653 2725 
L 141 2725 
L 141 2560 
L 653 2560 
L 653 427 
C 653 184 627 153 218 153 
L 218 -13 
C 371 0 666 0 832 0 
C 1018 0 1344 0 1517 -13 
L 1517 153 
C 1056 153 979 153 979 439 
L 979 2560 
z
" transform="scale(0.015625)"/>
      <path id="CMR17-77" d="M 3725 2183 
C 3853 2560 4109 2560 4205 2560 
L 4205 2732 
C 4077 2732 3949 2732 3821 2732 
C 3699 2732 3424 2732 3315 2738 
L 3315 2560 
C 3514 2560 3622 2445 3622 2286 
C 3622 2241 3610 2184 3597 2140 
L 2995 407 
L 2342 2275 
C 2330 2319 2310 2370 2310 2395 
C 2310 2560 2528 2560 2630 2560 
L 2630 2738 
C 2483 2732 2214 2732 2061 2732 
C 1901 2732 1734 2732 1587 2738 
L 1587 2560 
C 1939 2560 1939 2547 2074 2149 
L 1485 451 
L 851 2281 
C 819 2363 819 2376 819 2395 
C 819 2560 1037 2560 1139 2560 
L 1139 2738 
C 986 2732 717 2732 557 2732 
C 416 2732 198 2732 64 2738 
L 64 2560 
C 346 2560 416 2541 486 2331 
L 1274 49 
C 1299 -33 1318 -52 1370 -52 
C 1414 -52 1440 -39 1472 56 
L 2131 1980 
L 2797 56 
C 2829 -39 2854 -52 2899 -52 
C 2950 -52 2970 -33 2995 50 
L 3725 2183 
z
" transform="scale(0.015625)"/>
      <path id="CMR17-6b" d="M 1670 1673 
C 1664 1686 1632 1724 1632 1743 
C 1632 1756 2086 2171 2144 2222 
C 2509 2528 2739 2560 2906 2560 
L 2906 2733 
C 2867 2733 2854 2733 2848 2720 
L 2534 2720 
C 2355 2720 2080 2720 1907 2733 
L 1907 2566 
C 1997 2559 2061 2508 2061 2419 
C 2061 2291 1933 2170 1926 2170 
L 960 1289 
L 960 4396 
L 198 4326 
L 198 4160 
C 576 4160 634 4122 634 3817 
L 634 426 
C 634 184 608 153 198 153 
L 198 -13 
C 352 0 634 0 794 0 
C 954 0 1235 0 1389 -13 
L 1389 153 
C 979 153 954 178 954 428 
L 954 1130 
L 1395 1532 
L 2042 574 
C 2118 459 2182 369 2182 286 
C 2182 172 2067 153 1990 153 
L 1990 -13 
C 2144 0 2419 0 2579 0 
C 2694 0 2931 0 3040 0 
L 3040 153 
C 2739 153 2669 210 2477 491 
L 1670 1673 
z
" transform="scale(0.015625)"/>
      <path id="CMR17-70" d="M 1408 -1063 
C 998 -1063 973 -1037 973 -789 
L 973 402 
C 1158 134 1427 -38 1766 -38 
C 2406 -38 3053 523 3053 1388 
C 3053 2191 2496 2802 1837 2802 
C 1453 2802 1139 2592 960 2338 
L 960 2802 
L 198 2732 
L 198 2567 
C 576 2567 634 2528 634 2223 
L 634 -789 
C 634 -1031 608 -1063 198 -1063 
L 198 -1228 
C 352 -1216 634 -1216 800 -1216 
C 966 -1216 1254 -1216 1408 -1228 
L 1408 -1063 
z
M 973 2012 
C 973 2102 973 2235 1222 2471 
C 1254 2497 1472 2688 1792 2688 
C 2259 2688 2643 2108 2643 1382 
C 2643 656 2234 64 1728 64 
C 1498 64 1248 172 1056 472 
C 973 612 973 650 973 752 
L 973 2012 
z
" transform="scale(0.015625)"/>
     </defs>
     <use xlink:href="#CMR17-48" transform="scale(0.996264)"/>
     <use xlink:href="#CMR17-69" transform="translate(69.07243 0) scale(0.996264)"/>
     <use xlink:href="#CMR17-73" transform="translate(93.943488 0) scale(0.996264)"/>
     <use xlink:href="#CMR17-74" transform="translate(129.744826 0) scale(0.996264)"/>
     <use xlink:href="#CMR17-6f" transform="translate(165.025594 0) scale(0.996264)"/>
     <use xlink:href="#CMR17-67" transform="translate(210.716071 0) scale(0.996264)"/>
     <use xlink:href="#CMR17-72" transform="translate(256.406548 0) scale(0.996264)"/>
     <use xlink:href="#CMR17-61" transform="translate(291.687316 0) scale(0.996264)"/>
     <use xlink:href="#CMR17-6d" transform="translate(337.377793 0) scale(0.996264)"/>
     <use xlink:href="#CMR17-6f" transform="translate(444.373349 0) scale(0.996264)"/>
     <use xlink:href="#CMR17-66" transform="translate(490.063826 0) scale(0.996264)"/>
     <use xlink:href="#CMR17-77" transform="translate(547.613305 0) scale(0.996264)"/>
     <use xlink:href="#CMR17-65" transform="translate(611.520732 0) scale(0.996264)"/>
     <use xlink:href="#CMR17-65" transform="translate(652.006392 0) scale(0.996264)"/>
     <use xlink:href="#CMR17-6b" transform="translate(692.492053 0) scale(0.996264)"/>
     <use xlink:href="#CMR17-6c" transform="translate(740.784968 0) scale(0.996264)"/>
     <use xlink:href="#CMR17-79" transform="translate(765.656027 0) scale(0.996264)"/>
     <use xlink:href="#CMR17-73" transform="translate(844.024909 0) scale(0.996264)"/>
     <use xlink:href="#CMR17-63" transform="translate(879.826247 0) scale(0.996264)"/>
     <use xlink:href="#CMR17-6f" transform="translate(920.311907 0) scale(0.996264)"/>
     <use xlink:href="#CMR17-72" transform="translate(966.002384 0) scale(0.996264)"/>
     <use xlink:href="#CMR17-65" transform="translate(1001.283152 0) scale(0.996264)"/>
     <use xlink:href="#CMR17-73" transform="translate(1041.768813 0) scale(0.996264)"/>
     <use xlink:href="#CMR17-61" transform="translate(1107.646116 0) scale(0.996264)"/>
     <use xlink:href="#CMR17-66" transform="translate(1153.336594 0) scale(0.996264)"/>
     <use xlink:href="#CMR17-74" transform="translate(1180.810106 0) scale(0.996264)"/>
     <use xlink:href="#CMR17-65" transform="translate(1216.090874 0) scale(0.996264)"/>
     <use xlink:href="#CMR17-72" transform="translate(1256.576534 0) scale(0.996264)"/>
     <use xlink:href="#CMR17-61" transform="translate(1321.933268 0) scale(0.996264)"/>
     <use xlink:href="#CMR17-73" transform="translate(1397.699712 0) scale(0.996264)"/>
     <use xlink:href="#CMR17-69" transform="translate(1433.50105 0) scale(0.996264)"/>
     <use xlink:href="#CMR17-6e" transform="translate(1458.372108 0) scale(0.996264)"/>
     <use xlink:href="#CMR17-67" transform="translate(1509.267478 0) scale(0.996264)"/>
     <use xlink:href="#CMR17-6c" transform="translate(1554.957955 0) scale(0.996264)"/>
     <use xlink:href="#CMR17-65" transform="translate(1579.829013 0) scale(0.996264)"/>
     <use xlink:href="#CMR17-73" transform="translate(1650.39064 0) scale(0.996264)"/>
     <use xlink:href="#CMR17-74" transform="translate(1686.191978 0) scale(0.996264)"/>
     <use xlink:href="#CMR17-65" transform="translate(1721.472746 0) scale(0.996264)"/>
     <use xlink:href="#CMR17-70" transform="translate(1761.958406 0) scale(0.996264)"/>
     <use xlink:href="#CMR17-70" transform="translate(1842.929742 0) scale(0.996264)"/>
     <use xlink:href="#CMR17-65" transform="translate(1896.427551 0) scale(0.996264)"/>
     <use xlink:href="#CMR17-72" transform="translate(1936.913211 0) scale(0.996264)"/>
     <use xlink:href="#CMR17-6d" transform="translate(1972.193979 0) scale(0.996264)"/>
     <use xlink:href="#CMR17-75" transform="translate(2046.511115 0) scale(0.996264)"/>
     <use xlink:href="#CMR17-74" transform="translate(2097.406485 0) scale(0.996264)"/>
     <use xlink:href="#CMR17-61" transform="translate(2132.687253 0) scale(0.996264)"/>
     <use xlink:href="#CMR17-74" transform="translate(2178.37773 0) scale(0.996264)"/>
     <use xlink:href="#CMR17-69" transform="translate(2213.658497 0) scale(0.996264)"/>
     <use xlink:href="#CMR17-6f" transform="translate(2238.529556 0) scale(0.996264)"/>
     <use xlink:href="#CMR17-6e" transform="translate(2284.220033 0) scale(0.996264)"/>
    </g>
   </g>
   <g id="legend_1">
    <g id="patch_127">
     <path d="M 71.4 169.87217 
L 223.439343 169.87217 
Q 225.839343 169.87217 225.839343 167.47217 
L 225.839343 51.6 
Q 225.839343 49.2 223.439343 49.2 
L 71.4 49.2 
Q 69 49.2 69 51.6 
L 69 167.47217 
Q 69 169.87217 71.4 169.87217 
z
" style="fill: #ffffff; opacity: 0.8; stroke: #cccccc; stroke-linejoin: miter"/>
    </g>
    <g id="patch_128">
     <path d="M 73.8 62.4 
L 97.8 62.4 
L 97.8 54 
L 73.8 54 
z
" style="fill: #1f77b4; opacity: 0.8"/>
    </g>
    <g id="text_17">
     <!-- Original -->
     <g transform="translate(107.4 62.4) scale(0.12 -0.12)">
      <defs>
       <path id="CMR17-4f" d="M 4307 2135 
C 4307 3437 3366 4416 2304 4416 
C 1216 4416 294 3424 294 2135 
C 294 845 1229 -128 2298 -128 
C 3392 -128 4307 864 4307 2135 
z
M 2304 -13 
C 1574 -13 781 711 781 2217 
C 781 3716 1651 4301 2298 4301 
C 2976 4301 3821 3698 3821 2217 
C 3821 686 3008 -13 2304 -13 
z
" transform="scale(0.015625)"/>
      </defs>
      <use xlink:href="#CMR17-4f" transform="scale(0.996264)"/>
      <use xlink:href="#CMR17-72" transform="translate(71.714788 0) scale(0.996264)"/>
      <use xlink:href="#CMR17-69" transform="translate(106.995556 0) scale(0.996264)"/>
      <use xlink:href="#CMR17-67" transform="translate(131.866615 0) scale(0.996264)"/>
      <use xlink:href="#CMR17-69" transform="translate(177.557092 0) scale(0.996264)"/>
      <use xlink:href="#CMR17-6e" transform="translate(202.42815 0) scale(0.996264)"/>
      <use xlink:href="#CMR17-61" transform="translate(253.32352 0) scale(0.996264)"/>
      <use xlink:href="#CMR17-6c" transform="translate(299.013997 0) scale(0.996264)"/>
     </g>
    </g>
    <g id="line2d_33">
     <path d="M 73.8 74.924596 
L 85.8 74.924596 
L 97.8 74.924596 
" style="fill: none; stroke-dasharray: 5.55,2.4; stroke-dashoffset: 0; stroke: #1f77b4; stroke-width: 1.5"/>
    </g>
    <g id="text_18">
     <!-- Original max score -->
     <g transform="translate(107.4 79.124596) scale(0.12 -0.12)">
      <defs>
       <path id="CMR17-78" d="M 1664 1477 
C 1856 1726 2074 2006 2253 2216 
C 2464 2458 2707 2560 2989 2560 
L 2989 2726 
C 2880 2726 2656 2726 2541 2726 
C 2368 2726 2170 2726 2022 2732 
L 2022 2566 
C 2112 2553 2163 2489 2163 2400 
C 2163 2285 2099 2215 2067 2171 
L 1594 1573 
L 1030 2306 
C 973 2376 973 2388 973 2420 
C 973 2497 1037 2560 1146 2560 
L 1146 2732 
C 992 2726 717 2726 557 2726 
C 384 2726 179 2726 38 2732 
L 38 2560 
C 384 2560 461 2534 614 2343 
L 1350 1395 
C 1363 1382 1395 1344 1395 1325 
C 1395 1299 838 619 768 530 
C 480 185 179 160 6 160 
L 6 0 
C 115 0 339 0 454 0 
C 582 0 864 0 979 -6 
L 979 160 
C 941 166 838 179 838 325 
C 838 440 890 510 947 586 
L 1478 1236 
L 2035 512 
C 2086 442 2163 346 2163 301 
C 2163 211 2086 160 1984 160 
L 1984 -6 
C 2138 0 2413 0 2573 0 
C 2746 0 2950 0 3091 -6 
L 3091 160 
C 2771 160 2675 172 2522 370 
L 1664 1477 
z
" transform="scale(0.015625)"/>
      </defs>
      <use xlink:href="#CMR17-4f" transform="scale(0.996264)"/>
      <use xlink:href="#CMR17-72" transform="translate(71.714788 0) scale(0.996264)"/>
      <use xlink:href="#CMR17-69" transform="translate(106.995556 0) scale(0.996264)"/>
      <use xlink:href="#CMR17-67" transform="translate(131.866615 0) scale(0.996264)"/>
      <use xlink:href="#CMR17-69" transform="translate(177.557092 0) scale(0.996264)"/>
      <use xlink:href="#CMR17-6e" transform="translate(202.42815 0) scale(0.996264)"/>
      <use xlink:href="#CMR17-61" transform="translate(253.32352 0) scale(0.996264)"/>
      <use xlink:href="#CMR17-6c" transform="translate(299.013997 0) scale(0.996264)"/>
      <use xlink:href="#CMR17-6d" transform="translate(353.961022 0) scale(0.996264)"/>
      <use xlink:href="#CMR17-61" transform="translate(430.880612 0) scale(0.996264)"/>
      <use xlink:href="#CMR17-78" transform="translate(476.571089 0) scale(0.996264)"/>
      <use xlink:href="#CMR17-73" transform="translate(554.939971 0) scale(0.996264)"/>
      <use xlink:href="#CMR17-63" transform="translate(590.741309 0) scale(0.996264)"/>
      <use xlink:href="#CMR17-6f" transform="translate(631.226969 0) scale(0.996264)"/>
      <use xlink:href="#CMR17-72" transform="translate(676.917446 0) scale(0.996264)"/>
      <use xlink:href="#CMR17-65" transform="translate(712.198214 0) scale(0.996264)"/>
     </g>
    </g>
    <g id="line2d_34">
     <path d="M 73.8 91.649192 
L 85.8 91.649192 
L 97.8 91.649192 
" style="fill: none; stroke-dasharray: 5.55,2.4; stroke-dashoffset: 0; stroke: #ff7f0e; stroke-width: 1.5"/>
    </g>
    <g id="text_19">
     <!-- Max of Permutation 1 -->
     <g transform="translate(107.4 95.849192) scale(0.12 -0.12)">
      <defs>
       <path id="CMR17-4d" d="M 1338 4224 
C 1299 4320 1293 4320 1158 4320 
L 339 4320 
L 339 4160 
C 781 4160 851 4160 851 3875 
L 851 610 
C 851 451 851 153 339 153 
L 339 -13 
C 486 0 755 0 915 0 
C 1075 0 1344 0 1491 -13 
L 1491 153 
C 979 153 979 451 979 610 
L 979 4135 
L 986 4135 
L 2490 89 
C 2515 25 2528 -13 2579 -13 
C 2630 -13 2643 25 2669 89 
L 4186 4166 
L 4192 4166 
L 4192 438 
C 4192 153 4122 153 3680 153 
L 3680 -13 
C 3853 0 4198 0 4384 0 
C 4570 0 4922 0 5094 -13 
L 5094 153 
C 4653 153 4582 153 4582 438 
L 4582 3875 
C 4582 4160 4653 4160 5094 4160 
L 5094 4320 
L 4282 4320 
C 4147 4320 4141 4314 4102 4218 
L 2720 502 
L 1338 4224 
z
" transform="scale(0.015625)"/>
       <path id="CMR17-50" d="M 1267 2042 
L 2291 2042 
C 3117 2042 3718 2578 3718 3184 
C 3718 3791 3130 4352 2291 4352 
L 333 4352 
L 333 4186 
C 774 4186 845 4186 845 3899 
L 845 446 
C 845 160 774 160 333 160 
L 333 0 
C 518 0 858 0 1056 0 
C 1254 0 1594 0 1779 0 
L 1779 160 
C 1338 160 1267 160 1267 446 
L 1267 2042 
z
M 1254 2176 
L 1254 3938 
C 1254 4155 1267 4186 1523 4186 
L 2170 4186 
C 2995 4186 3232 3714 3232 3184 
C 3232 2604 2950 2176 2170 2176 
L 1254 2176 
z
" transform="scale(0.015625)"/>
      </defs>
      <use xlink:href="#CMR17-4d" transform="scale(0.996264)"/>
      <use xlink:href="#CMR17-61" transform="translate(84.686941 0) scale(0.996264)"/>
      <use xlink:href="#CMR17-78" transform="translate(130.377418 0) scale(0.996264)"/>
      <use xlink:href="#CMR17-6f" transform="translate(208.7463 0) scale(0.996264)"/>
      <use xlink:href="#CMR17-66" transform="translate(254.436777 0) scale(0.996264)"/>
      <use xlink:href="#CMR17-50" transform="translate(311.986256 0) scale(0.996264)"/>
      <use xlink:href="#CMR17-65" transform="translate(371.970102 0) scale(0.996264)"/>
      <use xlink:href="#CMR17-72" transform="translate(412.455763 0) scale(0.996264)"/>
      <use xlink:href="#CMR17-6d" transform="translate(447.736531 0) scale(0.996264)"/>
      <use xlink:href="#CMR17-75" transform="translate(522.053667 0) scale(0.996264)"/>
      <use xlink:href="#CMR17-74" transform="translate(572.949036 0) scale(0.996264)"/>
      <use xlink:href="#CMR17-61" transform="translate(608.229804 0) scale(0.996264)"/>
      <use xlink:href="#CMR17-74" transform="translate(653.920281 0) scale(0.996264)"/>
      <use xlink:href="#CMR17-69" transform="translate(689.201049 0) scale(0.996264)"/>
      <use xlink:href="#CMR17-6f" transform="translate(714.072108 0) scale(0.996264)"/>
      <use xlink:href="#CMR17-6e" transform="translate(759.762585 0) scale(0.996264)"/>
      <use xlink:href="#CMR17-31" transform="translate(840.733921 0) scale(0.996264)"/>
     </g>
    </g>
    <g id="line2d_35">
     <path d="M 73.8 108.373787 
L 85.8 108.373787 
L 97.8 108.373787 
" style="fill: none; stroke-dasharray: 5.55,2.4; stroke-dashoffset: 0; stroke: #2ca02c; stroke-width: 1.5"/>
    </g>
    <g id="text_20">
     <!-- Max of Permutation 2 -->
     <g transform="translate(107.4 112.573787) scale(0.12 -0.12)">
      <use xlink:href="#CMR17-4d" transform="scale(0.996264)"/>
      <use xlink:href="#CMR17-61" transform="translate(84.686941 0) scale(0.996264)"/>
      <use xlink:href="#CMR17-78" transform="translate(130.377418 0) scale(0.996264)"/>
      <use xlink:href="#CMR17-6f" transform="translate(208.7463 0) scale(0.996264)"/>
      <use xlink:href="#CMR17-66" transform="translate(254.436777 0) scale(0.996264)"/>
      <use xlink:href="#CMR17-50" transform="translate(311.986256 0) scale(0.996264)"/>
      <use xlink:href="#CMR17-65" transform="translate(371.970102 0) scale(0.996264)"/>
      <use xlink:href="#CMR17-72" transform="translate(412.455763 0) scale(0.996264)"/>
      <use xlink:href="#CMR17-6d" transform="translate(447.736531 0) scale(0.996264)"/>
      <use xlink:href="#CMR17-75" transform="translate(522.053667 0) scale(0.996264)"/>
      <use xlink:href="#CMR17-74" transform="translate(572.949036 0) scale(0.996264)"/>
      <use xlink:href="#CMR17-61" transform="translate(608.229804 0) scale(0.996264)"/>
      <use xlink:href="#CMR17-74" transform="translate(653.920281 0) scale(0.996264)"/>
      <use xlink:href="#CMR17-69" transform="translate(689.201049 0) scale(0.996264)"/>
      <use xlink:href="#CMR17-6f" transform="translate(714.072108 0) scale(0.996264)"/>
      <use xlink:href="#CMR17-6e" transform="translate(759.762585 0) scale(0.996264)"/>
      <use xlink:href="#CMR17-32" transform="translate(840.733921 0) scale(0.996264)"/>
     </g>
    </g>
    <g id="line2d_36">
     <path d="M 73.8 125.098383 
L 85.8 125.098383 
L 97.8 125.098383 
" style="fill: none; stroke-dasharray: 5.55,2.4; stroke-dashoffset: 0; stroke: #d62728; stroke-width: 1.5"/>
    </g>
    <g id="text_21">
     <!-- Max of Permutation 3 -->
     <g transform="translate(107.4 129.298383) scale(0.12 -0.12)">
      <use xlink:href="#CMR17-4d" transform="scale(0.996264)"/>
      <use xlink:href="#CMR17-61" transform="translate(84.686941 0) scale(0.996264)"/>
      <use xlink:href="#CMR17-78" transform="translate(130.377418 0) scale(0.996264)"/>
      <use xlink:href="#CMR17-6f" transform="translate(208.7463 0) scale(0.996264)"/>
      <use xlink:href="#CMR17-66" transform="translate(254.436777 0) scale(0.996264)"/>
      <use xlink:href="#CMR17-50" transform="translate(311.986256 0) scale(0.996264)"/>
      <use xlink:href="#CMR17-65" transform="translate(371.970102 0) scale(0.996264)"/>
      <use xlink:href="#CMR17-72" transform="translate(412.455763 0) scale(0.996264)"/>
      <use xlink:href="#CMR17-6d" transform="translate(447.736531 0) scale(0.996264)"/>
      <use xlink:href="#CMR17-75" transform="translate(522.053667 0) scale(0.996264)"/>
      <use xlink:href="#CMR17-74" transform="translate(572.949036 0) scale(0.996264)"/>
      <use xlink:href="#CMR17-61" transform="translate(608.229804 0) scale(0.996264)"/>
      <use xlink:href="#CMR17-74" transform="translate(653.920281 0) scale(0.996264)"/>
      <use xlink:href="#CMR17-69" transform="translate(689.201049 0) scale(0.996264)"/>
      <use xlink:href="#CMR17-6f" transform="translate(714.072108 0) scale(0.996264)"/>
      <use xlink:href="#CMR17-6e" transform="translate(759.762585 0) scale(0.996264)"/>
      <use xlink:href="#CMR17-33" transform="translate(840.733921 0) scale(0.996264)"/>
     </g>
    </g>
    <g id="line2d_37">
     <path d="M 73.8 141.822979 
L 85.8 141.822979 
L 97.8 141.822979 
" style="fill: none; stroke-dasharray: 5.55,2.4; stroke-dashoffset: 0; stroke: #9467bd; stroke-width: 1.5"/>
    </g>
    <g id="text_22">
     <!-- Max of Permutation 4 -->
     <g transform="translate(107.4 146.022979) scale(0.12 -0.12)">
      <use xlink:href="#CMR17-4d" transform="scale(0.996264)"/>
      <use xlink:href="#CMR17-61" transform="translate(84.686941 0) scale(0.996264)"/>
      <use xlink:href="#CMR17-78" transform="translate(130.377418 0) scale(0.996264)"/>
      <use xlink:href="#CMR17-6f" transform="translate(208.7463 0) scale(0.996264)"/>
      <use xlink:href="#CMR17-66" transform="translate(254.436777 0) scale(0.996264)"/>
      <use xlink:href="#CMR17-50" transform="translate(311.986256 0) scale(0.996264)"/>
      <use xlink:href="#CMR17-65" transform="translate(371.970102 0) scale(0.996264)"/>
      <use xlink:href="#CMR17-72" transform="translate(412.455763 0) scale(0.996264)"/>
      <use xlink:href="#CMR17-6d" transform="translate(447.736531 0) scale(0.996264)"/>
      <use xlink:href="#CMR17-75" transform="translate(522.053667 0) scale(0.996264)"/>
      <use xlink:href="#CMR17-74" transform="translate(572.949036 0) scale(0.996264)"/>
      <use xlink:href="#CMR17-61" transform="translate(608.229804 0) scale(0.996264)"/>
      <use xlink:href="#CMR17-74" transform="translate(653.920281 0) scale(0.996264)"/>
      <use xlink:href="#CMR17-69" transform="translate(689.201049 0) scale(0.996264)"/>
      <use xlink:href="#CMR17-6f" transform="translate(714.072108 0) scale(0.996264)"/>
      <use xlink:href="#CMR17-6e" transform="translate(759.762585 0) scale(0.996264)"/>
      <use xlink:href="#CMR17-34" transform="translate(840.733921 0) scale(0.996264)"/>
     </g>
    </g>
    <g id="line2d_38">
     <path d="M 73.8 158.547575 
L 85.8 158.547575 
L 97.8 158.547575 
" style="fill: none; stroke-dasharray: 5.55,2.4; stroke-dashoffset: 0; stroke: #8c564b; stroke-width: 1.5"/>
    </g>
    <g id="text_23">
     <!-- Max of Permutation 5 -->
     <g transform="translate(107.4 162.747575) scale(0.12 -0.12)">
      <use xlink:href="#CMR17-4d" transform="scale(0.996264)"/>
      <use xlink:href="#CMR17-61" transform="translate(84.686941 0) scale(0.996264)"/>
      <use xlink:href="#CMR17-78" transform="translate(130.377418 0) scale(0.996264)"/>
      <use xlink:href="#CMR17-6f" transform="translate(208.7463 0) scale(0.996264)"/>
      <use xlink:href="#CMR17-66" transform="translate(254.436777 0) scale(0.996264)"/>
      <use xlink:href="#CMR17-50" transform="translate(311.986256 0) scale(0.996264)"/>
      <use xlink:href="#CMR17-65" transform="translate(371.970102 0) scale(0.996264)"/>
      <use xlink:href="#CMR17-72" transform="translate(412.455763 0) scale(0.996264)"/>
      <use xlink:href="#CMR17-6d" transform="translate(447.736531 0) scale(0.996264)"/>
      <use xlink:href="#CMR17-75" transform="translate(522.053667 0) scale(0.996264)"/>
      <use xlink:href="#CMR17-74" transform="translate(572.949036 0) scale(0.996264)"/>
      <use xlink:href="#CMR17-61" transform="translate(608.229804 0) scale(0.996264)"/>
      <use xlink:href="#CMR17-74" transform="translate(653.920281 0) scale(0.996264)"/>
      <use xlink:href="#CMR17-69" transform="translate(689.201049 0) scale(0.996264)"/>
      <use xlink:href="#CMR17-6f" transform="translate(714.072108 0) scale(0.996264)"/>
      <use xlink:href="#CMR17-6e" transform="translate(759.762585 0) scale(0.996264)"/>
      <use xlink:href="#CMR17-35" transform="translate(840.733921 0) scale(0.996264)"/>
     </g>
    </g>
   </g>
  </g>
 </g>
 <defs>
  <clipPath id="p74cf0ba124">
   <rect x="63" y="43.2" width="390.6" height="277.2"/>
  </clipPath>
 </defs>
</svg>
